<?xml version="1.0" encoding="UTF-8" standalone="no"?>
<!-- Created with Inkscape (http://www.inkscape.org/) -->

<svg
   xmlns:dc="http://purl.org/dc/elements/1.1/"
   xmlns:cc="http://creativecommons.org/ns#"
   xmlns:rdf="http://www.w3.org/1999/02/22-rdf-syntax-ns#"
   xmlns:svg="http://www.w3.org/2000/svg"
   xmlns="http://www.w3.org/2000/svg"
   xmlns:sodipodi="http://sodipodi.sourceforge.net/DTD/sodipodi-0.dtd"
   xmlns:inkscape="http://www.inkscape.org/namespaces/inkscape"
   width="116.20217mm"
   height="45.123989mm"
   viewBox="0 0 411.73998 159.88816"
   id="svg2"
   version="1.1"
   inkscape:version="0.92.3 (2405546, 2018-03-11)"
   sodipodi:docname="Bolidozor_logo.svg">
  <defs
     id="defs4">
    <clipPath
       id="clipPath24"
       clipPathUnits="userSpaceOnUse">
      <path
         inkscape:connector-curvature="0"
         id="path26"
         d="M 0,842 H 595 V 0 H 0 Z" />
    </clipPath>
  </defs>
  <sodipodi:namedview
     id="base"
     pagecolor="#ffffff"
     bordercolor="#666666"
     borderopacity="1.0"
     inkscape:pageopacity="0.0"
     inkscape:pageshadow="2"
     inkscape:zoom="0.98994949"
     inkscape:cx="-304.59813"
     inkscape:cy="25.94738"
     inkscape:document-units="mm"
     inkscape:current-layer="layer1"
     showgrid="false"
     inkscape:snap-text-baseline="false"
     inkscape:window-width="1871"
     inkscape:window-height="1025"
     inkscape:window-x="49"
     inkscape:window-y="27"
     inkscape:window-maximized="1"
     showguides="false"
     inkscape:guide-bbox="true"
     fit-margin-top="5"
     fit-margin-left="5"
     fit-margin-right="5"
     fit-margin-bottom="5">
    <sodipodi:guide
       position="-252.24507,-15.117981"
       orientation="0,1"
       id="guide3493"
       inkscape:locked="false" />
  </sodipodi:namedview>
  <metadata
     id="metadata7">
    <rdf:RDF>
      <cc:Work
         rdf:about="">
        <dc:format>image/svg+xml</dc:format>
        <dc:type
           rdf:resource="http://purl.org/dc/dcmitype/StillImage" />
        <dc:title></dc:title>
      </cc:Work>
    </rdf:RDF>
  </metadata>
  <g
     inkscape:label="Layer 1"
     inkscape:groupmode="layer"
     id="layer1"
     transform="translate(-445.18421,-147.01577)">
    <g
       id="g3054"
       transform="matrix(1.1051904,0,0,1.1051904,383.85279,-181.21902)">
      <g
         id="g3038">
        <text
           xml:space="preserve"
           style="font-style:normal;font-variant:normal;font-weight:bold;font-stretch:normal;line-height:0%;font-family:'PT Sans';-inkscape-font-specification:'PT Sans, Bold';text-align:start;letter-spacing:0px;word-spacing:0px;writing-mode:lr-tb;text-anchor:start;fill:#000000;fill-opacity:1;stroke:none"
           x="182.41484"
           y="419.18472"
           id="text4427"><tspan
             sodipodi:role="line"
             id="tspan4429"
             x="182.41484"
             y="419.18472"
             style="font-style:normal;font-variant:normal;font-weight:bold;font-stretch:normal;font-size:56px;line-height:125%;font-family:'PT Sans';-inkscape-font-specification:'PT Sans Bold';text-align:start;writing-mode:lr-tb;text-anchor:start">Bolidozor</tspan></text>
        <g
           id="g4175"
           transform="matrix(0.81145393,0,0,0.81145393,-836.75298,-1084.3187)">
          <path
             style="display:inline;fill:#000000;fill-opacity:1;stroke:#000000;stroke-width:1px;stroke-linecap:butt;stroke-linejoin:miter;stroke-opacity:1"
             d="m 1181.1732,1765.4344 c 8.0759,-0.4893 16.2153,-0.4306 24.2181,-1.6205 9.2679,-1.378 18.4931,-3.3937 27.3795,-6.3644 15.6783,-5.2413 30.4929,-12.8241 45.3469,-20.0795 9.4558,-4.6186 27.8277,-14.9101 27.8277,-14.9101 0,0 -15.403,17.1142 -23.5426,25.2482 -9.5137,9.5071 -29.5295,27.4964 -29.5295,27.4964 0,0 16.0735,-2.937 24.2094,-3.396 5.1293,-0.2894 18.3706,-1.2972 15.407,0.4107 -8.0506,4.6395 -16.1937,7.8173 -27.8485,15.959 -5.8274,4.0708 -11.8004,8.3979 -17.5067,12.8529 -5.5399,4.325 -11.2164,8.5341 -16.2288,13.4608 -4.6837,4.6036 -8.5177,9.9989 -12.8376,14.9455 -4.3102,4.9354 -8.5238,10.2404 -13.0515,14.6998 -6.8485,6.7451 -15.3964,12.3792 -24.9352,14.4853 -16.2318,3.5839 -42.5738,-7.5247 -50.636,-23.323 -5.7936,-11.353 -7.6356,-19.6747 -6.9437,-29.875 0.4171,-6.1482 3.1422,-12.1616 6.5787,-17.2767 3.4353,-5.1133 8.3999,-9.1667 13.503,-12.6172 5.2261,-3.5337 10.986,-6.6441 17.1428,-8.02 4.5885,-1.0254 7.6964,-1.2599 11.6868,-1.5466 3.2498,-0.2335 6.508,-0.3326 9.7602,-0.5296 z"
             id="path3921"
             inkscape:connector-curvature="0"
             sodipodi:nodetypes="aaaacacassaaasssaaassa" />
          <ellipse
             transform="matrix(0.73188307,0,0,0.71609359,297.02586,535.72538)"
             id="path4084"
             style="fill:#000000;fill-opacity:1;stroke:#000000;stroke-width:4.89685059;stroke-miterlimit:4;stroke-dasharray:none;stroke-opacity:1"
             cx="1185.4125"
             cy="1785.5553"
             rx="59.430824"
             ry="62.407417" />
        </g>
        <circle
           style="fill:#000000;fill-opacity:1;stroke:#000000;stroke-width:4.89685059;stroke-miterlimit:4;stroke-dasharray:none;stroke-opacity:1"
           id="path3983"
           transform="matrix(-0.69194419,-0.01396448,0.01307646,-0.64794208,1023.3983,1636.3792)"
           cx="1354.7336"
           cy="1891.4836"
           r="48.447865" />
        <circle
           transform="matrix(-0.69194419,-0.01396448,0.01307646,-0.64794208,1022.8869,1635.3025)"
           id="path3985"
           style="fill:#000000;fill-opacity:1;stroke:#000000;stroke-width:4.89685059;stroke-miterlimit:4;stroke-dasharray:none;stroke-opacity:1"
           cx="1354.7336"
           cy="1891.4836"
           r="48.447865" />
        <ellipse
           style="fill:#000000;fill-opacity:1;stroke:#000000;stroke-width:4.89685059;stroke-miterlimit:4;stroke-dasharray:none;stroke-opacity:1"
           id="path3987"
           transform="matrix(-0.69194419,-0.01396448,0.01307646,-0.64794208,1024.4535,1636.9336)"
           cx="1354.7336"
           cy="1891.4836"
           rx="48.447865"
           ry="48.763649" />
        <circle
           transform="matrix(-0.69194419,-0.01396448,0.01307646,-0.64794208,1021.5492,1635.5421)"
           id="path3989"
           style="fill:#000000;fill-opacity:1;stroke:#000000;stroke-width:4.89685059;stroke-miterlimit:4;stroke-dasharray:none;stroke-opacity:1"
           cx="1354.7336"
           cy="1891.4836"
           r="48.447865" />
        <circle
           style="fill:#000000;fill-opacity:1;stroke:#000000;stroke-width:4.89685059;stroke-miterlimit:4;stroke-dasharray:none;stroke-opacity:1"
           id="path3991"
           transform="matrix(-0.69194419,-0.01396448,0.01307646,-0.64794208,1020.7766,1634.1936)"
           cx="1354.7336"
           cy="1891.4836"
           r="48.447865" />
        <circle
           transform="matrix(-0.69194419,-0.01396448,0.01307646,-0.64794208,1020.2975,1631.518)"
           id="path3993"
           style="fill:#000000;fill-opacity:1;stroke:#000000;stroke-width:4.89685059;stroke-miterlimit:4;stroke-dasharray:none;stroke-opacity:1"
           cx="1354.7336"
           cy="1891.4836"
           r="48.447865" />
        <circle
           style="fill:#000000;fill-opacity:1;stroke:#000000;stroke-width:4.89685059;stroke-miterlimit:4;stroke-dasharray:none;stroke-opacity:1"
           id="path3995"
           transform="matrix(-0.69194419,-0.01396448,0.01307646,-0.64794208,1020.8949,1628.3311)"
           cx="1354.7336"
           cy="1891.4836"
           r="48.447865" />
        <circle
           transform="matrix(-0.69194419,-0.01396448,0.01307646,-0.64794208,1022.5315,1626.4981)"
           id="path3997"
           style="fill:#000000;fill-opacity:1;stroke:#000000;stroke-width:4.89685059;stroke-miterlimit:4;stroke-dasharray:none;stroke-opacity:1"
           cx="1354.7336"
           cy="1891.4836"
           r="48.447865" />
        <circle
           style="fill:#000000;fill-opacity:1;stroke:#000000;stroke-width:4.89685059;stroke-miterlimit:4;stroke-dasharray:none;stroke-opacity:1"
           id="path3999"
           transform="matrix(-0.69194419,-0.01396448,0.01307646,-0.64794208,1022.5315,1626.4981)"
           cx="1354.7336"
           cy="1891.4836"
           r="48.447865" />
      </g>
      <path
         inkscape:connector-curvature="0"
         id="path14"
         style="fill:#ffffff;fill-opacity:1;fill-rule:nonzero;stroke:none"
         d="m 100.11978,385.55804 0.0573,12.28889 12.17544,-0.0573 -0.0573,-12.28889 -12.17545,0.0573 z m -10.195923,-10.19077 22.484243,-0.10588 10.03484,10.03107 0.1055,22.688 -32.472583,0.15337 z" />
    </g>
  </g>
</svg>
