<?xml version="1.0" encoding="UTF-8" standalone="no"?>
<!-- Created with Inkscape (http://www.inkscape.org/) -->

<svg
   width="217.97017mm"
   height="178.13034mm"
   viewBox="0 0 772.33524 631.1705"
   id="svg4237"
   version="1.1"
   inkscape:version="1.2.2 (b0a8486541, 2022-12-01)"
   sodipodi:docname="Map_bolid_single_object.svg"
   xmlns:inkscape="http://www.inkscape.org/namespaces/inkscape"
   xmlns:sodipodi="http://sodipodi.sourceforge.net/DTD/sodipodi-0.dtd"
   xmlns="http://www.w3.org/2000/svg"
   xmlns:svg="http://www.w3.org/2000/svg"
   xmlns:rdf="http://www.w3.org/1999/02/22-rdf-syntax-ns#"
   xmlns:cc="http://creativecommons.org/ns#"
   xmlns:dc="http://purl.org/dc/elements/1.1/">
  <defs
     id="defs4239">
    <linearGradient
       id="linearGradient5618"
       inkscape:swatch="solid">
      <stop
         id="stop5620"
         offset="0"
         style="stop-color:#000000;stop-opacity:1;" />
    </linearGradient>
    <filter
       id="filter5683"
       style="color-interpolation-filters:sRGB"
       inkscape:collect="always"
       x="0"
       y="0"
       width="1"
       height="1">
      <feBlend
         id="feBlend5685"
         in2="BackgroundImage"
         mode="multiply"
         inkscape:collect="always" />
    </filter>
  </defs>
  <sodipodi:namedview
     id="base"
     pagecolor="#ffffff"
     bordercolor="#666666"
     borderopacity="1.0"
     inkscape:pageopacity="0.0"
     inkscape:pageshadow="2"
     inkscape:zoom="1.7629085"
     inkscape:cx="399.90732"
     inkscape:cy="264.90315"
     inkscape:document-units="px"
     inkscape:current-layer="g6232"
     showgrid="false"
     inkscape:window-width="2244"
     inkscape:window-height="1371"
     inkscape:window-x="60"
     inkscape:window-y="32"
     inkscape:window-maximized="1"
     inkscape:showpageshadow="2"
     inkscape:pagecheckerboard="0"
     inkscape:deskcolor="#d1d1d1" />
  <metadata
     id="metadata4242">
    <rdf:RDF>
      <cc:Work
         rdf:about="">
        <dc:format>image/svg+xml</dc:format>
        <dc:type
           rdf:resource="http://purl.org/dc/dcmitype/StillImage" />
      </cc:Work>
    </rdf:RDF>
  </metadata>
  <g
     inkscape:label="Layer 1"
     inkscape:groupmode="layer"
     id="layer1"
     transform="translate(16.075935,-214.12759)">
    <g
       id="layer1-9"
       inkscape:label="Final layer"
       style="display:inline;filter:url(#filter5683)"
       transform="translate(56.545433,124.08813)" />
    <g
       id="g4508"
       transform="matrix(4.5780742,0,0,4.5780742,-1123.2372,-1908.0757)">
      <g
         transform="translate(-20.339531,3.0701179)"
         id="g6232">
        <path
           id="path4172"
           style="display:inline;opacity:1;stroke-width:21.949;stroke-linecap:round;stroke-linejoin:round;filter:url(#filter5683)"
           d="M 337.3319 480.07049 A 0.30000001 0.30000001 0 0 0 337.07433 480.32807 L 336.15522 487.3138 A 0.89771879 0.89790237 0 0 0 335.50808 488.17572 A 0.89771879 0.89790237 0 0 0 336.07642 489.01044 L 336.16922 492.89447 A 0.89771879 0.89790237 0 0 0 335.57567 493.73838 A 0.89771879 0.89790237 0 0 0 335.58167 493.84077 L 329.75743 497.53282 A 1.202981 1.203227 0 0 0 328.90911 497.18246 A 1.202981 1.203227 0 0 0 328.10719 497.48923 L 322.21135 492.5489 A 0.89771879 0.89790237 0 0 0 322.24255 492.31372 A 0.89771879 0.89790237 0 0 0 321.34503 491.41621 A 0.89771879 0.89790237 0 0 0 320.44712 492.31372 A 0.89771879 0.89790237 0 0 0 320.81508 493.03805 L 320.13355 496.44533 A 0.89771879 0.89790237 0 0 0 319.36242 497.31804 L 282.18957 512.91575 A 0.99364036 0.99384356 0 0 0 281.47444 512.61218 A 0.99364036 0.99384356 0 0 0 280.48094 513.60609 A 0.99364036 0.99384356 0 0 0 280.8485 514.37681 L 277.94238 522.36845 A 1.5724885 1.5728107 0 0 0 277.67561 522.34525 A 1.5724885 1.5728107 0 0 0 276.10296 523.9179 A 1.5724885 1.5728107 0 0 0 277.67561 525.49015 A 1.5724885 1.5728107 0 0 0 278.58832 525.19698 L 281.28526 527.57155 A 0.99364036 0.99384356 0 0 0 281.19327 527.98831 A 0.99364036 0.99384356 0 0 0 281.46364 528.66905 L 278.70631 533.281 A 0.99364036 0.99384356 0 0 0 278.55752 533.26941 A 0.99364036 0.99384356 0 0 0 277.56362 534.26331 A 0.99364036 0.99384356 0 0 0 278.55752 535.25722 A 0.99364036 0.99384356 0 0 0 278.92109 535.18762 L 311.38718 572.39367 L 308.46906 570.58824 A 0.89771879 0.89790237 0 0 0 308.48186 570.44105 A 0.89771879 0.89790237 0 0 0 307.58395 569.54314 A 0.89771879 0.89790237 0 0 0 306.68643 570.44105 A 0.89771879 0.89790237 0 0 0 307.0736 571.17938 L 305.29297 577.33839 A 0.72985601 0.73000532 0 0 0 304.59303 577.91154 L 298.71679 579.23261 A 0.30003001 0.30003001 0 0 0 298.60361 579.28341 L 283.14228 590.70792 A 0.89771879 0.89790237 0 0 0 282.60793 590.53113 A 0.89771879 0.89790237 0 0 0 281.71042 591.42905 A 0.89771879 0.89790237 0 0 0 282.60793 592.32696 A 0.89771879 0.89790237 0 0 0 282.73152 592.31856 L 284.79893 596.16779 A 0.30000001 0.30000001 0 0 0 285.20529 596.29098 A 0.30000001 0.30000001 0 0 0 285.32807 595.88462 L 283.26427 592.04179 A 0.89771879 0.89790237 0 0 0 283.50585 591.42905 A 0.89771879 0.89790237 0 0 0 283.47745 591.20667 L 298.91038 579.80256 L 304.71662 578.49908 A 0.72985601 0.73000532 0 0 0 305.30537 578.79825 A 0.72985601 0.73000532 0 0 0 306.0353 578.06832 A 0.72985601 0.73000532 0 0 0 305.84771 577.57997 L 307.65314 571.33577 A 0.89771879 0.89790237 0 0 0 308.17749 571.11419 L 312.04792 573.50716 A 0.89771879 0.89790237 0 0 0 312.03512 573.65475 A 0.89771879 0.89790237 0 0 0 312.93264 574.55266 A 0.89771879 0.89790237 0 0 0 313.82175 573.77913 L 332.79114 570.25667 A 0.89771879 0.89790237 0 0 0 333.55626 570.68583 A 0.89771879 0.89790237 0 0 0 334.45418 569.78792 A 0.89771879 0.89790237 0 0 0 334.09221 569.06798 L 334.84894 562.51901 A 0.89771879 0.89790237 0 0 0 335.49168 562.07025 L 377.36648 571.57774 A 0.89771879 0.89790237 0 0 0 377.81243 572.32807 L 376.74214 580.98285 A 0.72985601 0.73000532 0 0 0 376.27818 581.66238 A 0.72985601 0.73000532 0 0 0 376.93012 582.38791 L 381.39049 596.40617 A 0.30000001 0.30000001 0 0 0 381.76766 596.59975 A 0.30000001 0.30000001 0 0 0 381.96084 596.22259 L 377.50046 582.20073 A 0.72985601 0.73000532 0 0 0 377.73764 581.66238 A 0.72985601 0.73000532 0 0 0 377.34288 581.01404 L 378.40358 572.43846 A 0.89771879 0.89790237 0 0 0 378.40398 572.43846 A 0.89771879 0.89790237 0 0 0 379.16111 571.55175 A 0.89771879 0.89790237 0 0 0 379.13991 571.35977 L 379.36869 571.13219 L 383.73427 568.31446 L 394.99959 567.8109 A 0.89771879 0.89790237 0 0 0 395.83391 568.37925 A 0.89771879 0.89790237 0 0 0 396.73183 567.48134 A 0.89771879 0.89790237 0 0 0 396.64543 567.09817 L 420.50635 545.46904 A 1.0672858 1.067504 0 0 0 421.1047 545.65262 A 1.0672858 1.067504 0 0 0 422.03181 545.11347 L 423.90723 545.70542 A 0.89771879 0.89790237 0 0 0 423.90443 545.77221 A 0.89771879 0.89790237 0 0 0 424.80194 546.67013 A 0.89771879 0.89790237 0 0 0 424.81234 546.67013 L 425.62306 548.83192 A 0.30000001 0.30000001 0 0 0 426.00983 549.0079 A 0.30000001 0.30000001 0 0 0 426.18541 548.62314 L 425.37509 546.46374 A 0.89771879 0.89790237 0 0 0 425.69986 545.77221 A 0.89771879 0.89790237 0 0 0 424.80194 544.8743 A 0.89771879 0.89790237 0 0 0 424.15281 545.15307 L 422.17019 544.52753 A 1.0672858 1.067504 0 0 0 421.1047 543.51763 A 1.0672858 1.067504 0 0 0 420.98031 543.52523 L 414.69331 531.91034 A 0.89771879 0.89790237 0 0 0 414.91289 531.32239 A 0.89771879 0.89790237 0 0 0 414.01537 530.42448 A 0.89771879 0.89790237 0 0 0 413.21745 530.91123 L 400.28789 529.29579 A 0.89771879 0.89790237 0 0 0 399.42957 528.66065 A 0.89771879 0.89790237 0 0 0 399.0568 528.74224 L 390.79599 520.54222 A 0.89771879 0.89790237 0 0 0 390.89758 520.12866 A 0.89771879 0.89790237 0 0 0 389.99967 519.23075 A 0.89771879 0.89790237 0 0 0 389.35653 519.50272 L 379.34549 514.20563 A 0.89771879 0.89790237 0 0 0 379.36469 514.02285 A 0.89771879 0.89790237 0 0 0 378.46677 513.12493 A 0.89771879 0.89790237 0 0 0 377.56926 514.02285 A 0.89771879 0.89790237 0 0 0 377.81843 514.64359 L 374.39516 524.79662 A 0.89771879 0.89790237 0 0 0 374.042 524.89941 L 363.14144 514.18243 A 0.89771879 0.89790237 0 0 0 363.21863 513.81927 A 0.89771879 0.89790237 0 0 0 362.87586 513.11373 L 364.98646 506.50716 A 0.89771879 0.89790237 0 0 0 365.03446 506.50876 A 0.89771879 0.89790237 0 0 0 365.93197 505.61085 A 0.89771879 0.89790237 0 0 0 365.03446 504.71294 A 0.89771879 0.89790237 0 0 0 364.36092 505.01651 L 342.86897 497.93958 L 337.3435 493.95916 A 0.89771879 0.89790237 0 0 0 337.3711 493.73838 A 0.89771879 0.89790237 0 0 0 336.76916 492.89127 L 336.67637 489.03163 A 0.89771879 0.89790237 0 0 0 337.30351 488.17572 A 0.89771879 0.89790237 0 0 0 336.75556 487.349 L 337.66987 480.40646 A 0.30000001 0.30000001 0 0 0 337.4103 480.07049 A 0.30000001 0.30000001 0 0 0 337.3319 480.07049 z M 381.62127 488.70207 A 1.542122 1.5424372 0 0 0 380.07942 490.24472 A 1.542122 1.5424372 0 0 0 381.62127 491.78697 A 1.542122 1.5424372 0 0 0 383.16352 490.24472 A 1.542122 1.5424372 0 0 0 381.62127 488.70207 z M 309.81213 488.90565 A 1.4404234 1.4407178 0 0 0 308.37147 490.34631 A 1.4404234 1.4407178 0 0 0 309.81213 491.78697 A 1.4404234 1.4407178 0 0 0 311.2524 490.34631 A 1.4404234 1.4407178 0 0 0 309.81213 488.90565 z M 321.86698 493.04405 L 327.77242 497.99198 A 1.202981 1.203227 0 0 0 327.74522 498.08277 L 321.14865 497.21205 A 0.89771879 0.89790237 0 0 0 320.72109 496.56451 L 321.39143 493.21044 A 0.89771879 0.89790237 0 0 0 321.86698 493.04405 z M 335.84805 494.38192 A 0.89771879 0.89790237 0 0 0 336.23761 494.6047 L 337.27471 500.45374 A 1.10122 1.1014452 0 0 0 336.88275 500.72892 L 330.11059 498.44713 A 1.202981 1.203227 0 0 0 330.11219 498.38554 A 1.202981 1.203227 0 0 0 330.0638 498.04957 L 335.84805 494.38192 z M 337.01033 494.45792 L 342.5566 498.45313 A 0.30003001 0.30003001 0 0 0 342.6366 498.49393 L 364.13774 505.57365 A 0.89771879 0.89790237 0 0 0 364.13654 505.61085 A 0.89771879 0.89790237 0 0 0 364.13814 505.66204 L 346.43103 513.06854 A 1.5724885 1.5728107 0 0 0 345.08916 512.31461 A 1.5724885 1.5728107 0 0 0 344.54401 512.413 L 338.55179 502.16278 A 1.10122 1.1014452 0 0 0 338.79576 501.47245 A 1.10122 1.1014452 0 0 0 337.87065 500.38535 L 336.83915 494.55831 A 0.89771879 0.89790237 0 0 0 337.01033 494.45792 z M 291.56308 495.41822 A 1.4404234 1.4407178 0 0 0 290.12242 496.85929 A 1.4404234 1.4407178 0 0 0 291.56308 498.29995 A 1.4404234 1.4407178 0 0 0 293.00334 496.85929 A 1.4404234 1.4407178 0 0 0 291.56308 495.41822 z M 321.02506 497.802 L 327.74482 498.68711 A 1.202981 1.203227 0 0 0 327.76202 498.74631 L 316.24552 503.59224 A 1.2485802 1.2488354 0 0 0 316.15113 503.47465 L 320.04876 498.20676 A 0.89771879 0.89790237 0 0 0 320.25954 498.23196 A 0.89771879 0.89790237 0 0 0 321.02506 497.802 z M 319.52921 497.89959 L 315.65358 503.13989 A 1.2485802 1.2488354 0 0 0 315.22642 503.06389 A 1.2485802 1.2488354 0 0 0 313.97774 504.31297 A 1.2485802 1.2488354 0 0 0 313.98814 504.47016 L 285.37127 512.23022 L 319.52921 497.89959 z M 329.93141 499.01988 L 336.61197 501.27126 A 1.10122 1.1014452 0 0 0 336.59317 501.47245 A 1.10122 1.1014452 0 0 0 336.98154 502.31117 L 325.08867 521.23136 A 3.874905 3.8756992 0 0 0 324.44554 520.97018 L 328.9539 499.58783 A 1.202981 1.203227 0 0 0 329.93141 499.01988 z M 328.08599 499.26186 A 1.202981 1.203227 0 0 0 328.36956 499.46064 L 323.86119 520.83859 A 3.874905 3.8756992 0 0 0 323.31244 520.7986 A 3.874905 3.8756992 0 0 0 322.07056 521.00298 L 315.81996 505.41127 A 1.2485802 1.2488354 0 0 0 316.4751 504.31297 A 1.2485802 1.2488354 0 0 0 316.4643 504.15059 L 328.08599 499.26186 z M 338.05943 502.51115 L 344.03046 512.72537 A 1.5724885 1.5728107 0 0 0 343.51651 513.88726 A 1.5724885 1.5728107 0 0 0 343.59611 514.38001 L 326.72932 522.85 A 3.874905 3.8756992 0 0 0 325.59943 521.54773 L 337.53148 502.56114 A 1.10122 1.1014452 0 0 0 337.69467 502.57394 A 1.10122 1.1014452 0 0 0 338.05943 502.51115 z M 401.26139 504.78053 A 0.89771879 0.89790237 0 0 0 400.36348 505.67844 A 0.89771879 0.89790237 0 0 0 401.26139 506.57636 A 0.89771879 0.89790237 0 0 0 402.15891 505.67844 A 0.89771879 0.89790237 0 0 0 401.26139 504.78053 z M 314.42129 505.26648 A 1.2485802 1.2488354 0 0 0 314.94604 505.52926 L 316.58709 517.32333 A 1.5724885 1.5728107 0 0 0 315.47119 518.48882 L 290.67596 518.40243 A 1.2649475 1.2652061 0 0 0 290.61997 518.22484 L 314.42129 505.26648 z M 312.99223 505.35927 L 290.2672 517.73289 A 1.2649475 1.2652061 0 0 0 289.44568 517.42892 A 1.2649475 1.2652061 0 0 0 288.71575 517.6617 L 282.44875 513.80087 A 0.99364036 0.99384356 0 0 0 282.46715 513.63888 L 312.99223 505.35927 z M 363.68738 506.49996 L 359.80376 510.03043 A 1.5724885 1.5728107 0 0 0 358.72506 509.60087 A 1.5724885 1.5728107 0 0 0 357.15281 511.17352 A 1.5724885 1.5728107 0 0 0 357.16041 511.3223 L 348.04688 513.04294 L 363.68738 506.49996 z M 364.27133 506.77874 L 362.30632 512.92175 A 0.89771879 0.89790237 0 0 0 361.80756 513.08294 L 360.13372 511.87265 A 1.5724885 1.5728107 0 0 0 360.29771 511.17352 A 1.5724885 1.5728107 0 0 0 360.15532 510.52158 L 364.27133 506.77874 z M 315.72637 506.79114 L 321.51982 521.23976 A 3.874905 3.8756992 0 0 0 320.6547 521.8561 L 318.34652 519.65551 A 1.5724885 1.5728107 0 0 0 318.5757 518.83959 A 1.5724885 1.5728107 0 0 0 317.18663 517.27853 L 315.72637 506.79114 z M 358.64587 510.07122 A 1.1033147 1.1035408 0 0 1 358.72506 510.07122 A 1.1033147 1.1035408 0 0 1 359.45419 510.3484 L 359.3022 510.48638 A 0.89771879 0.89790237 0 0 0 358.72506 510.2756 A 0.89771879 0.89790237 0 0 0 357.82754 511.17352 A 0.89771879 0.89790237 0 0 0 357.82834 511.19632 L 357.62516 511.23471 A 1.1033147 1.1035408 0 0 1 357.62276 511.17352 A 1.1033147 1.1035408 0 0 1 358.64587 510.07122 z M 359.78136 510.86195 A 1.1033147 1.1035408 0 0 1 359.82735 511.17352 A 1.1033147 1.1035408 0 0 1 359.74456 511.59148 L 359.57338 511.46749 A 0.89771879 0.89790237 0 0 0 359.62297 511.17352 A 0.89771879 0.89790237 0 0 0 359.60897 511.01873 L 359.78136 510.86195 z M 358.05072 511.76586 A 0.89771879 0.89790237 0 0 0 358.16271 511.87265 L 358.05792 512.04983 A 1.1033147 1.1035408 0 0 1 357.82555 511.80826 L 358.05072 511.76586 z M 267.65296 511.81906 A 0.85300511 0.85317993 0 0 0 266.79985 512.67217 A 0.85300511 0.85317993 0 0 0 267.65296 513.52529 A 0.85300511 0.85317993 0 0 0 268.50568 512.67217 A 0.85300511 0.85317993 0 0 0 267.65296 511.81906 z M 357.33199 511.90145 A 1.5724885 1.5728107 0 0 0 357.81755 512.457 L 356.91643 513.98085 A 1.5724885 1.5728107 0 0 0 356.35089 513.87486 A 1.5724885 1.5728107 0 0 0 354.84103 515.01075 L 346.94339 513.86126 L 357.33199 511.90145 z M 359.19621 511.93745 L 359.373 512.06503 A 1.1033147 1.1035408 0 0 1 358.72506 512.27581 A 1.1033147 1.1035408 0 0 1 358.62227 512.27021 L 358.74026 512.07103 A 0.89771879 0.89790237 0 0 0 359.19621 511.93745 z M 359.76776 512.35061 L 361.4584 513.57209 A 0.89771879 0.89790237 0 0 0 361.4264 513.74607 L 357.78435 514.80277 A 1.5724885 1.5728107 0 0 0 357.42398 514.29922 L 358.36629 512.70377 A 1.5724885 1.5728107 0 0 0 358.72506 512.74617 A 1.5724885 1.5728107 0 0 0 359.76776 512.35061 z M 345.00997 512.78496 A 1.1033147 1.1035408 0 0 1 345.08916 512.78496 A 1.1033147 1.1035408 0 0 1 345.98988 513.25332 L 345.79629 513.33411 A 0.89771879 0.89790237 0 0 0 345.08916 512.98934 A 0.89771879 0.89790237 0 0 0 344.89358 513.01134 L 344.78519 512.82576 A 1.1033147 1.1035408 0 0 1 345.00997 512.78496 z M 344.27484 513.14333 L 344.38443 513.33131 A 0.89771879 0.89790237 0 0 0 344.19165 513.88726 A 0.89771879 0.89790237 0 0 0 344.21085 514.07124 L 344.02366 514.16563 A 1.1033147 1.1035408 0 0 1 343.98687 513.88726 A 1.1033147 1.1035408 0 0 1 344.27484 513.14333 z M 361.57959 514.32562 A 0.89771879 0.89790237 0 0 0 362.32072 514.71718 A 0.89771879 0.89790237 0 0 0 362.72908 514.61879 L 373.50325 525.21058 L 356.2389 521.16256 A 2.0041918 2.0046025 0 0 0 356.2521 520.94258 A 2.0041918 2.0046025 0 0 0 355.21979 519.19075 L 356.08931 516.99736 A 1.5724885 1.5728107 0 0 0 356.35089 517.02016 A 1.5724885 1.5728107 0 0 0 357.92354 515.44751 A 1.5724885 1.5728107 0 0 0 357.92154 515.38792 L 361.57959 514.32562 z M 282.15798 514.32682 L 288.31739 518.12285 A 1.2649475 1.2652061 0 0 0 288.1806 518.694 A 1.2649475 1.2652061 0 0 0 288.203 518.92958 L 278.99108 523.05678 A 1.5724885 1.5728107 0 0 0 278.50273 522.58123 L 281.40565 514.59719 A 0.99364036 0.99384356 0 0 0 281.47444 514.59999 A 0.99364036 0.99384356 0 0 0 282.15798 514.32682 z M 346.03707 514.33602 L 346.09107 514.34402 A 1.1033147 1.1035408 0 0 1 346.07947 514.36921 L 346.03707 514.33602 z M 356.27129 514.34521 A 1.1033147 1.1035408 0 0 1 356.35089 514.34521 A 1.1033147 1.1035408 0 0 1 356.67206 514.39401 L 356.56487 514.57559 A 0.89771879 0.89790237 0 0 0 356.35089 514.5496 A 0.89771879 0.89790237 0 0 0 355.51937 515.10914 L 355.31219 515.07914 A 1.1033147 1.1035408 0 0 1 356.27129 514.34521 z M 346.57062 514.41361 L 354.78744 515.60749 A 1.5724885 1.5728107 0 0 0 355.52776 516.78658 L 354.65705 518.98117 A 2.0041918 2.0046025 0 0 0 354.24789 518.93838 A 2.0041918 2.0046025 0 0 0 352.74563 519.61631 L 346.45543 514.66518 A 1.5724885 1.5728107 0 0 0 346.57062 514.41361 z M 344.52522 514.58519 A 0.89771879 0.89790237 0 0 0 345.08916 514.78517 A 0.89771879 0.89790237 0 0 0 345.50552 514.68198 L 345.67831 514.81797 A 1.1033147 1.1035408 0 0 1 345.08916 514.98955 A 1.1033147 1.1035408 0 0 1 344.32884 514.68398 L 344.52522 514.58519 z M 379.03512 514.71798 L 389.10616 520.04747 A 0.89771879 0.89790237 0 0 0 389.10216 520.12866 A 0.89771879 0.89790237 0 0 0 389.10536 520.20186 L 375.13029 525.09019 A 0.89771879 0.89790237 0 0 0 374.97591 524.9542 L 378.36158 514.91436 A 0.89771879 0.89790237 0 0 0 378.46677 514.92076 A 0.89771879 0.89790237 0 0 0 379.03512 514.71798 z M 357.17601 514.71878 A 1.1033147 1.1035408 0 0 1 357.32599 514.93596 L 357.12561 514.99395 A 0.89771879 0.89790237 0 0 0 357.06602 514.90476 L 357.17601 514.71878 z M 343.89048 514.90396 A 1.5724885 1.5728107 0 0 0 345.08916 515.45991 A 1.5724885 1.5728107 0 0 0 346.06347 515.12114 L 352.41966 520.12346 A 2.0041918 2.0046025 0 0 0 352.24368 520.93339 L 327.10648 523.8895 A 3.874905 3.8756992 0 0 0 326.97129 523.39995 L 343.89048 514.90396 z M 357.44998 515.5247 A 1.1033147 1.1035408 0 0 1 356.35089 516.5498 A 1.1033147 1.1035408 0 0 1 356.26849 516.5462 L 356.34809 516.34542 A 0.89771879 0.89790237 0 0 0 356.35089 516.34542 A 0.89771879 0.89790237 0 0 0 357.2372 515.5863 L 357.44998 515.5247 z M 355.27379 515.67829 L 355.49257 515.70988 A 0.89771879 0.89790237 0 0 0 355.78334 516.14264 L 355.70495 516.34022 A 1.1033147 1.1035408 0 0 1 355.27379 515.67829 z M 317.25462 517.76689 A 1.1033147 1.1035408 0 0 1 318.10534 518.83959 A 1.1033147 1.1035408 0 0 1 317.99415 519.31954 L 317.83737 519.16995 A 0.89771879 0.89790237 0 0 0 317.90096 518.83959 A 0.89771879 0.89790237 0 0 0 317.28542 517.98727 L 317.25462 517.76689 z M 316.65228 517.79249 L 316.68148 518.00167 A 0.89771879 0.89790237 0 0 0 316.17593 518.49162 L 315.95715 518.49082 A 1.1033147 1.1035408 0 0 1 316.65228 517.79249 z M 425.14471 518.91158 A 0.89771879 0.89790237 0 0 0 424.2468 519.80949 A 0.89771879 0.89790237 0 0 0 425.14471 520.70741 A 0.89771879 0.89790237 0 0 0 426.04222 519.80949 A 0.89771879 0.89790237 0 0 0 425.14471 518.91158 z M 290.67276 519.00237 L 315.4512 519.08836 A 1.5724885 1.5728107 0 0 0 315.99354 520.04427 L 311.46398 529.62775 A 1.5724885 1.5728107 0 0 0 310.96522 529.54616 A 1.5724885 1.5728107 0 0 0 309.83573 530.02572 L 290.66436 519.03317 A 1.2649475 1.2652061 0 0 0 290.67276 519.00237 z M 315.93035 519.09036 L 316.14153 519.09076 A 0.89771879 0.89790237 0 0 0 316.29951 519.39673 L 316.20472 519.59751 A 1.1033147 1.1035408 0 0 1 315.93035 519.09036 z M 288.45138 519.47552 A 1.2649475 1.2652061 0 0 0 288.46737 519.49512 L 282.52794 527.0552 A 0.99364036 0.99384356 0 0 0 282.18678 526.99441 A 0.99364036 0.99384356 0 0 0 281.69082 527.12719 L 279.00268 524.76022 A 1.5724885 1.5728107 0 0 0 279.24786 523.9179 A 1.5724885 1.5728107 0 0 0 279.21826 523.61193 L 288.45138 519.47552 z M 354.1467 519.53752 A 1.4062134 1.4065015 0 0 1 354.24789 519.53752 A 1.4062134 1.4065015 0 0 1 354.43067 519.55072 L 354.36708 519.7119 A 1.2369014 1.2371542 0 0 0 354.24789 519.7055 A 1.2369014 1.2371542 0 0 0 353.35037 520.09227 L 353.21679 519.98708 A 1.4062134 1.4065015 0 0 1 354.1467 519.53752 z M 290.36999 519.55752 L 309.50856 530.52727 A 1.5724885 1.5728107 0 0 0 309.39297 531.11881 A 1.5724885 1.5728107 0 0 0 309.42897 531.45118 L 300.7874 535.17602 A 1.1632073 1.1634451 0 0 0 299.92708 534.79606 A 1.1632073 1.1634451 0 0 0 299.60231 534.84286 L 290.35599 519.57272 A 1.2649475 1.2652061 0 0 0 290.36999 519.55752 z M 317.44101 519.62311 L 317.59419 519.7691 A 1.1033147 1.1035408 0 0 1 317.00305 519.94188 A 1.1033147 1.1035408 0 0 1 316.72307 519.90468 L 316.81187 519.7167 A 0.89771879 0.89790237 0 0 0 317.00305 519.7375 A 0.89771879 0.89790237 0 0 0 317.44101 519.62311 z M 354.99582 519.7547 A 1.4062134 1.4065015 0 0 1 355.65255 520.94258 A 1.4062134 1.4065015 0 0 1 355.64935 521.02418 L 355.48377 520.98538 A 1.2369014 1.2371542 0 0 0 355.48457 520.94258 A 1.2369014 1.2371542 0 0 0 354.93302 519.91268 L 354.99582 519.7547 z M 288.94733 519.85629 A 1.2649475 1.2652061 0 0 0 289.44568 519.95908 A 1.2649475 1.2652061 0 0 0 289.84804 519.89348 L 299.08996 535.15243 A 1.1632073 1.1634451 0 0 0 299.01677 535.23602 L 283.14788 528.24029 A 0.99364036 0.99384356 0 0 0 283.18068 527.98831 A 0.99364036 0.99384356 0 0 0 283.0027 527.42157 L 288.94733 519.85629 z M 317.94216 520.10066 L 320.25034 522.30005 A 3.874905 3.8756992 0 0 0 319.43721 524.67343 A 3.874905 3.8756992 0 0 0 319.74359 526.18088 L 312.17431 530.11411 A 1.5724885 1.5728107 0 0 0 311.98913 529.92573 L 316.51989 520.33544 A 1.5724885 1.5728107 0 0 0 317.00305 520.41224 A 1.5724885 1.5728107 0 0 0 317.94216 520.10066 z M 352.91041 520.50983 L 353.0528 520.62221 A 1.2369014 1.2371542 0 0 0 353.0156 520.84259 L 352.84562 520.86259 A 1.4062134 1.4065015 0 0 1 352.91041 520.50983 z M 389.35293 520.7506 A 0.89771879 0.89790237 0 0 0 389.99967 521.02658 A 0.89771879 0.89790237 0 0 0 390.11446 521.01898 L 401.05421 543.69081 L 399.76074 543.69081 L 399.76074 544.51833 L 375.31987 525.9625 A 0.89771879 0.89790237 0 0 0 375.36187 525.69133 A 0.89771879 0.89790237 0 0 0 375.36027 525.64374 L 389.35293 520.7506 z M 353.1132 521.43494 A 1.2369014 1.2371542 0 0 0 353.86392 522.11807 L 353.83433 522.28446 A 1.4062134 1.4065015 0 0 1 352.94081 521.45534 L 353.1132 521.43494 z M 352.33167 521.52693 A 2.0041918 2.0046025 0 0 0 353.72874 522.8788 L 353.18279 525.95331 A 1.1690607 1.1692997 0 0 0 352.18848 526.74843 L 327.18767 524.67183 A 3.874905 3.8756992 0 0 0 327.18127 524.48425 L 352.33167 521.52693 z M 355.31778 521.56293 L 355.48657 521.60252 A 1.4062134 1.4065015 0 0 1 354.43347 522.33405 L 354.46427 522.16047 A 1.2369014 1.2371542 0 0 0 355.31778 521.56293 z M 391.10956 521.69731 L 398.62525 529.1602 A 0.89771879 0.89790237 0 0 0 398.53205 529.55856 A 0.89771879 0.89790237 0 0 0 399.40437 530.45568 L 402.47288 545.24826 L 401.72735 543.70321 L 401.72735 543.69081 L 401.72135 543.69081 L 391.10956 521.69731 z M 356.08451 521.74251 L 372.35016 525.55574 L 354.43827 526.85842 A 1.1690607 1.1692997 0 0 0 353.77513 526.0485 L 354.32508 522.94439 A 2.0041918 2.0046025 0 0 0 356.08451 521.74251 z M 323.11686 521.95729 A 2.7187735 2.7193304 0 0 1 323.31244 521.95729 A 2.7187735 2.7193304 0 0 1 323.62081 521.97729 L 323.51123 522.49684 A 2.1866846 2.1871319 0 0 0 323.31244 522.48644 A 2.1866846 2.1871319 0 0 0 322.7009 522.57483 L 322.50092 522.07568 A 2.7187735 2.7193304 0 0 1 323.11686 521.95729 z M 324.20476 522.11047 A 2.7187735 2.7193304 0 0 1 324.46833 522.21846 L 324.18516 522.66922 A 2.1866846 2.1871319 0 0 0 324.09477 522.63242 L 324.20476 522.11047 z M 321.95217 522.31845 L 322.15335 522.8204 A 2.1866846 2.1871319 0 0 0 321.87858 523.02279 L 321.49222 522.65442 A 2.7187735 2.7193304 0 0 1 321.95217 522.31845 z M 324.97988 522.53363 A 2.7187735 2.7193304 0 0 1 325.69262 523.37075 L 325.22106 523.60753 A 2.1866846 2.1871319 0 0 0 324.69751 522.98279 L 324.97988 522.53363 z M 277.59601 522.81561 A 1.1033147 1.1035408 0 0 1 277.67561 522.81561 A 1.1033147 1.1035408 0 0 1 277.778 522.8208 L 277.7396 522.92599 A 0.99364036 0.99384356 0 0 0 277.67561 522.92399 A 0.99364036 0.99384356 0 0 0 276.6817 523.9179 A 0.99364036 0.99384356 0 0 0 277.67561 524.91141 A 0.99364036 0.99384356 0 0 0 278.13556 524.79862 L 278.22115 524.87381 A 1.1033147 1.1035408 0 0 1 277.67561 525.02019 A 1.1033147 1.1035408 0 0 1 276.57331 523.9179 A 1.1033147 1.1035408 0 0 1 277.59601 522.81561 z M 278.33674 523.03718 A 1.1033147 1.1035408 0 0 1 278.55312 523.25276 L 278.45193 523.29836 A 0.99364036 0.99384356 0 0 0 278.29795 523.14357 L 278.33674 523.03718 z M 321.09386 523.10358 L 321.48382 523.47514 A 2.1866846 2.1871319 0 0 0 321.12585 524.67343 A 2.1866846 2.1871319 0 0 0 321.24984 525.39816 L 320.77829 525.64334 A 2.7187735 2.7193304 0 0 1 320.5963 524.67343 A 2.7187735 2.7193304 0 0 1 321.09386 523.10358 z M 278.7719 523.81191 A 1.1033147 1.1035408 0 0 1 278.7779 523.9179 A 1.1033147 1.1035408 0 0 1 278.64271 524.44345 L 278.55992 524.37066 A 0.99364036 0.99384356 0 0 0 278.66911 523.9179 A 0.99364036 0.99384356 0 0 0 278.66711 523.85871 L 278.7719 523.81191 z M 325.92139 523.9271 A 2.7187735 2.7193304 0 0 1 325.94899 524.02549 L 325.65702 524.05989 L 325.92139 523.9271 z M 327.13928 525.27017 L 352.15209 527.34797 A 1.1690607 1.1692997 0 0 0 353.29798 528.28548 A 1.1690607 1.1692997 0 0 0 354.1435 527.92392 L 383.00794 541.27144 L 327.09888 525.48975 A 3.874905 3.8756992 0 0 0 327.13928 525.27017 z M 325.29025 525.60374 L 325.80421 525.74892 A 2.7187735 2.7193304 0 0 1 325.71061 525.94371 L 325.26786 525.65173 A 2.1866846 2.1871319 0 0 0 325.29025 525.60374 z M 321.52541 525.93211 A 2.1866846 2.1871319 0 0 0 323.31244 526.86082 A 2.1866846 2.1871319 0 0 0 323.61602 526.83922 L 323.70361 527.35997 A 2.7187735 2.7193304 0 0 1 323.31244 527.38997 A 2.7187735 2.7193304 0 0 1 321.05386 526.17688 L 321.52541 525.93211 z M 373.64803 526.06369 A 0.89771879 0.89790237 0 0 0 374.46435 526.58924 A 0.89771879 0.89790237 0 0 0 374.71793 526.55285 L 385.56649 541.79299 L 354.55066 527.45116 L 373.64803 526.06369 z M 326.9265 526.06569 L 385.64289 542.63971 A 1.0672858 1.067504 0 0 0 385.74768 543.08047 L 373.34486 555.48328 A 1.5082847 1.5085932 0 0 0 372.36136 555.11812 A 1.5082847 1.5085932 0 0 0 371.07948 555.83285 L 326.68252 526.58405 A 3.874905 3.8756992 0 0 0 326.9265 526.06569 z M 324.75431 526.31807 L 325.13507 526.68324 A 2.7187735 2.7193304 0 0 1 324.51913 527.1052 L 324.33875 526.60364 A 2.1866846 2.1871319 0 0 0 324.75431 526.31807 z M 320.02036 526.71363 A 3.874905 3.8756992 0 0 0 323.31244 528.54866 A 3.874905 3.8756992 0 0 0 323.89519 528.50266 L 327.52844 550.15339 A 1.5724885 1.5728107 0 0 0 327.42445 550.20099 L 312.2479 532.02752 A 1.5724885 1.5728107 0 0 0 312.53787 531.11881 A 1.5724885 1.5728107 0 0 0 312.46228 530.63886 L 320.02036 526.71363 z M 375.86702 527.13199 L 399.76074 545.27106 L 399.76074 545.65742 L 400.26989 545.65742 L 401.69335 546.73812 L 387.77388 542.69291 A 1.0672858 1.067504 0 0 0 387.77668 542.61771 A 1.0672858 1.067504 0 0 0 386.70958 541.55021 A 1.0672858 1.067504 0 0 0 386.21563 541.6718 L 375.86702 527.13199 z M 326.57133 527.22798 L 331.17169 530.25889 L 329.73023 530.25889 L 326.57133 527.22798 z M 325.97379 527.48756 L 329.48345 530.85484 L 329.48345 532.22591 L 330.91292 532.22591 L 348.24246 548.85072 A 1.0673205 1.0675387 0 0 0 348.12647 549.33387 A 1.0673205 1.0675387 0 0 0 348.17647 549.65624 L 336.2804 556.3284 A 1.5724885 1.5728107 0 0 0 335.04892 555.73246 A 1.5724885 1.5728107 0 0 0 334.82214 555.74966 L 324.91309 528.20029 A 3.874905 3.8756992 0 0 0 325.97379 527.48756 z M 282.82191 528.75184 L 298.41362 535.62558 L 279.49623 533.93734 A 0.99364036 0.99384356 0 0 0 279.24586 533.54658 L 281.98719 528.96182 A 0.99364036 0.99384356 0 0 0 282.18678 528.98182 A 0.99364036 0.99384356 0 0 0 282.82191 528.75184 z M 324.60832 529.1254 L 334.2554 555.94764 A 1.5724885 1.5728107 0 0 0 334.06862 556.07643 L 329.51665 552.34558 A 1.5724885 1.5728107 0 0 0 329.70183 551.60645 A 1.5724885 1.5728107 0 0 0 328.12918 550.0342 A 1.5724885 1.5728107 0 0 0 328.11718 550.0346 L 324.60832 529.1254 z M 310.88603 530.01652 A 1.1033147 1.1035408 0 0 1 310.96522 530.01652 A 1.1033147 1.1035408 0 0 1 311.2608 530.05771 L 311.172 530.2453 A 0.89771879 0.89790237 0 0 0 310.96522 530.2209 A 0.89771879 0.89790237 0 0 0 310.45447 530.38088 L 310.26049 530.26969 A 1.1033147 1.1035408 0 0 1 310.88603 530.01652 z M 401.32419 530.02932 L 412.91388 531.47758 L 409.87297 532.99823 A 1.0672858 1.067504 0 0 0 409.09704 532.66306 A 1.0672858 1.067504 0 0 0 408.19873 533.15502 L 401.32419 530.02932 z M 400.1143 530.13851 L 408.02955 533.73616 A 1.0672858 1.067504 0 0 0 408.39911 534.53808 L 403.50918 545.9214 A 1.5724885 1.5728107 0 0 0 403.22881 545.8958 A 1.5724885 1.5728107 0 0 0 403.22081 545.8962 L 399.97752 530.26929 A 0.89771879 0.89790237 0 0 0 400.1143 530.13851 z M 331.45047 530.44248 L 369.7872 555.70006 L 350.25987 549.37747 A 1.0673205 1.0675387 0 0 0 350.26107 549.33387 A 1.0673205 1.0675387 0 0 0 349.19357 548.26637 A 1.0673205 1.0675387 0 0 0 348.65322 548.41396 L 331.45047 531.90914 L 331.45047 530.44248 z M 309.92132 530.76405 L 310.10371 530.86844 A 0.89771879 0.89790237 0 0 0 310.06771 531.11881 A 0.89771879 0.89790237 0 0 0 310.06971 531.17521 L 309.87333 531.26 A 1.1033147 1.1035408 0 0 1 309.86293 531.11881 A 1.1033147 1.1035408 0 0 1 309.92132 530.76405 z M 312.03672 530.86004 A 1.1033147 1.1035408 0 0 1 312.06752 531.11881 A 1.1033147 1.1035408 0 0 1 311.93073 531.64796 L 311.78795 531.47718 A 0.89771879 0.89790237 0 0 0 311.86314 531.11881 A 0.89771879 0.89790237 0 0 0 311.84834 530.95803 L 312.03672 530.86004 z M 310.30609 531.72715 A 0.89771879 0.89790237 0 0 0 310.96522 532.01673 A 0.89771879 0.89790237 0 0 0 311.10441 532.00553 L 311.18 532.19911 A 1.1033147 1.1035408 0 0 1 310.96522 532.22111 A 1.1033147 1.1035408 0 0 1 310.11011 531.81195 L 310.30609 531.72715 z M 413.35424 531.92913 A 0.89771879 0.89790237 0 0 0 414.01537 532.22031 A 0.89771879 0.89790237 0 0 0 414.17336 532.20591 L 420.15479 543.25805 L 410.02656 534.25491 A 1.0672858 1.067504 0 0 0 410.16414 533.73056 A 1.0672858 1.067504 0 0 0 410.14534 533.53218 L 413.35424 531.92913 z M 309.66575 532.00313 A 1.5724885 1.5728107 0 0 0 310.96522 532.69146 A 1.5724885 1.5728107 0 0 0 311.35319 532.64227 L 322.37373 560.87077 A 2.19606 2.19651 0 0 0 322.17655 561.00156 L 300.92578 536.55509 A 1.1632073 1.1634451 0 0 0 301.09017 535.95955 A 1.1632073 1.1634451 0 0 0 301.06337 535.71117 L 309.66575 532.00313 z M 312.01152 532.67986 L 326.9481 550.56815 A 1.5724885 1.5728107 0 0 0 326.55653 551.60645 A 1.5724885 1.5728107 0 0 0 327.24567 552.90713 L 323.88879 560.60879 A 2.19606 2.19651 0 0 0 323.48203 560.5704 A 2.19606 2.19651 0 0 0 322.92728 560.64199 L 312.01152 532.67986 z M 279.51063 534.54128 L 298.80479 536.26432 A 1.1632073 1.1634451 0 0 0 299.92708 537.12264 A 1.1632073 1.1634451 0 0 0 299.97947 537.12104 L 312.03872 572.22728 L 279.38744 534.80926 A 0.99364036 0.99384356 0 0 0 279.51063 534.54128 z M 409.5958 534.67367 L 420.16879 544.07317 A 1.0672858 1.067504 0 0 0 420.058 544.37674 L 404.70186 546.9209 A 1.5724885 1.5728107 0 0 0 404.06832 546.13938 L 408.94586 534.78686 A 1.0672858 1.067504 0 0 0 409.09704 534.79806 A 1.0672858 1.067504 0 0 0 409.5958 534.67367 z M 300.60941 537.10624 L 321.74619 561.42192 A 2.19606 2.19651 0 0 0 321.28584 562.76659 A 2.19606 2.19651 0 0 0 321.7294 564.08886 L 313.343 572.85682 A 0.89771879 0.89790237 0 0 0 312.93264 572.75683 A 0.89771879 0.89790237 0 0 0 312.85704 572.76043 L 300.60941 537.10624 z M 387.5647 543.25645 L 401.66056 547.35406 A 1.5724885 1.5728107 0 0 0 401.65616 547.46845 A 1.5724885 1.5728107 0 0 0 401.88493 548.28397 L 395.63873 554.2394 A 1.1351265 1.1353586 0 0 0 394.98599 554.03302 A 1.1351265 1.1353586 0 0 0 394.60683 554.09822 L 387.47511 543.36164 A 1.0672858 1.067504 0 0 0 387.5647 543.25645 z M 386.14964 543.52603 A 1.0672858 1.067504 0 0 0 386.70958 543.68521 A 1.0672858 1.067504 0 0 0 386.95076 543.65761 L 394.11368 554.44258 A 1.1351265 1.1353586 0 0 0 393.8601 555.02493 L 373.83082 556.29121 A 1.5082847 1.5085932 0 0 0 373.71523 555.96204 L 386.14964 543.52603 z M 420.11199 544.97589 A 1.0672858 1.067504 0 0 0 420.12439 545.00588 L 396.51945 566.40104 L 402.97403 549.0195 A 1.5724885 1.5728107 0 0 0 403.22881 549.0411 A 1.5724885 1.5728107 0 0 0 404.79986 547.51244 L 420.11199 544.97589 z M 401.72735 545.08548 L 402.2741 546.21857 A 1.5724885 1.5728107 0 0 0 402.14571 546.32896 L 401.26139 545.65742 L 401.72735 545.65742 L 401.72735 545.08548 z M 403.87954 546.57933 A 1.1033147 1.1035408 0 0 1 404.22511 546.99969 L 404.01433 547.03449 A 0.89771879 0.89790237 0 0 0 403.79595 546.77332 L 403.87954 546.57933 z M 402.12731 547.48965 L 402.33489 547.55004 A 0.89771879 0.89790237 0 0 0 402.39409 547.79842 L 402.2373 547.948 A 1.1033147 1.1035408 0 0 1 402.12731 547.48965 z M 404.3231 547.59164 A 1.1033147 1.1035408 0 0 1 403.22881 548.57074 A 1.1033147 1.1035408 0 0 1 403.14201 548.56714 L 403.21681 548.36596 A 0.89771879 0.89790237 0 0 0 403.22881 548.36636 A 0.89771879 0.89790237 0 0 0 404.11192 547.62643 L 404.3231 547.59164 z M 402.2881 548.72793 A 1.5724885 1.5728107 0 0 0 402.41168 548.81112 L 395.9903 566.10347 L 395.37236 556.23561 A 1.1351265 1.1353586 0 0 0 396.12108 555.16811 A 1.1351265 1.1353586 0 0 0 396.02149 554.70256 L 402.2881 548.72793 z M 350.60344 550.119 L 370.8547 556.67637 A 1.5082847 1.5085932 0 0 0 372.36136 558.13543 A 1.5082847 1.5085932 0 0 0 372.52534 558.12623 L 377.51326 570.55464 L 358.42029 556.12682 A 1.5724885 1.5728107 0 0 0 358.53388 555.54128 A 1.5724885 1.5728107 0 0 0 356.96123 553.96863 A 1.5724885 1.5728107 0 0 0 356.01172 554.2882 L 350.60344 550.119 z M 348.51244 550.15499 A 1.0673205 1.0675387 0 0 0 349.19357 550.40137 A 1.0673205 1.0675387 0 0 0 349.76992 550.23258 L 355.61056 554.73655 A 1.5724885 1.5728107 0 0 0 355.39938 555.36489 L 336.57598 556.93234 A 1.5724885 1.5728107 0 0 0 336.55598 556.85875 L 348.51244 550.15499 z M 328.19638 550.50696 A 1.1033147 1.1035408 0 0 1 329.23148 551.60645 A 1.1033147 1.1035408 0 0 1 329.14229 552.03881 L 328.9763 551.90283 A 0.89771879 0.89790237 0 0 0 329.0267 551.60645 A 0.89771879 0.89790237 0 0 0 328.23117 550.71494 L 328.19638 550.50696 z M 327.25447 550.93492 L 327.39005 551.0977 A 0.89771879 0.89790237 0 0 0 327.23127 551.60645 A 0.89771879 0.89790237 0 0 0 327.52404 552.26919 L 327.43885 552.46437 A 1.1033147 1.1035408 0 0 1 327.02689 551.60645 A 1.1033147 1.1035408 0 0 1 327.25447 550.93492 z M 328.60074 552.37078 L 328.76512 552.50557 A 1.1033147 1.1035408 0 0 1 328.12918 552.70875 A 1.1033147 1.1035408 0 0 1 327.9924 552.69955 L 328.07799 552.50317 A 0.89771879 0.89790237 0 0 0 328.12918 552.50437 A 0.89771879 0.89790237 0 0 0 328.60074 552.37078 z M 329.13869 552.81154 L 333.67985 556.53198 A 1.5724885 1.5728107 0 0 0 333.47627 557.30511 A 1.5724885 1.5728107 0 0 0 333.51947 557.66667 L 325.33625 561.5919 A 2.19606 2.19651 0 0 0 324.46033 560.80077 L 327.79882 553.14351 A 1.5724885 1.5728107 0 0 0 328.12918 553.1791 A 1.5724885 1.5728107 0 0 0 329.13869 552.81154 z M 356.88204 554.43898 A 1.1033147 1.1035408 0 0 1 356.96123 554.43898 A 1.1033147 1.1035408 0 0 1 358.06352 555.54128 A 1.1033147 1.1035408 0 0 1 358.02473 555.82765 L 357.84594 555.69246 A 0.89771879 0.89790237 0 0 0 357.85914 555.54128 A 0.89771879 0.89790237 0 0 0 356.96123 554.64336 A 0.89771879 0.89790237 0 0 0 356.58206 554.72815 L 356.40248 554.58977 A 1.1033147 1.1035408 0 0 1 356.88204 554.43898 z M 419.23927 554.64336 A 0.89771879 0.89790237 0 0 0 418.34136 555.54128 A 0.89771879 0.89790237 0 0 0 419.23927 556.43919 A 0.89771879 0.89790237 0 0 0 420.13679 555.54128 A 0.89771879 0.89790237 0 0 0 419.23927 554.64336 z M 355.98612 555.02653 L 356.15171 555.15411 A 0.89771879 0.89790237 0 0 0 356.09451 555.3069 L 355.88093 555.3249 A 1.1033147 1.1035408 0 0 1 355.98612 555.02653 z M 393.94489 555.61927 A 1.1351265 1.1353586 0 0 0 394.00289 555.73646 L 378.99112 570.66023 L 378.76434 570.80662 A 0.89771879 0.89790237 0 0 0 378.26319 570.65383 A 0.89771879 0.89790237 0 0 0 378.2012 570.65623 L 373.09929 557.94225 A 1.5082847 1.5085932 0 0 0 373.84561 556.89275 L 393.94489 555.61927 z M 356.2177 556.04443 A 0.89771879 0.89790237 0 0 0 356.96123 556.43919 A 0.89771879 0.89790237 0 0 0 357.54837 556.22041 L 357.71356 556.3452 A 1.1033147 1.1035408 0 0 1 356.96123 556.64357 A 1.1033147 1.1035408 0 0 1 356.01252 556.10082 L 356.2177 556.04443 z M 353.74434 556.10562 L 335.46288 561.14794 A 0.89771879 0.89790237 0 0 0 335.04172 560.79997 L 335.20971 558.86896 A 1.5724885 1.5728107 0 0 0 336.60397 557.53549 L 353.74434 556.10562 z M 394.42885 556.15722 A 1.1351265 1.1353586 0 0 0 394.77561 556.28401 L 395.42595 566.68221 A 0.89771879 0.89790237 0 0 0 394.97839 567.21016 L 383.62508 567.71891 A 0.30003001 0.30003001 0 0 0 383.47669 567.76571 L 381.41849 569.09398 L 394.42885 556.15722 z M 334.98493 556.20281 A 1.1033147 1.1035408 0 0 1 335.04892 556.20281 A 1.1033147 1.1035408 0 0 1 335.86204 556.56318 L 335.67886 556.66597 A 0.89771879 0.89790237 0 0 0 335.05852 556.40759 L 334.98493 556.20281 z M 355.54776 556.22921 A 1.5724885 1.5728107 0 0 0 356.96123 557.11393 A 1.5724885 1.5728107 0 0 0 358.09312 556.63197 L 376.92172 570.86061 L 336.10242 561.5939 L 355.54776 556.22921 z M 334.05102 556.83635 L 334.2158 556.97114 A 0.89771879 0.89790237 0 0 0 334.15101 557.30511 A 0.89771879 0.89790237 0 0 0 334.15301 557.3627 L 333.95783 557.45629 A 1.1033147 1.1035408 0 0 1 333.94663 557.30511 A 1.1033147 1.1035408 0 0 1 334.05102 556.83635 z M 336.11682 557.57588 A 1.1033147 1.1035408 0 0 1 335.2517 558.38781 L 335.2701 558.17503 A 0.89771879 0.89790237 0 0 0 335.89884 557.59428 L 336.11682 557.57588 z M 334.39019 557.91465 A 0.89771879 0.89790237 0 0 0 334.67336 558.12023 L 334.65456 558.33341 A 1.1033147 1.1035408 0 0 1 334.1994 558.00624 L 334.39019 557.91465 z M 333.76664 558.21382 A 1.5724885 1.5728107 0 0 0 334.61256 558.81536 L 334.44178 560.77598 A 0.89771879 0.89790237 0 0 0 334.00662 561.07275 L 325.62262 562.28143 A 2.19606 2.19651 0 0 0 325.58503 562.13745 L 333.76664 558.21382 z M 323.37124 561.22713 A 1.5408351 1.5411507 0 0 1 323.48203 561.22713 A 1.5408351 1.5411507 0 0 1 323.61641 561.23353 L 323.53122 561.42911 A 1.3385929 1.3388667 0 0 0 323.48203 561.42751 A 1.3385929 1.3388667 0 0 0 323.24245 561.44951 L 323.16726 561.25673 A 1.5408351 1.5411507 0 0 1 323.37124 561.22713 z M 324.19716 561.40472 A 1.5408351 1.5411507 0 0 1 324.73791 561.87867 L 324.55473 561.96666 A 1.3385929 1.3388667 0 0 0 324.11677 561.5887 L 324.19716 561.40472 z M 322.61611 561.49191 L 322.62691 561.51951 L 322.60771 561.49751 A 1.5408351 1.5411507 0 0 1 322.61611 561.49191 z M 333.81344 561.70869 A 0.89771879 0.89790237 0 0 0 334.2586 562.41062 L 333.50907 568.8916 A 0.89771879 0.89790237 0 0 0 333.02832 569.06238 L 325.43744 563.76369 A 2.19606 2.19651 0 0 0 325.67422 562.88138 L 333.81344 561.70869 z M 322.18855 561.93067 L 322.32694 562.08985 A 1.3385929 1.3388667 0 0 0 322.14336 562.76659 A 1.3385929 1.3388667 0 0 0 322.33494 563.45572 L 322.19255 563.60451 A 1.5408351 1.5411507 0 0 1 321.94257 562.76659 A 1.5408351 1.5411507 0 0 1 322.18855 561.93067 z M 325.00588 562.97737 A 1.5408351 1.5411507 0 0 1 324.89149 563.38253 L 324.72391 563.26574 A 1.3385929 1.3388667 0 0 0 324.7987 563.00736 L 325.00588 562.97737 z M 324.38074 563.75849 L 324.54753 563.87528 A 1.5408351 1.5411507 0 0 1 323.48203 564.30564 A 1.5408351 1.5411507 0 0 1 322.61211 564.03447 L 322.7521 563.88848 A 1.3385929 1.3388667 0 0 0 323.48203 564.10526 A 1.3385929 1.3388667 0 0 0 324.38074 563.75849 z M 325.09387 564.25644 L 332.68875 569.55714 A 0.89771879 0.89790237 0 0 0 332.66635 569.66993 L 313.88575 573.15679 L 322.15295 564.51442 A 2.19606 2.19651 0 0 0 323.48203 564.96278 A 2.19606 2.19651 0 0 0 325.09387 564.25644 z M 403.70356 565.22675 A 0.89771879 0.89790237 0 0 0 402.80605 566.12467 A 0.89771879 0.89790237 0 0 0 403.70356 567.02258 A 0.89771879 0.89790237 0 0 0 404.60147 566.12467 A 0.89771879 0.89790237 0 0 0 403.70356 565.22675 z M 392.71341 572.15009 A 1.5724885 1.5728107 0 0 0 391.14076 573.72274 A 1.5724885 1.5728107 0 0 0 392.71341 575.29539 A 1.5724885 1.5728107 0 0 0 394.28606 573.72274 A 1.5724885 1.5728107 0 0 0 392.71341 572.15009 z M 392.63422 572.62044 A 1.1033147 1.1035408 0 0 1 392.71341 572.62044 A 1.1033147 1.1035408 0 0 1 393.8157 573.72274 A 1.1033147 1.1035408 0 0 1 392.71341 574.82503 A 1.1033147 1.1035408 0 0 1 391.61112 573.72274 A 1.1033147 1.1035408 0 0 1 392.63422 572.62044 z M 392.71341 572.82483 A 0.89771879 0.89790237 0 0 0 391.8159 573.72274 A 0.89771879 0.89790237 0 0 0 392.71341 574.62065 A 0.89771879 0.89790237 0 0 0 393.61132 573.72274 A 0.89771879 0.89790237 0 0 0 392.71341 572.82483 z M 393.18816 584.22214 A 0.89771879 0.89790237 0 0 0 392.29065 585.12005 A 0.89771879 0.89790237 0 0 0 393.18816 586.01796 A 0.89771879 0.89790237 0 0 0 394.08608 585.12005 A 0.89771879 0.89790237 0 0 0 393.18816 584.22214 z M 320.19154 584.69689 A 0.89771879 0.89790237 0 0 0 319.29403 585.5948 A 0.89771879 0.89790237 0 0 0 320.19154 586.49272 A 0.89771879 0.89790237 0 0 0 321.08946 585.5948 A 0.89771879 0.89790237 0 0 0 320.19154 584.69689 z M 365.67879 588.29215 A 2.3562443 2.3567264 0 0 0 363.32262 590.64872 A 2.3562443 2.3567264 0 0 0 365.67879 593.0053 A 2.3562443 2.3567264 0 0 0 368.03497 590.64872 A 2.3562443 2.3567264 0 0 0 365.67879 588.29215 z M 383.72467 591.20947 A 1.813519 1.8138901 0 0 0 381.91084 593.02329 A 1.813519 1.8138901 0 0 0 383.72467 594.83712 A 1.813519 1.8138901 0 0 0 385.5381 593.02329 A 1.813519 1.8138901 0 0 0 383.72467 591.20947 z " />
      </g>
      <path
         style="fill:#000000"
         d="m 300.59189,509.47331 c -0.18321,-0.12797 -0.3673,-0.23267 -0.40911,-0.23267 -0.0816,0 -1.05138,-0.8794 -1.05138,-0.95349 0,-0.0244 -0.11039,-0.21572 -0.24531,-0.42501 -0.17408,-0.27006 -0.27717,-0.5699 -0.35507,-1.03281 -0.0604,-0.35876 -0.13326,-0.74207 -0.16197,-0.85179 -0.0376,-0.14381 0.0166,-0.32038 0.19421,-0.63249 0.13553,-0.23813 0.24641,-0.48576 0.24641,-0.55027 0,-0.21548 0.32901,-0.86421 0.55769,-1.09965 0.13118,-0.13504 0.24561,-0.35782 0.27272,-0.53093 0.0716,-0.45742 0.69357,-1.01998 1.19909,-1.08461 0.49096,-0.0628 1.48654,-0.52211 1.77095,-0.8171 0.14845,-0.15396 0.33387,-0.24694 0.563,-0.28229 0.18792,-0.029 0.47149,-0.13755 0.63015,-0.24125 0.54348,-0.35519 1.31448,-0.44714 1.78437,-0.21282 0.21685,0.10814 0.41879,0.11937 1.34319,0.0747 1.21228,-0.0585 1.60927,-0.14415 1.8803,-0.40551 0.21797,-0.21018 0.54045,-0.3394 0.84704,-0.3394 0.12176,0 0.49038,-0.071 0.81916,-0.15789 0.32878,-0.0869 0.79684,-0.20999 1.04014,-0.27367 0.24329,-0.0637 0.63352,-0.20213 0.86716,-0.30765 0.23365,-0.10551 0.56825,-0.22291 0.74359,-0.2609 0.17531,-0.038 0.49661,-0.17913 0.71398,-0.31364 0.21737,-0.13451 0.57043,-0.27203 0.78459,-0.3056 0.21413,-0.0335 0.57031,-0.15123 0.79148,-0.26147 0.22118,-0.11026 0.59132,-0.22396 0.82251,-0.25269 0.2862,-0.0356 0.51435,-0.12424 0.71482,-0.27786 0.16195,-0.12411 0.31662,-0.2268 0.34371,-0.22819 0.63029,-0.0325 1.16594,-0.16385 1.38164,-0.33888 0.13661,-0.11085 0.32704,-0.2168 0.42316,-0.23544 0.0961,-0.0187 0.26762,-0.0525 0.38111,-0.0754 0.1135,-0.0228 0.29447,-0.11598 0.40215,-0.20697 0.2356,-0.19905 0.49952,-0.30415 0.76385,-0.30415 0.11312,0 0.32152,-0.11449 0.49408,-0.27145 0.24083,-0.21904 0.36195,-0.27146 0.62726,-0.27146 0.2375,0 0.45055,-0.0748 0.76741,-0.26947 0.32075,-0.19705 0.53044,-0.27001 0.78023,-0.27146 0.2731,-8.9e-4 0.40211,-0.0545 0.64343,-0.26373 0.16601,-0.14395 0.41696,-0.28581 0.55768,-0.31523 0.14071,-0.0294 0.29833,-0.10286 0.35028,-0.16322 0.13395,-0.15564 0.52622,-0.33279 0.86981,-0.39282 0.16143,-0.0282 0.44146,-0.13384 0.6223,-0.23473 0.18082,-0.1009 0.40531,-0.18345 0.49885,-0.18345 0.0935,0 0.44497,-0.13961 0.78094,-0.31023 0.33598,-0.17063 0.69726,-0.31025 0.80287,-0.31025 0.27949,0 0.59046,-0.12866 1.05616,-0.43697 0.43562,-0.2884 0.54817,-0.50107 0.62346,-1.17805 0.0402,-0.36207 0.37443,-0.89809 0.6484,-1.0401 0.0917,-0.0475 0.61844,-0.10173 1.17057,-0.12046 1.05744,-0.0359 1.16452,-0.0605 1.60187,-0.36755 0.2078,-0.14593 0.37373,-0.19191 0.69252,-0.19191 0.3208,0 0.4927,-0.0482 0.73208,-0.2051 0.17206,-0.11279 0.56618,-0.27376 0.87584,-0.35771 0.30965,-0.0839 0.65348,-0.1986 0.76407,-0.25482 0.2841,-0.14441 0.71527,-0.2682 0.93414,-0.2682 0.10244,0 0.30931,-0.10419 0.4597,-0.23152 0.21134,-0.17894 0.39454,-0.24805 0.8067,-0.30433 0.33402,-0.0456 0.69121,-0.15959 0.95592,-0.30502 0.23245,-0.12771 0.55958,-0.25663 0.72696,-0.28649 0.16738,-0.0298 0.43883,-0.14305 0.60321,-0.25153 0.1644,-0.10849 0.45402,-0.22571 0.64361,-0.26052 0.18959,-0.0348 0.46638,-0.15274 0.61506,-0.26212 0.40029,-0.29441 0.67924,-0.34562 2.10446,-0.38636 1.12952,-0.0323 1.3633,-0.0619 1.83159,-0.23186 0.29524,-0.10716 0.66434,-0.19484 0.82021,-0.19484 0.22945,0 0.30934,-0.0436 0.41962,-0.22886 0.0749,-0.12587 0.28133,-0.30736 0.45873,-0.40332 0.17738,-0.0959 0.38873,-0.23373 0.46966,-0.30617 0.0809,-0.0724 0.30344,-0.15432 0.49446,-0.18194 0.19105,-0.0276 0.52228,-0.16206 0.73608,-0.29874 0.36124,-0.23092 0.4456,-0.25042 1.19268,-0.2757 0.74462,-0.0252 0.82898,-0.0445 1.14341,-0.26231 0.31826,-0.2204 0.39035,-0.23625 1.15367,-0.25374 0.79837,-0.0183 0.81943,-0.0236 1.08348,-0.27035 0.24054,-0.22482 0.33842,-0.25841 0.91718,-0.31467 0.51181,-0.0498 0.70589,-0.10563 0.92398,-0.26604 0.15184,-0.11168 0.41516,-0.22111 0.58515,-0.24317 0.56463,-0.0732 0.64121,-0.10212 0.89758,-0.33837 0.22429,-0.2067 0.31084,-0.23459 0.72782,-0.23459 0.63173,0 0.93113,-0.0645 1.13066,-0.24383 0.0913,-0.082 0.31996,-0.21445 0.50826,-0.29442 0.1883,-0.08 0.44497,-0.25333 0.57037,-0.38527 0.20054,-0.21098 0.27996,-0.23987 0.65939,-0.23987 0.34655,0 0.4733,-0.0374 0.64441,-0.19036 0.11715,-0.1047 0.34523,-0.23117 0.50682,-0.28104 0.1616,-0.0499 0.38664,-0.18613 0.50008,-0.30281 0.14594,-0.15009 0.32236,-0.22836 0.60322,-0.2676 0.25452,-0.0356 0.50375,-0.13711 0.69456,-0.28298 0.2156,-0.1648 0.43372,-0.24546 0.79145,-0.29264 0.40439,-0.0533 0.52729,-0.10556 0.67849,-0.28842 0.16854,-0.20384 0.24167,-0.22734 0.83888,-0.26966 0.59495,-0.0421 0.67813,-0.0687 0.91783,-0.29272 0.18687,-0.17467 0.34007,-0.24634 0.52642,-0.24634 0.30691,0 0.4945,-0.0855 0.76963,-0.35084 0.14212,-0.13705 0.28682,-0.19208 0.505,-0.19208 0.4509,0 0.81851,-0.12311 1.03249,-0.34575 0.17546,-0.18257 0.36017,-0.22996 0.80039,-0.20535 0.0885,0.005 0.30562,-0.0773 0.48257,-0.18268 0.17695,-0.10542 0.41221,-0.23126 0.52279,-0.27965 0.32968,-0.14425 0.82581,-0.38351 1.12601,-0.54304 0.47147,-0.25056 1.52815,-0.16967 1.52815,0.11697 0,0.1611 -0.20645,0.24789 -0.73738,0.30995 -0.29511,0.0344 -0.55041,0.12145 -0.72387,0.24656 -0.41448,0.29894 -1.19468,0.72551 -1.42643,0.77989 -0.11487,0.027 -0.35361,0.14389 -0.53055,0.25986 -0.17695,0.11598 -0.43733,0.2352 -0.57863,0.26494 -0.14129,0.0297 -0.41274,0.17355 -0.60321,0.31957 -0.26488,0.20306 -0.42293,0.26567 -0.67215,0.26624 -0.33652,8.9e-4 -1.0376,0.3739 -1.62736,0.8661 -0.16438,0.13717 -0.35581,0.22049 -0.50668,0.22049 -0.16828,0 -0.33116,0.0831 -0.53232,0.27146 -0.23151,0.21681 -0.35351,0.27145 -0.60609,0.27145 -0.26033,0 -0.36031,0.048 -0.56546,0.27146 -0.13708,0.14931 -0.30591,0.2707 -0.37519,0.26979 -0.0692,-8.8e-4 -0.44157,0.0942 -0.82733,0.21135 -0.9243,0.28073 -1.4631,0.71956 -1.59947,1.30273 -0.12252,0.5239 -0.1739,0.60838 -0.42196,0.69361 -0.36825,0.12655 -0.63477,-0.0226 -0.73259,-0.41009 -0.0467,-0.18464 -0.15473,-0.38505 -0.24023,-0.44535 -0.23187,-0.16348 -0.63719,-0.13694 -0.81585,0.0534 -0.0841,0.0897 -0.26169,0.21668 -0.3945,0.28221 -0.13281,0.0655 -0.36037,0.21902 -0.50567,0.34108 -0.1453,0.12206 -0.35725,0.22192 -0.471,0.22192 -0.11374,0 -0.34206,0.1033 -0.50736,0.22955 -0.16531,0.12626 -0.455,0.26302 -0.64376,0.30392 -0.18876,0.0409 -0.43875,0.16024 -0.55553,0.26522 -0.11677,0.10497 -0.35709,0.23465 -0.53403,0.28816 -0.17695,0.0536 -0.79222,0.31555 -1.3673,0.58234 -0.57506,0.26679 -1.17126,0.51092 -1.32487,0.54252 -0.15363,0.0316 -0.48384,0.15765 -0.73381,0.28016 -0.24999,0.12249 -0.52767,0.22271 -0.61708,0.22271 -0.0894,0 -0.24782,0.0888 -0.35198,0.19733 -0.23333,0.24309 -0.5693,0.42314 -0.78955,0.42314 -0.19168,0 -1.0776,0.56215 -1.24147,0.78776 -0.0667,0.0918 -0.29884,0.19522 -0.58237,0.25943 -0.61141,0.13844 -1.529,0.54234 -1.85154,0.81499 -0.20506,0.17336 -0.36419,0.22543 -0.82533,0.27009 -0.37885,0.0368 -0.65902,0.11224 -0.83173,0.22429 -0.14326,0.0929 -0.42333,0.2155 -0.6224,0.27237 -0.19905,0.0569 -0.4886,0.19767 -0.64343,0.31285 -0.15482,0.11517 -0.44437,0.25472 -0.64343,0.3101 -0.19906,0.0554 -0.45799,0.16656 -0.57542,0.24705 -0.11741,0.0805 -0.25191,0.14638 -0.29887,0.14638 -0.1109,0 -0.65927,0.2393 -0.81472,0.35552 -0.0663,0.0497 -0.24925,0.12997 -0.40643,0.17856 -0.43495,0.13446 -1.0358,0.54148 -1.53004,1.03649 -0.32914,0.32964 -0.50269,0.44596 -0.66536,0.44596 -0.14891,0 -0.34251,0.11013 -0.59866,0.34051 -0.21022,0.18905 -0.61112,0.43456 -0.90138,0.55199 -0.28754,0.11633 -0.63773,0.30878 -0.77821,0.42766 -0.14049,0.11891 -0.37575,0.24151 -0.52279,0.27247 -0.14706,0.031 -0.41324,0.15287 -0.59153,0.27088 -0.23629,0.15644 -0.47087,0.22975 -0.86545,0.27051 -0.41943,0.0434 -0.60611,0.10556 -0.82912,0.27646 -0.26981,0.20677 -1.04475,0.53656 -1.26177,0.53697 -0.14475,0 -1.60637,0.61756 -1.74632,0.73753 -0.16353,0.14019 -0.79391,0.3456 -1.06482,0.34699 -0.12117,5.1e-4 -0.41072,0.0709 -0.64343,0.15621 -0.23272,0.0853 -0.51835,0.15509 -0.63475,0.15511 -0.12603,3e-5 -0.30496,0.0903 -0.44236,0.22321 -0.1269,0.12274 -0.46599,0.30171 -0.75351,0.39772 -0.28754,0.096 -0.58227,0.20423 -0.65495,0.24049 -0.0727,0.0362 -0.4889,0.10499 -0.92494,0.15274 -0.66173,0.0724 -0.91243,0.14216 -1.51663,0.42165 -0.71183,0.32929 -1.29498,0.51528 -1.9303,0.61567 -0.54084,0.0854 -1.35632,0.404 -2.04313,0.79805 -0.46892,0.26905 -0.71289,0.45768 -1.31342,1.01549 l -0.38068,0.35359 -0.74533,0.005 c -0.63471,0.004 -0.79605,0.0331 -1.08715,0.193 -0.188,0.10327 -0.34183,0.21205 -0.34183,0.24169 0,0.0297 -0.13986,0.19291 -0.3108,0.36277 -0.23744,0.23593 -0.44689,0.34869 -0.88729,0.4777 -0.44621,0.1307 -0.67559,0.25539 -1.0151,0.55191 -0.45725,0.3993 -0.47617,0.40709 -1.32568,0.54617 -0.2878,0.0471 -0.70795,0.18736 -0.93473,0.31201 -0.22656,0.12453 -0.46466,0.22642 -0.5291,0.22642 -0.0645,0 -0.27721,0.10058 -0.47279,0.22349 -0.19557,0.12294 -0.49709,0.27128 -0.67,0.32964 -0.17292,0.0584 -0.49865,0.27405 -0.72386,0.47929 -0.22521,0.20524 -0.53615,0.45357 -0.69098,0.55185 -0.56922,0.36131 -1.02645,0.84537 -1.07981,1.14319 -0.0405,0.22583 -0.19333,0.41734 -0.74292,0.93071 -0.38059,0.3555 -0.93715,0.87847 -1.23679,1.16215 -0.34532,0.32693 -0.63899,0.53573 -0.80207,0.57027 -0.14149,0.03 -0.42563,0.13873 -0.63143,0.24169 -0.20579,0.10296 -0.66343,0.25444 -1.01698,0.33663 -0.35354,0.0822 -0.87373,0.22125 -1.15597,0.30898 -0.40306,0.12531 -0.72404,0.15954 -1.49598,0.15954 -0.96439,0 -0.98906,-0.004 -1.3159,-0.23268 z M 379.20194,475.973 c -0.0595,-0.0928 0.0918,-0.18477 0.19895,-0.12092 0.0899,0.0536 0.0309,0.19312 -0.0817,0.19312 -0.0391,0 -0.0918,-0.0325 -0.1172,-0.0722 z m 3.98776,-1.894 c -0.0496,-0.0576 -0.11333,-0.26767 -0.14162,-0.46678 -0.0677,-0.47679 0.0967,-0.67045 0.56638,-0.66693 0.56203,0.004 0.75399,0.30778 0.51477,0.81407 -0.16485,0.3489 -0.74461,0.54614 -0.93953,0.31964 z m -4.5743,-0.12587 c -0.36239,-0.14939 -0.18435,-0.41555 0.32888,-0.49164 0.41986,-0.0623 0.53573,-0.17521 0.53573,-0.52221 0,-0.20352 -0.0641,-0.36822 -0.20697,-0.53198 -0.27782,-0.31839 -0.20901,-0.55031 0.16326,-0.55031 0.34031,0 0.54909,0.18077 0.71661,0.62047 0.0798,0.20931 0.23267,0.41603 0.38201,0.51639 l 0.24905,0.16737 -0.18952,0.0944 c -0.10423,0.0519 -0.3754,0.23083 -0.60258,0.39755 -0.44254,0.32474 -1.01418,0.44931 -1.37647,0.29994 z m -0.99347,-1.34241 c -0.19795,-0.1282 -0.28013,-0.24437 -0.2981,-0.42143 -0.0312,-0.30721 0.18381,-0.43905 0.59474,-0.3647 0.32333,0.0585 0.4798,0.31672 0.3933,0.64908 -0.0926,0.35566 -0.2914,0.39516 -0.68994,0.13705 z m 15.86237,-6.47573 c -0.16553,-0.29828 0.24484,-0.55388 0.46973,-0.29257 0.0533,0.062 0.0734,0.18409 0.0446,0.27146 -0.0658,0.19979 -0.40741,0.21381 -0.51435,0.0211 z m 9.03862,-1.04178 c -0.31948,-0.17669 -0.37059,-0.30942 -0.32984,-0.85655 0.0214,-0.28801 0.0614,-0.55849 0.0886,-0.60108 0.0273,-0.0426 0.26465,-0.0775 0.52745,-0.0775 h 0.47784 l -0.007,0.29084 c -0.0274,1.17488 -0.24281,1.52875 -0.75729,1.24423 z"
         id="path4181"
         inkscape:connector-curvature="0" />
    </g>
  </g>
</svg>
