<?xml version="1.0" encoding="UTF-8" standalone="no"?>
<!-- Created with Inkscape (http://www.inkscape.org/) -->

<svg
   xmlns:dc="http://purl.org/dc/elements/1.1/"
   xmlns:cc="http://creativecommons.org/ns#"
   xmlns:rdf="http://www.w3.org/1999/02/22-rdf-syntax-ns#"
   xmlns:svg="http://www.w3.org/2000/svg"
   xmlns="http://www.w3.org/2000/svg"
   xmlns:sodipodi="http://sodipodi.sourceforge.net/DTD/sodipodi-0.dtd"
   xmlns:inkscape="http://www.inkscape.org/namespaces/inkscape"
   width="26.866449cm"
   height="23.455431cm"
   viewBox="0 0 951.96083 831.09794"
   id="svg2"
   version="1.1"
   inkscape:version="0.92.3 (2405546, 2018-03-11)"
   sodipodi:docname="mapa_small.svg">
  <defs
     id="defs4" />
  <sodipodi:namedview
     id="base"
     pagecolor="#ffffff"
     bordercolor="#666666"
     borderopacity="1.0"
     inkscape:pageopacity="0.0"
     inkscape:pageshadow="2"
     inkscape:zoom="0.7"
     inkscape:cx="423.86963"
     inkscape:cy="417.78108"
     inkscape:document-units="px"
     inkscape:current-layer="layer1"
     showgrid="false"
     units="cm"
     inkscape:window-width="1871"
     inkscape:window-height="1025"
     inkscape:window-x="49"
     inkscape:window-y="27"
     inkscape:window-maximized="1"
     fit-margin-top="0"
     fit-margin-left="0"
     fit-margin-right="0"
     fit-margin-bottom="0"
     inkscape:pagecheckerboard="true" />
  <g
     inkscape:label="Layer 1"
     inkscape:groupmode="layer"
     id="layer1"
     transform="translate(-335.94421,388.8359)">
    <g
       id="g5649"
       transform="matrix(3.4122485,0,0,3.4122485,-688.6511,-2000.9735)">
      <g
         transform="matrix(1.7332052,0,0,1.7332052,-126.60074,-330.98518)"
         id="g4508">
        <path
           style="display:inline;opacity:1;fill:#ffffff;fill-opacity:1;fill-rule:nonzero;stroke:none;stroke-width:21.94898987;stroke-linecap:round;stroke-linejoin:round;stroke-miterlimit:4;stroke-dasharray:none;stroke-opacity:1;filter:url(#filter5683)"
           d="m 248.1663,515.74237 a 0.85300511,0.85317993 0 0 1 -0.85301,0.85318 0.85300511,0.85317993 0 0 1 -0.853,-0.85318 0.85300511,0.85317993 0 0 1 0.853,-0.85318 0.85300511,0.85317993 0 0 1 0.85301,0.85318 z"
           id="path4172" />
        <path
           style="display:inline;opacity:1;fill:#ffffff;fill-opacity:1;fill-rule:nonzero;stroke:none;stroke-width:25.56771851;stroke-linecap:round;stroke-linejoin:round;stroke-miterlimit:4;stroke-dasharray:none;stroke-opacity:1;filter:url(#filter5683)"
           d="m 262.12862,516.67609 a 0.99364036,0.99384356 0 0 1 -0.99364,0.99384 0.99364036,0.99384356 0 0 1 -0.99364,-0.99384 0.99364036,0.99384356 0 0 1 0.99364,-0.99385 0.99364036,0.99384356 0 0 1 0.99364,0.99385 z"
           id="ellipse5669" />
        <path
           style="display:inline;opacity:1;fill:#ffffff;fill-opacity:1;fill-rule:nonzero;stroke:none;stroke-width:25.56771851;stroke-linecap:round;stroke-linejoin:round;stroke-miterlimit:4;stroke-dasharray:none;stroke-opacity:1;filter:url(#filter5683)"
           d="m 258.32955,526.98785 a 0.99364036,0.99384356 0 0 1 -0.99364,0.99385 0.99364036,0.99384356 0 0 1 -0.99364,-0.99385 0.99364036,0.99384356 0 0 1 0.99364,-0.99384 0.99364036,0.99384356 0 0 1 0.99364,0.99384 z"
           id="ellipse5693" />
        <path
           style="display:inline;opacity:1;fill:#ffffff;fill-opacity:1;fill-rule:nonzero;stroke:none;stroke-width:25.56771851;stroke-linecap:round;stroke-linejoin:round;stroke-miterlimit:4;stroke-dasharray:none;stroke-opacity:1;filter:url(#filter5683)"
           d="m 262.84096,531.05829 a 0.99364036,0.99384356 0 0 1 -0.99364,0.99384 0.99364036,0.99384356 0 0 1 -0.99364,-0.99384 0.99364036,0.99384356 0 0 1 0.99364,-0.99384 0.99364036,0.99384356 0 0 1 0.99364,0.99384 z"
           id="ellipse5695" />
        <path
           style="display:inline;opacity:1;fill:#ffffff;fill-opacity:1;fill-rule:nonzero;stroke:none;stroke-width:25.56771851;stroke-linecap:round;stroke-linejoin:round;stroke-miterlimit:4;stroke-dasharray:none;stroke-opacity:1;filter:url(#filter5683)"
           d="m 259.21147,537.33356 a 0.99364036,0.99384356 0 0 1 -0.99364,0.99384 0.99364036,0.99384356 0 0 1 -0.99364,-0.99384 0.99364036,0.99384356 0 0 1 0.99364,-0.99385 0.99364036,0.99384356 0 0 1 0.99364,0.99385 z"
           id="ellipse5697" />
        <path
           transform="matrix(1,0,0,-1,-14.369553,10.668272)"
           style="display:inline;opacity:1;fill:#ffffff;fill-opacity:1;fill-rule:nonzero;stroke:none;stroke-width:25.56771851;stroke-linecap:round;stroke-linejoin:round;stroke-miterlimit:4;stroke-dasharray:none;stroke-opacity:1;filter:url(#filter5683)"
           d="m 284.74072,-511.09579 a 1.2649475,1.2652061 0 0 1 -1.26495,1.2652 1.2649475,1.2652061 0 0 1 -1.26495,-1.2652 1.2649475,1.2652061 0 0 1 1.26495,-1.26521 1.2649475,1.2652061 0 0 1 1.26495,1.26521 z"
           id="ellipse5699" />
        <path
           transform="matrix(1,0,0,-1,-14.369553,10.668272)"
           style="display:inline;opacity:1;fill:#ffffff;fill-opacity:1;fill-rule:nonzero;stroke:none;stroke-width:25.56771851;stroke-linecap:round;stroke-linejoin:round;stroke-miterlimit:4;stroke-dasharray:none;stroke-opacity:1;filter:url(#filter5683)"
           d="m 295.12036,-528.36121 a 1.1632073,1.1634451 0 0 1 -1.16321,1.16345 1.1632073,1.1634451 0 0 1 -1.1632,-1.16345 1.1632073,1.1634451 0 0 1 1.1632,-1.16344 1.1632073,1.1634451 0 0 1 1.16321,1.16344 z"
           id="ellipse5701" />
        <path
           transform="matrix(1,0,0,-1,-14.369553,10.668272)"
           style="display:inline;opacity:1;fill:#ffffff;fill-opacity:1;fill-rule:nonzero;stroke:none;stroke-width:25.56771851;stroke-linecap:round;stroke-linejoin:round;stroke-miterlimit:4;stroke-dasharray:none;stroke-opacity:1;filter:url(#filter5683)"
           d="m 307.86049,-566.05676 a 0.89771879,0.89790237 0 0 1 -0.89772,0.8979 0.89771879,0.89790237 0 0 1 -0.89772,-0.8979 0.89771879,0.89790237 0 0 1 0.89772,-0.89791 0.89771879,0.89790237 0 0 1 0.89772,0.89791 z"
           id="ellipse5703" />
        <path
           transform="matrix(1,0,0,-1,-14.369553,10.668272)"
           style="display:inline;opacity:1;fill:#ffffff;fill-opacity:1;fill-rule:nonzero;stroke:none;stroke-width:25.56771851;stroke-linecap:round;stroke-linejoin:round;stroke-miterlimit:4;stroke-dasharray:none;stroke-opacity:1;filter:url(#filter5683)"
           d="m 302.51176,-562.84271 a 0.89771879,0.89790237 0 0 1 -0.89772,0.8979 0.89771879,0.89790237 0 0 1 -0.89771,-0.8979 0.89771879,0.89790237 0 0 1 0.89771,-0.8979 0.89771879,0.89790237 0 0 1 0.89772,0.8979 z"
           id="ellipse5705" />
        <path
           transform="matrix(1,0,0,-1,-14.369553,10.668272)"
           style="display:inline;opacity:1;fill:#ffffff;fill-opacity:1;fill-rule:nonzero;stroke:none;stroke-width:25.56771851;stroke-linecap:round;stroke-linejoin:round;stroke-miterlimit:4;stroke-dasharray:none;stroke-opacity:1;filter:url(#filter5683)"
           d="m 300.06534,-570.47003 a 0.72985601,0.73000532 0 0 1 -0.72986,0.73 0.72985601,0.73000532 0 0 1 -0.72986,-0.73 0.72985601,0.73000532 0 0 1 0.72986,-0.73001 0.72985601,0.73000532 0 0 1 0.72986,0.73001 z"
           id="ellipse5707" />
        <path
           transform="matrix(1,0,0,-1,-14.369553,10.668272)"
           style="display:inline;opacity:1;fill:#ffffff;fill-opacity:1;fill-rule:nonzero;stroke:none;stroke-width:25.56771851;stroke-linecap:round;stroke-linejoin:round;stroke-miterlimit:4;stroke-dasharray:none;stroke-opacity:1;filter:url(#filter5683)"
           d="m 371.76782,-574.06421 a 0.72985601,0.73000532 0 0 1 -0.72986,0.73001 0.72985601,0.73000532 0 0 1 -0.72985,-0.73001 0.72985601,0.73000532 0 0 1 0.72985,-0.73 0.72985601,0.73000532 0 0 1 0.72986,0.73 z"
           id="ellipse5709" />
        <path
           transform="matrix(1,0,0,-1,-14.369553,10.668272)"
           style="display:inline;opacity:1;fill:#ffffff;fill-opacity:1;fill-rule:nonzero;stroke:none;stroke-width:25.56771851;stroke-linecap:round;stroke-linejoin:round;stroke-miterlimit:4;stroke-dasharray:none;stroke-opacity:1;filter:url(#filter5683)"
           d="m 277.53572,-583.83099 a 0.89771879,0.89790237 0 0 1 -0.89772,0.8979 0.89771879,0.89790237 0 0 1 -0.89772,-0.8979 0.89771879,0.89790237 0 0 1 0.89772,-0.89791 0.89771879,0.89790237 0 0 1 0.89772,0.89791 z"
           id="ellipse5711" />
        <path
           transform="matrix(1,0,0,-1,-14.369553,10.668272)"
           style="display:inline;opacity:1;fill:#ffffff;fill-opacity:1;fill-rule:nonzero;stroke:none;stroke-width:25.56771851;stroke-linecap:round;stroke-linejoin:round;stroke-miterlimit:4;stroke-dasharray:none;stroke-opacity:1;filter:url(#filter5683)"
           d="m 315.11946,-577.9967 a 0.89771879,0.89790237 0 0 1 -0.89772,0.8979 0.89771879,0.89790237 0 0 1 -0.89772,-0.8979 0.89771879,0.89790237 0 0 1 0.89772,-0.89791 0.89771879,0.89790237 0 0 1 0.89772,0.89791 z"
           id="ellipse5713" />
        <path
           transform="matrix(1,0,0,-1,-14.369553,10.668272)"
           style="display:inline;opacity:1;fill:#ffffff;fill-opacity:1;fill-rule:nonzero;stroke:none;stroke-width:25.56771851;stroke-linecap:round;stroke-linejoin:round;stroke-miterlimit:4;stroke-dasharray:none;stroke-opacity:1;filter:url(#filter5683)"
           d="m 328.48408,-562.18982 a 0.89771879,0.89790237 0 0 1 -0.89772,0.8979 0.89771879,0.89790237 0 0 1 -0.89771,-0.8979 0.89771879,0.89790237 0 0 1 0.89771,-0.8979 0.89771879,0.89790237 0 0 1 0.89772,0.8979 z"
           id="ellipse5715" />
        <path
           transform="matrix(1,0,0,-1,-14.369553,10.668272)"
           style="display:inline;opacity:1;fill:#ffffff;fill-opacity:1;fill-rule:nonzero;stroke:none;stroke-width:25.56771851;stroke-linecap:round;stroke-linejoin:round;stroke-miterlimit:4;stroke-dasharray:none;stroke-opacity:1;filter:url(#filter5683)"
           d="m 323.05684,-544.00848 a 0.89771879,0.89790237 0 0 1 -0.89772,0.8979 0.89771879,0.89790237 0 0 1 -0.89772,-0.8979 0.89771879,0.89790237 0 0 1 0.89772,-0.89791 0.89771879,0.89790237 0 0 1 0.89772,0.89791 z"
           id="ellipse5719" />
        <path
           transform="matrix(1,0,0,-1,-14.369553,10.668272)"
           style="display:inline;opacity:1;fill:#ffffff;fill-opacity:1;fill-rule:nonzero;stroke:none;stroke-width:25.56771851;stroke-linecap:round;stroke-linejoin:round;stroke-miterlimit:4;stroke-dasharray:none;stroke-opacity:1;filter:url(#filter5683)"
           d="m 351.88911,-547.94324 a 0.89771879,0.89790237 0 0 1 -0.89772,0.89791 0.89771879,0.89790237 0 0 1 -0.89771,-0.89791 0.89771879,0.89790237 0 0 1 0.89771,-0.8979 0.89771879,0.89790237 0 0 1 0.89772,0.8979 z"
           id="ellipse5721" />
        <path
           transform="matrix(1,0,0,-1,-14.369553,10.668272)"
           style="display:inline;opacity:1;fill:#ffffff;fill-opacity:1;fill-rule:nonzero;stroke:none;stroke-width:25.56771851;stroke-linecap:round;stroke-linejoin:round;stroke-miterlimit:4;stroke-dasharray:none;stroke-opacity:1;filter:url(#filter5683)"
           d="m 373.19108,-563.95361 a 0.89771879,0.89790237 0 0 1 -0.89771,0.8979 0.89771879,0.89790237 0 0 1 -0.89772,-0.8979 0.89771879,0.89790237 0 0 1 0.89772,-0.89791 0.89771879,0.89790237 0 0 1 0.89771,0.89791 z"
           id="ellipse5723" />
        <path
           transform="matrix(1,0,0,-1,-14.369553,10.668272)"
           style="display:inline;opacity:1;fill:#ffffff;fill-opacity:1;fill-rule:nonzero;stroke:none;stroke-width:25.56771851;stroke-linecap:round;stroke-linejoin:round;stroke-miterlimit:4;stroke-dasharray:none;stroke-opacity:1;filter:url(#filter5683)"
           d="m 388.11604,-577.52173 a 0.89771879,0.89790237 0 0 1 -0.89772,0.8979 0.89771879,0.89790237 0 0 1 -0.89772,-0.8979 0.89771879,0.89790237 0 0 1 0.89772,-0.8979 0.89771879,0.89790237 0 0 1 0.89772,0.8979 z"
           id="ellipse5725" />
        <path
           transform="matrix(1,0,0,-1,-14.369553,10.668272)"
           style="display:inline;opacity:1;fill:#ffffff;fill-opacity:1;fill-rule:nonzero;stroke:none;stroke-width:25.56771851;stroke-linecap:round;stroke-linejoin:round;stroke-miterlimit:4;stroke-dasharray:none;stroke-opacity:1;filter:url(#filter5683)"
           d="m 387.64116,-566.12451 a 0.89771879,0.89790237 0 0 1 -0.89772,0.8979 0.89771879,0.89790237 0 0 1 -0.89772,-0.8979 0.89771879,0.89790237 0 0 1 0.89772,-0.8979 0.89771879,0.89790237 0 0 1 0.89772,0.8979 z"
           id="ellipse5727" />
        <path
           transform="matrix(1,0,0,-1,-14.369553,10.668272)"
           style="display:inline;opacity:1;fill:#ffffff;fill-opacity:1;fill-rule:nonzero;stroke:none;stroke-width:25.56771851;stroke-linecap:round;stroke-linejoin:round;stroke-miterlimit:4;stroke-dasharray:none;stroke-opacity:1;filter:url(#filter5683)"
           d="m 390.76182,-559.88318 a 0.89771879,0.89790237 0 0 1 -0.89771,0.8979 0.89771879,0.89790237 0 0 1 -0.89772,-0.8979 0.89771879,0.89790237 0 0 1 0.89772,-0.8979 0.89771879,0.89790237 0 0 1 0.89771,0.8979 z"
           id="ellipse5729" />
        <path
           transform="matrix(1,0,0,-1,-14.369553,10.668272)"
           style="display:inline;opacity:1;fill:#ffffff;fill-opacity:1;fill-rule:nonzero;stroke:none;stroke-width:25.56771851;stroke-linecap:round;stroke-linejoin:round;stroke-miterlimit:4;stroke-dasharray:none;stroke-opacity:1;filter:url(#filter5683)"
           d="m 398.63133,-558.52637 a 0.89771879,0.89790237 0 0 1 -0.89772,0.89791 0.89771879,0.89790237 0 0 1 -0.89772,-0.89791 0.89771879,0.89790237 0 0 1 0.89772,-0.8979 0.89771879,0.89790237 0 0 1 0.89772,0.8979 z"
           id="ellipse5731" />
        <path
           transform="matrix(1,0,0,-1,-14.369553,10.668272)"
           style="display:inline;opacity:1;fill:#ffffff;fill-opacity:1;fill-rule:nonzero;stroke:none;stroke-width:25.56771851;stroke-linecap:round;stroke-linejoin:round;stroke-miterlimit:4;stroke-dasharray:none;stroke-opacity:1;filter:url(#filter5683)"
           d="m 419.72978,-538.17419 a 0.89771879,0.89790237 0 0 1 -0.89772,0.8979 0.89771879,0.89790237 0 0 1 -0.89772,-0.8979 0.89771879,0.89790237 0 0 1 0.89772,-0.89791 0.89771879,0.89790237 0 0 1 0.89772,0.89791 z"
           id="ellipse5733" />
        <path
           transform="matrix(1,0,0,-1,-14.369553,10.668272)"
           style="display:inline;opacity:1;fill:#ffffff;fill-opacity:1;fill-rule:nonzero;stroke:none;stroke-width:25.56771851;stroke-linecap:round;stroke-linejoin:round;stroke-miterlimit:4;stroke-dasharray:none;stroke-opacity:1;filter:url(#filter5683)"
           d="m 416.20199,-536.987 a 1.0672858,1.067504 0 0 1 -1.06729,1.0675 1.0672858,1.067504 0 0 1 -1.06728,-1.0675 1.0672858,1.067504 0 0 1 1.06728,-1.0675 1.0672858,1.067504 0 0 1 1.06729,1.0675 z"
           id="ellipse5735" />
        <path
           transform="matrix(1,0,0,-1,-14.369553,10.668272)"
           style="display:inline;opacity:1;fill:#ffffff;fill-opacity:1;fill-rule:nonzero;stroke:none;stroke-width:25.56771851;stroke-linecap:round;stroke-linejoin:round;stroke-miterlimit:4;stroke-dasharray:none;stroke-opacity:1;filter:url(#filter5683)"
           d="m 390.15118,-547.57013 a 1.1351265,1.1353586 0 0 1 -1.13513,1.13536 1.1351265,1.1353586 0 0 1 -1.13512,-1.13536 1.1351265,1.1353586 0 0 1 1.13512,-1.13536 1.1351265,1.1353586 0 0 1 1.13513,1.13536 z"
           id="ellipse5737" />
        <path
           transform="matrix(1,0,0,-1,-14.369553,10.668272)"
           style="display:inline;opacity:1;fill:#ffffff;fill-opacity:1;fill-rule:nonzero;stroke:none;stroke-width:25.56771851;stroke-linecap:round;stroke-linejoin:round;stroke-miterlimit:4;stroke-dasharray:none;stroke-opacity:1;filter:url(#filter5683)"
           d="m 414.16685,-547.94324 a 0.89771879,0.89790237 0 0 1 -0.89772,0.89791 0.89771879,0.89790237 0 0 1 -0.89771,-0.89791 0.89771879,0.89790237 0 0 1 0.89771,-0.8979 0.89771879,0.89790237 0 0 1 0.89772,0.8979 z"
           id="ellipse5739" />
        <path
           transform="matrix(1,0,0,-1,-14.369553,10.668272)"
           style="display:inline;opacity:1;fill:#ffffff;fill-opacity:1;fill-rule:nonzero;stroke:none;stroke-width:25.56771851;stroke-linecap:round;stroke-linejoin:round;stroke-miterlimit:4;stroke-dasharray:none;stroke-opacity:1;filter:url(#filter5683)"
           d="m 398.15645,-539.87018 a 0.89771879,0.89790237 0 0 1 -0.89772,0.8979 0.89771879,0.89790237 0 0 1 -0.89772,-0.8979 0.89771879,0.89790237 0 0 1 0.89772,-0.8979 0.89771879,0.89790237 0 0 1 0.89772,0.8979 z"
           id="ellipse5741" />
        <path
           transform="matrix(1,0,0,-1,-14.369553,10.668272)"
           style="display:inline;opacity:1;fill:#ffffff;fill-opacity:1;fill-rule:nonzero;stroke:none;stroke-width:25.56771851;stroke-linecap:round;stroke-linejoin:round;stroke-miterlimit:4;stroke-dasharray:none;stroke-opacity:1;filter:url(#filter5683)"
           d="m 408.9431,-523.72412 a 0.89771879,0.89790237 0 0 1 -0.89772,0.8979 0.89771879,0.89790237 0 0 1 -0.89772,-0.8979 0.89771879,0.89790237 0 0 1 0.89772,-0.8979 0.89771879,0.89790237 0 0 1 0.89772,0.8979 z"
           id="ellipse5743" />
        <path
           transform="matrix(1,0,0,-1,-14.369553,10.668272)"
           style="display:inline;opacity:1;fill:#ffffff;fill-opacity:1;fill-rule:nonzero;stroke:none;stroke-width:25.56771851;stroke-linecap:round;stroke-linejoin:round;stroke-miterlimit:4;stroke-dasharray:none;stroke-opacity:1;filter:url(#filter5683)"
           d="m 394.35734,-521.96027 a 0.89771879,0.89790237 0 0 1 -0.89771,0.89791 0.89771879,0.89790237 0 0 1 -0.89772,-0.89791 0.89771879,0.89790237 0 0 1 0.89772,-0.8979 0.89771879,0.89790237 0 0 1 0.89771,0.8979 z"
           id="ellipse5745" />
        <path
           transform="matrix(1,0,0,-1,-14.369553,10.668272)"
           style="display:inline;opacity:1;fill:#ffffff;fill-opacity:1;fill-rule:nonzero;stroke:none;stroke-width:25.56771851;stroke-linecap:round;stroke-linejoin:round;stroke-miterlimit:4;stroke-dasharray:none;stroke-opacity:1;filter:url(#filter5683)"
           d="m 404.19421,-526.13251 a 1.0672858,1.067504 0 0 1 -1.06729,1.06751 1.0672858,1.067504 0 0 1 -1.06728,-1.06751 1.0672858,1.067504 0 0 1 1.06728,-1.0675 1.0672858,1.067504 0 0 1 1.06729,1.0675 z"
           id="ellipse5747" />
        <path
           transform="matrix(1,0,0,-1,-14.369553,10.668272)"
           style="display:inline;opacity:1;fill:#ffffff;fill-opacity:1;fill-rule:nonzero;stroke:none;stroke-width:25.56771851;stroke-linecap:round;stroke-linejoin:round;stroke-miterlimit:4;stroke-dasharray:none;stroke-opacity:1;filter:url(#filter5683)"
           d="m 381.80679,-535.01965 a 1.0672858,1.067504 0 0 1 -1.06729,1.0675 1.0672858,1.067504 0 0 1 -1.06728,-1.0675 1.0672858,1.067504 0 0 1 1.06728,-1.06751 1.0672858,1.067504 0 0 1 1.06729,1.06751 z"
           id="ellipse5749" />
        <path
           transform="matrix(1,0,0,-1,-14.369553,10.668272)"
           style="display:inline;opacity:1;fill:#ffffff;fill-opacity:1;fill-rule:nonzero;stroke:none;stroke-width:25.56771851;stroke-linecap:round;stroke-linejoin:round;stroke-miterlimit:4;stroke-dasharray:none;stroke-opacity:1;filter:url(#filter5683)"
           d="m 384.9275,-512.5304 a 0.89771879,0.89790237 0 0 1 -0.89771,0.89791 0.89771879,0.89790237 0 0 1 -0.89772,-0.89791 0.89771879,0.89790237 0 0 1 0.89772,-0.8979 0.89771879,0.89790237 0 0 1 0.89771,0.8979 z"
           id="ellipse5751" />
        <path
           transform="matrix(1,0,0,-1,-14.369553,10.668272)"
           style="display:inline;opacity:1;fill:#ffffff;fill-opacity:1;fill-rule:nonzero;stroke:none;stroke-width:25.56771851;stroke-linecap:round;stroke-linejoin:round;stroke-miterlimit:4;stroke-dasharray:none;stroke-opacity:1;filter:url(#filter5683)"
           d="m 373.39461,-506.42474 a 0.89771879,0.89790237 0 0 1 -0.89772,0.8979 0.89771879,0.89790237 0 0 1 -0.89772,-0.8979 0.89771879,0.89790237 0 0 1 0.89772,-0.89791 0.89771879,0.89790237 0 0 1 0.89772,0.89791 z"
           id="ellipse5753" />
        <path
           transform="matrix(1,0,0,-1,-14.369553,10.668272)"
           style="display:inline;opacity:1;fill:#ffffff;fill-opacity:1;fill-rule:nonzero;stroke:none;stroke-width:25.56771851;stroke-linecap:round;stroke-linejoin:round;stroke-miterlimit:4;stroke-dasharray:none;stroke-opacity:1;filter:url(#filter5683)"
           d="m 369.39201,-518.09332 a 0.89771879,0.89790237 0 0 1 -0.89772,0.8979 0.89771879,0.89790237 0 0 1 -0.89772,-0.8979 0.89771879,0.89790237 0 0 1 0.89772,-0.89791 0.89771879,0.89790237 0 0 1 0.89772,0.89791 z"
           id="ellipse5755" />
        <path
           transform="matrix(1,0,0,-1,-14.369553,10.668272)"
           style="display:inline;opacity:1;fill:#ffffff;fill-opacity:1;fill-rule:nonzero;stroke:none;stroke-width:25.56771851;stroke-linecap:round;stroke-linejoin:round;stroke-miterlimit:4;stroke-dasharray:none;stroke-opacity:1;filter:url(#filter5683)"
           d="m 357.24852,-506.22122 a 0.89771879,0.89790237 0 0 1 -0.89772,0.8979 0.89771879,0.89790237 0 0 1 -0.89772,-0.8979 0.89771879,0.89790237 0 0 1 0.89772,-0.8979 0.89771879,0.89790237 0 0 1 0.89772,0.8979 z"
           id="ellipse5757" />
        <path
           transform="matrix(1,0,0,-1,-14.369553,10.668272)"
           style="display:inline;opacity:1;fill:#ffffff;fill-opacity:1;fill-rule:nonzero;stroke:none;stroke-width:25.56771851;stroke-linecap:round;stroke-linejoin:round;stroke-miterlimit:4;stroke-dasharray:none;stroke-opacity:1;filter:url(#filter5683)"
           d="m 359.96214,-498.01251 a 0.89771879,0.89790237 0 0 1 -0.89772,0.8979 0.89771879,0.89790237 0 0 1 -0.89772,-0.8979 0.89771879,0.89790237 0 0 1 0.89772,-0.8979 0.89771879,0.89790237 0 0 1 0.89772,0.8979 z"
           id="ellipse5759" />
        <path
           transform="matrix(1,0,0,-1,-14.369553,10.668272)"
           style="display:inline;opacity:1;fill:#ffffff;fill-opacity:1;fill-rule:nonzero;stroke:none;stroke-width:25.56771851;stroke-linecap:round;stroke-linejoin:round;stroke-miterlimit:4;stroke-dasharray:none;stroke-opacity:1;filter:url(#filter5683)"
           d="m 331.40123,-486.14041 a 0.89771879,0.89790237 0 0 1 -0.89772,0.8979 0.89771879,0.89790237 0 0 1 -0.89772,-0.8979 0.89771879,0.89790237 0 0 1 0.89772,-0.8979 0.89771879,0.89790237 0 0 1 0.89772,0.8979 z"
           id="ellipse5761" />
        <path
           transform="matrix(1,0,0,-1,-14.369553,10.668272)"
           style="display:inline;opacity:1;fill:#ffffff;fill-opacity:1;fill-rule:nonzero;stroke:none;stroke-width:25.56771851;stroke-linecap:round;stroke-linejoin:round;stroke-miterlimit:4;stroke-dasharray:none;stroke-opacity:1;filter:url(#filter5683)"
           d="m 353.65297,-503.57544 a 0.89771879,0.89790237 0 0 1 -0.89772,0.8979 0.89771879,0.89790237 0 0 1 -0.89772,-0.8979 0.89771879,0.89790237 0 0 1 0.89772,-0.8979 0.89771879,0.89790237 0 0 1 0.89772,0.8979 z"
           id="ellipse5763" />
        <path
           transform="matrix(1,0,0,-1,-14.369553,10.668272)"
           style="display:inline;opacity:1;fill:#ffffff;fill-opacity:1;fill-rule:nonzero;stroke:none;stroke-width:25.56771851;stroke-linecap:round;stroke-linejoin:round;stroke-miterlimit:4;stroke-dasharray:none;stroke-opacity:1;filter:url(#filter5683)"
           d="m 340.01698,-506.28906 a 0.89771879,0.89790237 0 0 1 -0.89772,0.8979 0.89771879,0.89790237 0 0 1 -0.89772,-0.8979 0.89771879,0.89790237 0 0 1 0.89772,-0.8979 0.89771879,0.89790237 0 0 1 0.89772,0.8979 z"
           id="ellipse5765" />
        <path
           transform="matrix(1,0,0,-1,-14.369553,10.668272)"
           style="display:inline;opacity:1;fill:#ffffff;fill-opacity:1;fill-rule:nonzero;stroke:none;stroke-width:25.56771851;stroke-linecap:round;stroke-linejoin:round;stroke-miterlimit:4;stroke-dasharray:none;stroke-opacity:1;filter:url(#filter5683)"
           d="m 351.27852,-507.8494 a 0.89771879,0.89790237 0 0 1 -0.89772,0.89791 0.89771879,0.89790237 0 0 1 -0.89772,-0.89791 0.89771879,0.89790237 0 0 1 0.89772,-0.8979 0.89771879,0.89790237 0 0 1 0.89772,0.8979 z"
           id="ellipse5767" />
        <path
           transform="matrix(1,0,0,-1,-14.369553,10.668272)"
           style="display:inline;opacity:1;fill:#ffffff;fill-opacity:1;fill-rule:nonzero;stroke:none;stroke-width:25.56771851;stroke-linecap:round;stroke-linejoin:round;stroke-miterlimit:4;stroke-dasharray:none;stroke-opacity:1;filter:url(#filter5683)"
           d="m 349.51464,-513.34442 a 1.2369014,1.2371542 0 0 1 -1.2369,1.23715 1.2369014,1.2371542 0 0 1 -1.2369,-1.23715 1.2369014,1.2371542 0 0 1 1.2369,-1.23716 1.2369014,1.2371542 0 0 1 1.2369,1.23716 z"
           id="ellipse5769" />
        <path
           transform="matrix(1,0,0,-1,-14.369553,10.668272)"
           style="display:inline;opacity:1;fill:#ffffff;fill-opacity:1;fill-rule:nonzero;stroke:none;stroke-width:25.56771851;stroke-linecap:round;stroke-linejoin:round;stroke-miterlimit:4;stroke-dasharray:none;stroke-opacity:1;filter:url(#filter5683)"
           d="m 348.49703,-519.51794 a 1.1690607,1.1692997 0 0 1 -1.16906,1.1693 1.1690607,1.1692997 0 0 1 -1.16906,-1.1693 1.1690607,1.1692997 0 0 1 1.16906,-1.1693 1.1690607,1.1692997 0 0 1 1.16906,1.1693 z"
           id="ellipse5771" />
        <path
           transform="matrix(1,0,0,-1,-14.369553,10.668272)"
           style="display:inline;opacity:1;fill:#ffffff;fill-opacity:1;fill-rule:nonzero;stroke:none;stroke-width:25.56771851;stroke-linecap:round;stroke-linejoin:round;stroke-miterlimit:4;stroke-dasharray:none;stroke-opacity:1;filter:url(#filter5683)"
           d="m 332.82583,-493.87418 a 1.10122,1.1014452 0 0 1 -1.10122,1.10145 1.10122,1.1014452 0 0 1 -1.10122,-1.10145 1.10122,1.1014452 0 0 1 1.10122,-1.10144 1.10122,1.1014452 0 0 1 1.10122,1.10144 z"
           id="ellipse5773" />
        <path
           transform="matrix(1,0,0,-1,-14.369553,10.668272)"
           style="display:inline;opacity:1;fill:#ffffff;fill-opacity:1;fill-rule:nonzero;stroke:none;stroke-width:25.56771851;stroke-linecap:round;stroke-linejoin:round;stroke-miterlimit:4;stroke-dasharray:none;stroke-opacity:1;filter:url(#filter5683)"
           d="m 324.14225,-490.78741 a 1.202981,1.203227 0 0 1 -1.20298,1.20322 1.202981,1.203227 0 0 1 -1.20298,-1.20322 1.202981,1.203227 0 0 1 1.20298,-1.20323 1.202981,1.203227 0 0 1 1.20298,1.20323 z"
           id="ellipse5775" />
        <path
           transform="matrix(1,0,0,-1,-14.369553,10.668272)"
           style="display:inline;opacity:1;fill:#ffffff;fill-opacity:1;fill-rule:nonzero;stroke:none;stroke-width:25.56771851;stroke-linecap:round;stroke-linejoin:round;stroke-miterlimit:4;stroke-dasharray:none;stroke-opacity:1;filter:url(#filter5683)"
           d="m 316.27275,-484.71576 a 0.89771879,0.89790237 0 0 1 -0.89772,0.8979 0.89771879,0.89790237 0 0 1 -0.89772,-0.8979 0.89771879,0.89790237 0 0 1 0.89772,-0.8979 0.89771879,0.89790237 0 0 1 0.89772,0.8979 z"
           id="ellipse5777" />
        <path
           transform="matrix(1,0,0,-1,-14.369553,10.668272)"
           style="display:inline;opacity:1;fill:#ffffff;fill-opacity:1;fill-rule:nonzero;stroke:none;stroke-width:25.56771851;stroke-linecap:round;stroke-linejoin:round;stroke-miterlimit:4;stroke-dasharray:none;stroke-opacity:1;filter:url(#filter5683)"
           d="m 315.1873,-489.73596 a 0.89771879,0.89790237 0 0 1 -0.89772,0.8979 0.89771879,0.89790237 0 0 1 -0.89772,-0.8979 0.89771879,0.89790237 0 0 1 0.89772,-0.8979 0.89771879,0.89790237 0 0 1 0.89772,0.8979 z"
           id="ellipse5779" />
        <path
           transform="matrix(1,0,0,-1,-14.369553,10.668272)"
           style="display:inline;opacity:1;fill:#ffffff;fill-opacity:1;fill-rule:nonzero;stroke:none;stroke-width:25.56771851;stroke-linecap:round;stroke-linejoin:round;stroke-miterlimit:4;stroke-dasharray:none;stroke-opacity:1;filter:url(#filter5683)"
           d="m 311.93095,-511.24146 a 0.89771879,0.89790237 0 0 1 -0.89772,0.89791 0.89771879,0.89790237 0 0 1 -0.89772,-0.89791 0.89771879,0.89790237 0 0 1 0.89772,-0.8979 0.89771879,0.89790237 0 0 1 0.89772,0.8979 z"
           id="ellipse5781" />
        <path
           transform="matrix(1,0,0,-1,-14.369553,10.668272)"
           style="display:inline;opacity:1;fill:#ffffff;fill-opacity:1;fill-rule:nonzero;stroke:none;stroke-width:25.56771851;stroke-linecap:round;stroke-linejoin:round;stroke-miterlimit:4;stroke-dasharray:none;stroke-opacity:1;filter:url(#filter5683)"
           d="m 287.03338,-489.26096 a 1.4404234,1.4407178 0 0 1 -1.44042,1.44072 1.4404234,1.4407178 0 0 1 -1.44043,-1.44072 1.4404234,1.4407178 0 0 1 1.44043,-1.44071 1.4404234,1.4407178 0 0 1 1.44042,1.44071 z"
           id="ellipse5783" />
        <path
           transform="matrix(1,0,0,-1,-14.369553,10.668272)"
           style="display:inline;opacity:1;fill:#ffffff;fill-opacity:1;fill-rule:nonzero;stroke:none;stroke-width:25.56771851;stroke-linecap:round;stroke-linejoin:round;stroke-miterlimit:4;stroke-dasharray:none;stroke-opacity:1;filter:url(#filter5683)"
           d="m 305.28253,-482.74826 a 1.4404234,1.4407178 0 0 1 -1.44043,1.44072 1.4404234,1.4407178 0 0 1 -1.44042,-1.44072 1.4404234,1.4407178 0 0 1 1.44042,-1.44072 1.4404234,1.4407178 0 0 1 1.44043,1.44072 z"
           id="ellipse5785" />
        <path
           transform="matrix(1,0,0,-1,-14.369553,10.668272)"
           style="display:inline;opacity:1;fill:#ffffff;fill-opacity:1;fill-rule:nonzero;stroke:none;stroke-width:25.56771851;stroke-linecap:round;stroke-linejoin:round;stroke-miterlimit:4;stroke-dasharray:none;stroke-opacity:1;filter:url(#filter5683)"
           d="m 319.52912,-517.07544 a 2.1866846,2.1871319 0 0 1 -2.18668,2.18713 2.1866846,2.1871319 0 0 1 -2.18669,-2.18713 2.1866846,2.1871319 0 0 1 2.18669,-2.18713 2.1866846,2.1871319 0 0 1 2.18668,2.18713 z"
           id="ellipse5787" />
        <path
           transform="matrix(1,0,0,-1,-14.369553,10.668272)"
           style="display:inline;opacity:1;fill:#ffffff;fill-opacity:1;fill-rule:nonzero;stroke:none;stroke-width:25.56771851;stroke-linecap:round;stroke-linejoin:round;stroke-miterlimit:4;stroke-dasharray:none;stroke-opacity:1;filter:url(#filter5683)"
           d="m 305.89314,-523.52063 a 0.89771879,0.89790237 0 0 1 -0.89772,0.8979 0.89771879,0.89790237 0 0 1 -0.89772,-0.8979 0.89771879,0.89790237 0 0 1 0.89772,-0.8979 0.89771879,0.89790237 0 0 1 0.89772,0.8979 z"
           id="ellipse5789" />
        <path
           transform="matrix(1,0,0,-1,-14.369553,10.668272)"
           style="display:inline;opacity:1;fill:#ffffff;fill-opacity:1;fill-rule:nonzero;stroke:none;stroke-width:25.56771851;stroke-linecap:round;stroke-linejoin:round;stroke-miterlimit:4;stroke-dasharray:none;stroke-opacity:1;filter:url(#filter5683)"
           d="m 329.97658,-549.70709 a 0.89771879,0.89790237 0 0 1 -0.89772,0.8979 0.89771879,0.89790237 0 0 1 -0.89772,-0.8979 0.89771879,0.89790237 0 0 1 0.89772,-0.8979 0.89771879,0.89790237 0 0 1 0.89772,0.8979 z"
           id="ellipse5815" />
        <path
           transform="matrix(1,0,0,-1,-14.369553,10.668272)"
           style="display:inline;opacity:1;fill:#ffffff;fill-opacity:1;fill-rule:nonzero;stroke:none;stroke-width:25.56771851;stroke-linecap:round;stroke-linejoin:round;stroke-miterlimit:4;stroke-dasharray:none;stroke-opacity:1;filter:url(#filter5683)"
           d="m 318.85056,-555.16827 a 1.3385929,1.3388667 0 0 1 -1.3386,1.33886 1.3385929,1.3388667 0 0 1 -1.33859,-1.33886 1.3385929,1.3388667 0 0 1 1.33859,-1.33887 1.3385929,1.3388667 0 0 1 1.3386,1.33887 z"
           id="ellipse5817" />
        <path
           transform="matrix(1,0,0,-1,-14.369553,10.668272)"
           style="display:inline;opacity:1;fill:#ffffff;fill-opacity:1;fill-rule:nonzero;stroke:none;stroke-width:25.56771851;stroke-linecap:round;stroke-linejoin:round;stroke-miterlimit:4;stroke-dasharray:none;stroke-opacity:1;filter:url(#filter5683)"
           d="m 331.33339,-480.57748 a 0.89771879,0.89790237 0 0 1 -0.89772,0.8979 0.89771879,0.89790237 0 0 1 -0.89772,-0.8979 0.89771879,0.89790237 0 0 1 0.89772,-0.89791 0.89771879,0.89790237 0 0 1 0.89772,0.89791 z"
           id="ellipse5819" />
        <path
           transform="matrix(1,0,0,-1,-14.369553,10.668272)"
           style="display:inline;opacity:1;fill:#ffffff;fill-opacity:1;fill-rule:nonzero;stroke:none;stroke-width:25.56771851;stroke-linecap:round;stroke-linejoin:round;stroke-miterlimit:4;stroke-dasharray:none;stroke-opacity:1;filter:url(#filter5683)"
           d="m 377.19349,-482.64651 a 1.542122,1.5424372 0 0 1 -1.54212,1.54243 1.542122,1.5424372 0 0 1 -1.54212,-1.54243 1.542122,1.5424372 0 0 1 1.54212,-1.54244 1.542122,1.5424372 0 0 1 1.54212,1.54244 z"
           id="ellipse5821" />
        <path
           transform="matrix(1,0,0,-1,-14.369553,10.668272)"
           style="display:inline;opacity:1;fill:#ffffff;fill-opacity:1;fill-rule:nonzero;stroke:none;stroke-width:25.56771851;stroke-linecap:round;stroke-linejoin:round;stroke-miterlimit:4;stroke-dasharray:none;stroke-opacity:1;filter:url(#filter5683)"
           d="m 396.18904,-498.08032 a 0.89771879,0.89790237 0 0 1 -0.89772,0.8979 0.89771879,0.89790237 0 0 1 -0.89772,-0.8979 0.89771879,0.89790237 0 0 1 0.89772,-0.8979 0.89771879,0.89790237 0 0 1 0.89772,0.8979 z"
           id="ellipse5823" />
        <path
           transform="matrix(1,0,0,-1,-14.369553,10.668272)"
           style="display:inline;opacity:1;fill:#ffffff;fill-opacity:1;fill-rule:nonzero;stroke:none;stroke-width:25.56771851;stroke-linecap:round;stroke-linejoin:round;stroke-miterlimit:4;stroke-dasharray:none;stroke-opacity:1;filter:url(#filter5683)"
           d="m 362.06514,-583.05054 a 2.3562443,2.3567264 0 0 1 -2.35625,2.35673 2.3562443,2.3567264 0 0 1 -2.35624,-2.35673 2.3562443,2.3567264 0 0 1 2.35624,-2.35672 2.3562443,2.3567264 0 0 1 2.35625,2.35672 z"
           id="ellipse5825" />
        <path
           transform="matrix(1,0,0,-1,-14.369553,10.668272)"
           style="display:inline;opacity:1;fill:#ffffff;fill-opacity:1;fill-rule:nonzero;stroke:none;stroke-width:25.56771851;stroke-linecap:round;stroke-linejoin:round;stroke-miterlimit:4;stroke-dasharray:none;stroke-opacity:1;filter:url(#filter5683)"
           d="m 379.56804,-585.42505 a 1.813519,1.8138901 0 0 1 -1.81352,1.81389 1.813519,1.8138901 0 0 1 -1.81352,-1.81389 1.813519,1.8138901 0 0 1 1.81352,-1.81389 1.813519,1.8138901 0 0 1 1.81352,1.81389 z"
           id="ellipse5827" />
        <path
           transform="matrix(1,0,0,-1,-14.369553,10.668272)"
           style="display:inline;opacity:1;fill:#ffffff;fill-opacity:1;fill-rule:nonzero;stroke:none;stroke-width:25.56771851;stroke-linecap:round;stroke-linejoin:round;stroke-miterlimit:4;stroke-dasharray:none;stroke-opacity:1;filter:url(#filter5683)"
           d="m 367.89952,-549.0285 a 1.5082847,1.5085932 0 0 1 -1.50828,1.50859 1.5082847,1.5085932 0 0 1 -1.50829,-1.50859 1.5082847,1.5085932 0 0 1 1.50829,-1.5086 1.5082847,1.5085932 0 0 1 1.50828,1.5086 z"
           id="ellipse5829" />
        <path
           transform="matrix(1,0,0,-1,-14.369553,10.668272)"
           style="display:inline;opacity:1;fill:#ffffff;fill-opacity:1;fill-rule:nonzero;stroke:none;stroke-width:25.56771851;stroke-linecap:round;stroke-linejoin:round;stroke-miterlimit:4;stroke-dasharray:none;stroke-opacity:1;filter:url(#filter5683)"
           d="m 344.29098,-541.73578 a 1.0673205,1.0675387 0 0 1 -1.06732,1.06754 1.0673205,1.0675387 0 0 1 -1.06732,-1.06754 1.0673205,1.0675387 0 0 1 1.06732,-1.06754 1.0673205,1.0675387 0 0 1 1.06732,1.06754 z"
           id="ellipse5831" />
        <path
           transform="matrix(1,0,0,-1,-14.369553,10.668272)"
           style="display:inline;opacity:1;fill:#ffffff;fill-opacity:1;fill-rule:nonzero;stroke:none;stroke-width:25.56771851;stroke-linecap:round;stroke-linejoin:round;stroke-miterlimit:4;stroke-dasharray:none;stroke-opacity:1;filter:url(#filter5683)"
           d="m 329.63539,-554.03479 a 0.89771879,0.89790237 0 0 1 -0.89772,0.8979 0.89771879,0.89790237 0 0 1 -0.89772,-0.8979 0.89771879,0.89790237 0 0 1 0.89772,-0.8979 0.89771879,0.89790237 0 0 1 0.89772,0.8979 z"
           id="ellipse5833" />
        <path
           transform="matrix(1,0,0,-1,-14.369553,10.668272)"
           style="display:inline;opacity:1;fill:#ffffff;fill-opacity:1;fill-rule:nonzero;stroke:none;stroke-width:25.56771851;stroke-linecap:round;stroke-linejoin:round;stroke-miterlimit:4;stroke-dasharray:none;stroke-opacity:1;filter:url(#filter5683)"
           d="m 420.07228,-512.21118 a 0.89771879,0.89790237 0 0 1 -0.89772,0.8979 0.89771879,0.89790237 0 0 1 -0.89772,-0.8979 0.89771879,0.89790237 0 0 1 0.89772,-0.8979 0.89771879,0.89790237 0 0 1 0.89772,0.8979 z"
           id="ellipse5835" />
        <path
           style="display:inline;opacity:1;fill:#ffffff;fill-opacity:1;fill-rule:nonzero;stroke:none;stroke-width:20;stroke-linecap:round;stroke-linejoin:round;stroke-miterlimit:4;stroke-dasharray:none;stroke-opacity:1;filter:url(#filter5683)"
           d="m 379.42102,546.7608 h 1.96679 v 1.9668 h -1.96679 z"
           id="rect5839" />
        <path
           style="display:inline;opacity:1;fill:#ffffff;fill-opacity:1;fill-rule:nonzero;stroke:none;stroke-width:20;stroke-linecap:round;stroke-linejoin:round;stroke-miterlimit:4;stroke-dasharray:none;stroke-opacity:1;filter:url(#filter5683)"
           d="m 309.1441,533.32904 h 1.9668 v 1.96679 h -1.9668 z"
           id="rect5841" />
        <path
           transform="matrix(1,0,0,-1,-14.369553,10.668272)"
           style="display:inline;opacity:1;fill:#ffffff;fill-opacity:1;fill-rule:nonzero;stroke:none;stroke-width:25.56771851;stroke-linecap:round;stroke-linejoin:round;stroke-miterlimit:4;stroke-dasharray:none;stroke-opacity:1;filter:url(#filter5683)"
           d="m 310.50505,-496.71475 a 1.2485802,1.2488354 0 0 1 -1.24858,1.24883 1.2485802,1.2488354 0 0 1 -1.24858,-1.24883 1.2485802,1.2488354 0 0 1 1.24858,-1.24884 1.2485802,1.2488354 0 0 1 1.24858,1.24884 z"
           id="ellipse5849" />
        <path
           style="display:inline;fill:none;fill-rule:evenodd;stroke:#ffffff;stroke-width:0.60000002;stroke-linecap:butt;stroke-linejoin:round;stroke-miterlimit:4;stroke-dasharray:none;stroke-opacity:1;filter:url(#filter5683)"
           d="m 261.07759,516.58731 8.25094,5.08488 -11.99265,5.37271 v 0"
           id="path5851"
           inkscape:connector-curvature="0" />
        <path
           style="display:inline;fill:none;fill-rule:evenodd;stroke:#ffffff;stroke-width:0.60000002;stroke-linecap:butt;stroke-linejoin:round;stroke-miterlimit:4;stroke-dasharray:none;stroke-opacity:1;filter:url(#filter5683)"
           d="m 269.13665,521.76813 -7.38747,9.40224 17.84506,7.86717 z"
           id="path5857"
           inkscape:connector-curvature="0" />
        <path
           style="display:inline;fill:none;fill-rule:evenodd;stroke:#ffffff;stroke-width:0.60000002;stroke-linecap:round;stroke-linejoin:round;stroke-miterlimit:4;stroke-dasharray:none;stroke-opacity:1;filter:url(#filter5683)"
           d="m 279.59424,538.9416 11.12918,-4.79706 -21.58677,-12.37641 27.43918,0.0959 -5.75647,12.18453 12.37641,-6.42806 4.50924,26.86354 -16.98159,-20.33954 12.47235,31.94842 z"
           id="path5859"
           inkscape:connector-curvature="0" />
        <path
           style="display:inline;fill:none;fill-rule:evenodd;stroke:#ffffff;stroke-width:0.60000002;stroke-linecap:butt;stroke-linejoin:miter;stroke-miterlimit:4;stroke-dasharray:none;stroke-opacity:1;filter:url(#filter5683)"
           d="m 258.10341,537.21466 21.49083,1.91883 12.95206,37.70488 10.55353,-11.03323 10.16976,7.09964"
           id="path5861"
           inkscape:connector-curvature="0" />
        <path
           style="display:inline;fill:none;fill-rule:evenodd;stroke:#ffffff;stroke-width:0.60000002;stroke-linecap:butt;stroke-linejoin:round;stroke-miterlimit:4;stroke-dasharray:none;stroke-opacity:1;filter:url(#filter5683)"
           d="m 314.22901,564.36602 -11.32106,1.631 11.80076,-5.66053 -6.90776,-5.66053 -4.893,11.22512"
           id="path5863"
           inkscape:connector-curvature="0" />
        <path
           style="display:inline;fill:none;fill-rule:evenodd;stroke:#ffffff;stroke-width:0.60000002;stroke-linecap:butt;stroke-linejoin:round;stroke-miterlimit:4;stroke-dasharray:none;stroke-opacity:1;filter:url(#filter5683)"
           d="m 314.32495,564.74978 0.38376,-4.41329 -11.80076,-32.81189 26.00006,24.94471 -14.1993,7.96312 21.87459,-1.82288 z"
           id="path5865"
           inkscape:connector-curvature="0" />
        <path
           style="display:inline;fill:none;fill-rule:evenodd;stroke:#ffffff;stroke-width:0.60000002;stroke-linecap:butt;stroke-linejoin:round;stroke-miterlimit:4;stroke-dasharray:none;stroke-opacity:1;filter:url(#filter5683)"
           d="m 261.07759,516.68325 33.96318,-9.21035 -25.90412,14.10335"
           id="path5867"
           inkscape:connector-curvature="0" />
        <path
           style="display:inline;fill:none;fill-rule:evenodd;stroke:#ffffff;stroke-width:0.60000002;stroke-linecap:round;stroke-linejoin:round;stroke-miterlimit:4;stroke-dasharray:none;stroke-opacity:1;filter:url(#filter5683)"
           d="m 299.93377,500.46919 -5.18082,7.00371 2.01476,14.48711 6.14024,5.85242 -8.155,-20.33953 13.91147,-5.85242 z"
           id="path5869"
           inkscape:connector-curvature="0" />
        <path
           style="display:inline;fill:none;fill-rule:evenodd;stroke:#ffffff;stroke-width:0.60000002;stroke-linecap:round;stroke-linejoin:round;stroke-miterlimit:4;stroke-dasharray:none;stroke-opacity:1;filter:url(#filter5683)"
           d="m 303.00389,527.81243 5.56459,-26.38383 8.82659,2.97418 -1.34318,-7.57936"
           id="path5871"
           inkscape:connector-curvature="0" />
        <path
           style="display:inline;fill:none;fill-rule:evenodd;stroke:#ffffff;stroke-width:0.60000002;stroke-linecap:butt;stroke-linejoin:round;stroke-miterlimit:4;stroke-dasharray:none;stroke-opacity:1;filter:url(#filter5683)"
           d="m 317.49101,504.59466 -14.77495,23.50559 22.16242,-11.12918 19.95576,-8.34688 -6.33211,5.75647 -13.71959,2.59041 11.22512,1.631 2.49447,-4.22141 3.45388,2.49447 -5.94835,1.72694 -2.20665,5.56459 -9.01847,-7.09965 z"
           id="path5873"
           inkscape:connector-curvature="0" />
        <path
           style="display:inline;fill:none;fill-rule:evenodd;stroke:#ffffff;stroke-width:0.60000002;stroke-linecap:round;stroke-linejoin:round;stroke-miterlimit:4;stroke-dasharray:none;stroke-opacity:1;filter:url(#filter5683)"
           d="m 369.58707,523.30319 -15.63841,5.46865 -20.05171,-4.70112 -30.989,3.64577 30.02959,2.49447 1.05535,-5.94836"
           id="path5875"
           inkscape:connector-curvature="0" />
        <path
           style="display:inline;fill:none;fill-rule:evenodd;stroke:#ffffff;stroke-width:0.60000002;stroke-linecap:round;stroke-linejoin:round;stroke-miterlimit:4;stroke-dasharray:none;stroke-opacity:1;filter:url(#filter5683)"
           d="m 303.00389,527.81243 63.22524,17.84506 -33.19565,-15.35059 21.10706,-1.53506 12.08859,16.98159 -14.29524,14.29523 z"
           id="path5877"
           inkscape:connector-curvature="0" />
        <path
           style="display:inline;fill:none;fill-rule:evenodd;stroke:#ffffff;stroke-width:0.60000002;stroke-linecap:round;stroke-linejoin:round;stroke-miterlimit:4;stroke-dasharray:none;stroke-opacity:1;filter:url(#filter5683)"
           d="m 405.56501,551.79772 -1.15129,-3.07012 -3.64576,-1.15129 -12.08859,-10.74541 4.98894,-2.49447"
           id="path5879"
           inkscape:connector-curvature="0" />
        <path
           style="display:inline;fill:none;fill-rule:evenodd;stroke:#ffffff;stroke-width:0.60000002;stroke-linecap:round;stroke-linejoin:round;stroke-miterlimit:4;stroke-dasharray:none;stroke-opacity:1;filter:url(#filter5683)"
           d="m 369.68301,523.20725 13.23988,27.43918 -3.7417,-18.03694 9.49818,4.31735 -5.85242,13.62365 17.94101,-2.97418"
           id="path5881"
           inkscape:connector-curvature="0" />
        <path
           style="display:inline;fill:none;fill-rule:evenodd;stroke:#ffffff;stroke-width:0.60000002;stroke-linecap:round;stroke-linejoin:round;stroke-miterlimit:4;stroke-dasharray:none;stroke-opacity:1;filter:url(#filter5683)"
           d="m 354.14054,528.77184 28.68641,21.77865 -16.50188,-4.79706 8.34688,12.56829 8.25094,-7.86717 -7.48341,20.14764 -0.76753,-12.28047 -22.73806,1.43912 6.0443,15.06277 16.69376,-16.59783"
           id="path5883"
           inkscape:connector-curvature="0" />
        <path
           style="display:inline;fill:none;fill-rule:evenodd;stroke:#ffffff;stroke-width:0.60000002;stroke-linecap:round;stroke-linejoin:round;stroke-miterlimit:4;stroke-dasharray:none;stroke-opacity:1;filter:url(#filter5683)"
           d="m 361.33613,599.38455 -4.70112,-14.77494 1.24724,-10.07383 -21.20301,-16.02217 -7.96311,-6.14024 23.40964,7.57935"
           id="path5885"
           inkscape:connector-curvature="0" />
        <path
           style="display:inline;fill:none;fill-rule:evenodd;stroke:#ffffff;stroke-width:0.60000002;stroke-linecap:round;stroke-linejoin:round;stroke-miterlimit:4;stroke-dasharray:none;stroke-opacity:1;filter:url(#filter5683)"
           d="m 264.72336,599.09673 -2.4465,-4.55721 16.16609,-11.94468 6.61994,-1.48709 2.20664,-7.62732 5.27677,3.262"
           id="path5889"
           inkscape:connector-curvature="0" />
        <path
           style="display:inline;fill:none;fill-rule:evenodd;stroke:#ffffff;stroke-width:0.60000002;stroke-linecap:round;stroke-linejoin:round;stroke-miterlimit:4;stroke-dasharray:none;stroke-opacity:1;filter:url(#filter5683)"
           d="m 316.15016,496.80229 -0.13569,-5.63078 1.01761,-7.73383"
           id="path5891"
           inkscape:connector-curvature="0" />
        <path
           style="display:inline;opacity:1;fill:#ffffff;fill-opacity:1;fill-rule:nonzero;stroke:none;stroke-width:21.94898987;stroke-linecap:round;stroke-linejoin:round;stroke-miterlimit:4;stroke-dasharray:none;stroke-opacity:1;filter:url(#filter5683)"
           d="m 290.62588,532.6163 a 1.5724885,1.5728107 0 0 0 -1.57261,1.57259 1.5724885,1.5728107 0 0 0 1.57261,1.5726 1.5724885,1.5728107 0 0 0 1.5726,-1.5726 1.5724885,1.5728107 0 0 0 -1.5726,-1.57259 z m -0.0793,0.47031 a 1.1033147,1.1035408 0 0 1 0.0793,0 1.1033147,1.1035408 0 0 1 1.10229,1.10228 1.1033147,1.1035408 0 0 1 -1.10229,1.10229 1.1033147,1.1035408 0 0 1 -1.1023,-1.10229 1.1033147,1.1035408 0 0 1 1.02293,-1.10228 z"
           id="ellipse5895"
           inkscape:connector-curvature="0" />
        <path
           inkscape:connector-curvature="0"
           id="path5898"
           d="m 296.66369,520.33713 a 1.5724885,1.5728107 0 0 0 -1.57261,1.57259 1.5724885,1.5728107 0 0 0 1.57261,1.5726 1.5724885,1.5728107 0 0 0 1.5726,-1.5726 1.5724885,1.5728107 0 0 0 -1.5726,-1.57259 z m -0.0793,0.47031 a 1.1033147,1.1035408 0 0 1 0.0793,0 1.1033147,1.1035408 0 0 1 1.10229,1.10228 1.1033147,1.1035408 0 0 1 -1.10229,1.10229 1.1033147,1.1035408 0 0 1 -1.1023,-1.10229 1.1033147,1.1035408 0 0 1 1.02293,-1.10228 z"
           style="display:inline;opacity:1;fill:#ffffff;fill-opacity:1;fill-rule:nonzero;stroke:none;stroke-width:21.94898987;stroke-linecap:round;stroke-linejoin:round;stroke-miterlimit:4;stroke-dasharray:none;stroke-opacity:1;filter:url(#filter5683)" />
        <path
           style="display:inline;opacity:1;fill:#ffffff;fill-opacity:1;fill-rule:nonzero;stroke:none;stroke-width:21.94898987;stroke-linecap:round;stroke-linejoin:round;stroke-miterlimit:4;stroke-dasharray:none;stroke-opacity:1;filter:url(#filter5683)"
           d="m 324.74972,515.38474 a 1.5724885,1.5728107 0 0 0 -1.57261,1.57259 1.5724885,1.5728107 0 0 0 1.57261,1.5726 1.5724885,1.5728107 0 0 0 1.5726,-1.5726 1.5724885,1.5728107 0 0 0 -1.5726,-1.57259 z m -0.0793,0.47031 a 1.1033147,1.1035408 0 0 1 0.0793,0 1.1033147,1.1035408 0 0 1 1.10229,1.10228 1.1033147,1.1035408 0 0 1 -1.10229,1.10229 1.1033147,1.1035408 0 0 1 -1.1023,-1.10229 1.1033147,1.1035408 0 0 1 1.02293,-1.10228 z"
           id="path5900"
           inkscape:connector-curvature="0" />
        <path
           inkscape:connector-curvature="0"
           id="path5902"
           d="m 336.01125,516.94507 a 1.5724885,1.5728107 0 0 0 -1.57261,1.57259 1.5724885,1.5728107 0 0 0 1.57261,1.5726 1.5724885,1.5728107 0 0 0 1.5726,-1.5726 1.5724885,1.5728107 0 0 0 -1.5726,-1.57259 z m -0.0793,0.47031 a 1.1033147,1.1035408 0 0 1 0.0793,0 1.1033147,1.1035408 0 0 1 1.10229,1.10228 1.1033147,1.1035408 0 0 1 -1.10229,1.10229 1.1033147,1.1035408 0 0 1 -1.1023,-1.10229 1.1033147,1.1035408 0 0 1 1.02293,-1.10228 z"
           style="display:inline;opacity:1;fill:#ffffff;fill-opacity:1;fill-rule:nonzero;stroke:none;stroke-width:21.94898987;stroke-linecap:round;stroke-linejoin:round;stroke-miterlimit:4;stroke-dasharray:none;stroke-opacity:1;filter:url(#filter5683)" />
        <path
           style="display:inline;opacity:1;fill:#ffffff;fill-opacity:1;fill-rule:nonzero;stroke:none;stroke-width:21.94898987;stroke-linecap:round;stroke-linejoin:round;stroke-miterlimit:4;stroke-dasharray:none;stroke-opacity:1;filter:url(#filter5683)"
           d="m 338.3857,512.67111 a 1.5724885,1.5728107 0 0 0 -1.57261,1.57259 1.5724885,1.5728107 0 0 0 1.57261,1.5726 1.5724885,1.5728107 0 0 0 1.5726,-1.5726 1.5724885,1.5728107 0 0 0 -1.5726,-1.57259 z m -0.0793,0.47031 a 1.1033147,1.1035408 0 0 1 0.0793,0 1.1033147,1.1035408 0 0 1 1.10229,1.10228 1.1033147,1.1035408 0 0 1 -1.10229,1.10229 1.1033147,1.1035408 0 0 1 -1.1023,-1.10229 1.1033147,1.1035408 0 0 1 1.02293,-1.10228 z"
           id="path5904"
           inkscape:connector-curvature="0" />
        <path
           inkscape:connector-curvature="0"
           id="path5906"
           d="m 333.9082,522.00836 a 2.0041918,2.0046025 0 0 0 -2.00435,2.00433 2.0041918,2.0046025 0 0 0 2.00435,2.00433 2.0041918,2.0046025 0 0 0 2.00433,-2.00433 2.0041918,2.0046025 0 0 0 -2.00433,-2.00433 z m -0.10107,0.59943 a 1.4062134,1.4065015 0 0 1 0.10107,0 1.4062134,1.4065015 0 0 1 1.4049,1.4049 1.4062134,1.4065015 0 0 1 -1.4049,1.4049 1.4062134,1.4065015 0 0 1 -1.40492,-1.4049 1.4062134,1.4065015 0 0 1 1.30376,-1.4049 z"
           style="display:inline;opacity:1;fill:#ffffff;fill-opacity:1;fill-rule:nonzero;stroke:none;stroke-width:21.94898987;stroke-linecap:round;stroke-linejoin:round;stroke-miterlimit:4;stroke-dasharray:none;stroke-opacity:1;filter:url(#filter5683)" />
        <path
           style="display:inline;opacity:1;fill:#ffffff;fill-opacity:1;fill-rule:nonzero;stroke:none;stroke-width:21.94898987;stroke-linecap:round;stroke-linejoin:round;stroke-miterlimit:4;stroke-dasharray:none;stroke-opacity:1;filter:url(#filter5683)"
           d="m 302.97291,523.86854 a 3.874905,3.8756992 0 0 0 -3.87521,3.87516 3.874905,3.8756992 0 0 0 3.87521,3.87518 3.874905,3.8756992 0 0 0 3.87517,-3.87518 3.874905,3.8756992 0 0 0 -3.87517,-3.87516 z m -0.19541,1.15894 a 2.7187735,2.7193304 0 0 1 0.19541,0 2.7187735,2.7193304 0 0 1 2.71624,2.71622 2.7187735,2.7193304 0 0 1 -2.71624,2.71624 2.7187735,2.7193304 0 0 1 -2.71627,-2.71624 2.7187735,2.7193304 0 0 1 2.52069,-2.71622 z"
           id="path5908"
           inkscape:connector-curvature="0" />
        <path
           inkscape:connector-curvature="0"
           id="path5910"
           d="m 307.78957,553.10416 a 1.5724885,1.5728107 0 0 0 -1.57261,1.57259 1.5724885,1.5728107 0 0 0 1.57261,1.5726 1.5724885,1.5728107 0 0 0 1.5726,-1.5726 1.5724885,1.5728107 0 0 0 -1.5726,-1.57259 z m -0.0793,0.47031 a 1.1033147,1.1035408 0 0 1 0.0793,0 1.1033147,1.1035408 0 0 1 1.10229,1.10228 1.1033147,1.1035408 0 0 1 -1.10229,1.10229 1.1033147,1.1035408 0 0 1 -1.1023,-1.10229 1.1033147,1.1035408 0 0 1 1.02293,-1.10228 z"
           style="display:inline;opacity:1;fill:#ffffff;fill-opacity:1;fill-rule:nonzero;stroke:none;stroke-width:21.94898987;stroke-linecap:round;stroke-linejoin:round;stroke-miterlimit:4;stroke-dasharray:none;stroke-opacity:1;filter:url(#filter5683)" />
        <path
           style="display:inline;opacity:1;fill:#ffffff;fill-opacity:1;fill-rule:nonzero;stroke:none;stroke-width:21.94898987;stroke-linecap:round;stroke-linejoin:round;stroke-miterlimit:4;stroke-dasharray:none;stroke-opacity:1;filter:url(#filter5683)"
           d="m 314.70931,558.80277 a 1.5724885,1.5728107 0 0 0 -1.57261,1.57259 1.5724885,1.5728107 0 0 0 1.57261,1.5726 1.5724885,1.5728107 0 0 0 1.5726,-1.5726 1.5724885,1.5728107 0 0 0 -1.5726,-1.57259 z m -0.0793,0.47031 a 1.1033147,1.1035408 0 0 1 0.0793,0 1.1033147,1.1035408 0 0 1 1.10229,1.10228 1.1033147,1.1035408 0 0 1 -1.10229,1.10229 1.1033147,1.1035408 0 0 1 -1.1023,-1.10229 1.1033147,1.1035408 0 0 1 1.02293,-1.10228 z"
           id="path5912"
           inkscape:connector-curvature="0" />
        <path
           inkscape:connector-curvature="0"
           id="path5914"
           d="m 336.62185,557.03891 a 1.5724885,1.5728107 0 0 0 -1.57261,1.57259 1.5724885,1.5728107 0 0 0 1.57261,1.5726 1.5724885,1.5728107 0 0 0 1.5726,-1.5726 1.5724885,1.5728107 0 0 0 -1.5726,-1.57259 z m -0.0793,0.47031 a 1.1033147,1.1035408 0 0 1 0.0793,0 1.1033147,1.1035408 0 0 1 1.10229,1.10228 1.1033147,1.1035408 0 0 1 -1.10229,1.10229 1.1033147,1.1035408 0 0 1 -1.1023,-1.10229 1.1033147,1.1035408 0 0 1 1.02293,-1.10228 z"
           style="display:inline;opacity:1;fill:#ffffff;fill-opacity:1;fill-rule:nonzero;stroke:none;stroke-width:21.94898987;stroke-linecap:round;stroke-linejoin:round;stroke-miterlimit:4;stroke-dasharray:none;stroke-opacity:1;filter:url(#filter5683)" />
        <path
           style="display:inline;opacity:1;fill:#ffffff;fill-opacity:1;fill-rule:nonzero;stroke:none;stroke-width:21.94898987;stroke-linecap:round;stroke-linejoin:round;stroke-miterlimit:4;stroke-dasharray:none;stroke-opacity:1;filter:url(#filter5683)"
           d="m 303.14242,563.64033 a 2.19606,2.19651 0 0 0 -2.19623,2.19621 2.19606,2.19651 0 0 0 2.19623,2.19621 2.19606,2.19651 0 0 0 2.19621,-2.19621 2.19606,2.19651 0 0 0 -2.19621,-2.19621 z m -0.11074,0.65681 a 1.5408351,1.5411507 0 0 1 0.11074,0 1.5408351,1.5411507 0 0 1 1.5394,1.5394 1.5408351,1.5411507 0 0 1 -1.5394,1.53939 1.5408351,1.5411507 0 0 1 -1.53941,-1.53939 1.5408351,1.5411507 0 0 1 1.42857,-1.5394 z"
           id="path5916"
           inkscape:connector-curvature="0" />
        <path
           style="display:inline;opacity:1;fill:#ffffff;fill-opacity:1;fill-rule:nonzero;stroke:none;stroke-width:21.94898987;stroke-linecap:round;stroke-linejoin:round;stroke-miterlimit:4;stroke-dasharray:none;stroke-opacity:1;filter:url(#filter5683)"
           d="m 382.88918,548.96585 a 1.5724885,1.5728107 0 0 0 -1.57261,1.57259 1.5724885,1.5728107 0 0 0 1.57261,1.5726 1.5724885,1.5728107 0 0 0 1.5726,-1.5726 1.5724885,1.5728107 0 0 0 -1.5726,-1.57259 z m -0.0793,0.47031 a 1.1033147,1.1035408 0 0 1 0.0793,0 1.1033147,1.1035408 0 0 1 1.10229,1.10228 1.1033147,1.1035408 0 0 1 -1.10229,1.10229 1.1033147,1.1035408 0 0 1 -1.1023,-1.10229 1.1033147,1.1035408 0 0 1 1.02293,-1.10228 z"
           id="path5918"
           inkscape:connector-curvature="0" />
        <path
           inkscape:connector-curvature="0"
           id="path5920"
           d="m 372.37389,575.22019 a 1.5724885,1.5728107 0 0 0 -1.57261,1.57259 1.5724885,1.5728107 0 0 0 1.57261,1.5726 1.5724885,1.5728107 0 0 0 1.5726,-1.5726 1.5724885,1.5728107 0 0 0 -1.5726,-1.57259 z m -0.0793,0.47031 a 1.1033147,1.1035408 0 0 1 0.0793,0 1.1033147,1.1035408 0 0 1 1.10229,1.10228 1.1033147,1.1035408 0 0 1 -1.10229,1.10229 1.1033147,1.1035408 0 0 1 -1.1023,-1.10229 1.1033147,1.1035408 0 0 1 1.02293,-1.10228 z"
           style="display:inline;opacity:1;fill:#ffffff;fill-opacity:1;fill-rule:nonzero;stroke:none;stroke-width:21.94898987;stroke-linecap:round;stroke-linejoin:round;stroke-miterlimit:4;stroke-dasharray:none;stroke-opacity:1;filter:url(#filter5683)" />
        <path
           style="fill:none;fill-rule:evenodd;stroke:#ffffff;stroke-width:0.60000002;stroke-linecap:round;stroke-linejoin:round;stroke-miterlimit:4;stroke-dasharray:none;stroke-opacity:1"
           d="m 261.13138,516.61176 -3.79908,10.44746 4.54533,4.0026 -3.73124,6.24134 34.39522,39.41543 20.82708,-3.86692 0.94977,-8.20872 43.62154,9.90474 5.35942,-3.45988 12.14347,-0.54272 25.37241,-22.99799 -7.12327,-13.16109 -14.65358,-1.83169 -9.36201,-9.29417 -11.6686,-6.1735 -3.93475,11.66859 -12.07564,-11.87212 2.64578,-8.27656 -22.25173,-7.32679 -6.30918,-4.54532 -7.59816,4.81668 -7.53031,-6.30918 -1.01761,5.08805 z"
           id="path5847"
           inkscape:connector-curvature="0" />
        <path
           inkscape:connector-curvature="0"
           id="path6230"
           d="m 257.33592,525.41525 a 1.5724885,1.5728107 0 0 0 -1.57261,1.57259 1.5724885,1.5728107 0 0 0 1.57261,1.5726 1.5724885,1.5728107 0 0 0 1.5726,-1.5726 1.5724885,1.5728107 0 0 0 -1.5726,-1.57259 z m -0.0793,0.47031 a 1.1033147,1.1035408 0 0 1 0.0793,0 1.1033147,1.1035408 0 0 1 1.10229,1.10228 1.1033147,1.1035408 0 0 1 -1.10229,1.10229 1.1033147,1.1035408 0 0 1 -1.1023,-1.10229 1.1033147,1.1035408 0 0 1 1.02293,-1.10228 z"
           style="display:inline;opacity:1;fill:#ffffff;fill-opacity:1;fill-rule:nonzero;stroke:none;stroke-width:21.94898987;stroke-linecap:round;stroke-linejoin:round;stroke-miterlimit:4;stroke-dasharray:none;stroke-opacity:1;filter:url(#filter5683)" />
        <path
           inkscape:connector-curvature="0"
           id="path4181"
           d="m 300.59189,509.47331 c -0.18321,-0.12797 -0.3673,-0.23267 -0.40911,-0.23267 -0.0816,0 -1.05138,-0.8794 -1.05138,-0.95349 0,-0.0244 -0.11039,-0.21572 -0.24531,-0.42501 -0.17408,-0.27006 -0.27717,-0.5699 -0.35507,-1.03281 -0.0604,-0.35876 -0.13326,-0.74207 -0.16197,-0.85179 -0.0376,-0.14381 0.0166,-0.32038 0.19421,-0.63249 0.13553,-0.23813 0.24641,-0.48576 0.24641,-0.55027 0,-0.21548 0.32901,-0.86421 0.55769,-1.09965 0.13118,-0.13504 0.24561,-0.35782 0.27272,-0.53093 0.0716,-0.45742 0.69357,-1.01998 1.19909,-1.08461 0.49096,-0.0628 1.48654,-0.52211 1.77095,-0.8171 0.14845,-0.15396 0.33387,-0.24694 0.563,-0.28229 0.18792,-0.029 0.47149,-0.13755 0.63015,-0.24125 0.54348,-0.35519 1.31448,-0.44714 1.78437,-0.21282 0.21685,0.10814 0.41879,0.11937 1.34319,0.0747 1.21228,-0.0585 1.60927,-0.14415 1.8803,-0.40551 0.21797,-0.21018 0.54045,-0.3394 0.84704,-0.3394 0.12176,0 0.49038,-0.071 0.81916,-0.15789 0.32878,-0.0869 0.79684,-0.20999 1.04014,-0.27367 0.24329,-0.0637 0.63352,-0.20213 0.86716,-0.30765 0.23365,-0.10551 0.56825,-0.22291 0.74359,-0.2609 0.17531,-0.038 0.49661,-0.17913 0.71398,-0.31364 0.21737,-0.13451 0.57043,-0.27203 0.78459,-0.3056 0.21413,-0.0335 0.57031,-0.15123 0.79148,-0.26147 0.22118,-0.11026 0.59132,-0.22396 0.82251,-0.25269 0.2862,-0.0356 0.51435,-0.12424 0.71482,-0.27786 0.16195,-0.12411 0.31662,-0.2268 0.34371,-0.22819 0.63029,-0.0325 1.16594,-0.16385 1.38164,-0.33888 0.13661,-0.11085 0.32704,-0.2168 0.42316,-0.23544 0.0961,-0.0187 0.26762,-0.0525 0.38111,-0.0754 0.1135,-0.0228 0.29447,-0.11598 0.40215,-0.20697 0.2356,-0.19905 0.49952,-0.30415 0.76385,-0.30415 0.11312,0 0.32152,-0.11449 0.49408,-0.27145 0.24083,-0.21904 0.36195,-0.27146 0.62726,-0.27146 0.2375,0 0.45055,-0.0748 0.76741,-0.26947 0.32075,-0.19705 0.53044,-0.27001 0.78023,-0.27146 0.2731,-8.9e-4 0.40211,-0.0545 0.64343,-0.26373 0.16601,-0.14395 0.41696,-0.28581 0.55768,-0.31523 0.14071,-0.0294 0.29833,-0.10286 0.35028,-0.16322 0.13395,-0.15564 0.52622,-0.33279 0.86981,-0.39282 0.16143,-0.0282 0.44146,-0.13384 0.6223,-0.23473 0.18082,-0.1009 0.40531,-0.18345 0.49885,-0.18345 0.0935,0 0.44497,-0.13961 0.78094,-0.31023 0.33598,-0.17063 0.69726,-0.31025 0.80287,-0.31025 0.27949,0 0.59046,-0.12866 1.05616,-0.43697 0.43562,-0.2884 0.54817,-0.50107 0.62346,-1.17805 0.0402,-0.36207 0.37443,-0.89809 0.6484,-1.0401 0.0917,-0.0475 0.61844,-0.10173 1.17057,-0.12046 1.05744,-0.0359 1.16452,-0.0605 1.60187,-0.36755 0.2078,-0.14593 0.37373,-0.19191 0.69252,-0.19191 0.3208,0 0.4927,-0.0482 0.73208,-0.2051 0.17206,-0.11279 0.56618,-0.27376 0.87584,-0.35771 0.30965,-0.0839 0.65348,-0.1986 0.76407,-0.25482 0.2841,-0.14441 0.71527,-0.2682 0.93414,-0.2682 0.10244,0 0.30931,-0.10419 0.4597,-0.23152 0.21134,-0.17894 0.39454,-0.24805 0.8067,-0.30433 0.33402,-0.0456 0.69121,-0.15959 0.95592,-0.30502 0.23245,-0.12771 0.55958,-0.25663 0.72696,-0.28649 0.16738,-0.0298 0.43883,-0.14305 0.60321,-0.25153 0.1644,-0.10849 0.45402,-0.22571 0.64361,-0.26052 0.18959,-0.0348 0.46638,-0.15274 0.61506,-0.26212 0.40029,-0.29441 0.67924,-0.34562 2.10446,-0.38636 1.12952,-0.0323 1.3633,-0.0619 1.83159,-0.23186 0.29524,-0.10716 0.66434,-0.19484 0.82021,-0.19484 0.22945,0 0.30934,-0.0436 0.41962,-0.22886 0.0749,-0.12587 0.28133,-0.30736 0.45873,-0.40332 0.17738,-0.0959 0.38873,-0.23373 0.46966,-0.30617 0.0809,-0.0724 0.30344,-0.15432 0.49446,-0.18194 0.19105,-0.0276 0.52228,-0.16206 0.73608,-0.29874 0.36124,-0.23092 0.4456,-0.25042 1.19268,-0.2757 0.74462,-0.0252 0.82898,-0.0445 1.14341,-0.26231 0.31826,-0.2204 0.39035,-0.23625 1.15367,-0.25374 0.79837,-0.0183 0.81943,-0.0236 1.08348,-0.27035 0.24054,-0.22482 0.33842,-0.25841 0.91718,-0.31467 0.51181,-0.0498 0.70589,-0.10563 0.92398,-0.26604 0.15184,-0.11168 0.41516,-0.22111 0.58515,-0.24317 0.56463,-0.0732 0.64121,-0.10212 0.89758,-0.33837 0.22429,-0.2067 0.31084,-0.23459 0.72782,-0.23459 0.63173,0 0.93113,-0.0645 1.13066,-0.24383 0.0913,-0.082 0.31996,-0.21445 0.50826,-0.29442 0.1883,-0.08 0.44497,-0.25333 0.57037,-0.38527 0.20054,-0.21098 0.27996,-0.23987 0.65939,-0.23987 0.34655,0 0.4733,-0.0374 0.64441,-0.19036 0.11715,-0.1047 0.34523,-0.23117 0.50682,-0.28104 0.1616,-0.0499 0.38664,-0.18613 0.50008,-0.30281 0.14594,-0.15009 0.32236,-0.22836 0.60322,-0.2676 0.25452,-0.0356 0.50375,-0.13711 0.69456,-0.28298 0.2156,-0.1648 0.43372,-0.24546 0.79145,-0.29264 0.40439,-0.0533 0.52729,-0.10556 0.67849,-0.28842 0.16854,-0.20384 0.24167,-0.22734 0.83888,-0.26966 0.59495,-0.0421 0.67813,-0.0687 0.91783,-0.29272 0.18687,-0.17467 0.34007,-0.24634 0.52642,-0.24634 0.30691,0 0.4945,-0.0855 0.76963,-0.35084 0.14212,-0.13705 0.28682,-0.19208 0.505,-0.19208 0.4509,0 0.81851,-0.12311 1.03249,-0.34575 0.17546,-0.18257 0.36017,-0.22996 0.80039,-0.20535 0.0885,0.005 0.30562,-0.0773 0.48257,-0.18268 0.17695,-0.10542 0.41221,-0.23126 0.52279,-0.27965 0.32968,-0.14425 0.82581,-0.38351 1.12601,-0.54304 0.47147,-0.25056 1.52815,-0.16967 1.52815,0.11697 0,0.1611 -0.20645,0.24789 -0.73738,0.30995 -0.29511,0.0344 -0.55041,0.12145 -0.72387,0.24656 -0.41448,0.29894 -1.19468,0.72551 -1.42643,0.77989 -0.11487,0.027 -0.35361,0.14389 -0.53055,0.25986 -0.17695,0.11598 -0.43733,0.2352 -0.57863,0.26494 -0.14129,0.0297 -0.41274,0.17355 -0.60321,0.31957 -0.26488,0.20306 -0.42293,0.26567 -0.67215,0.26624 -0.33652,8.9e-4 -1.0376,0.3739 -1.62736,0.8661 -0.16438,0.13717 -0.35581,0.22049 -0.50668,0.22049 -0.16828,0 -0.33116,0.0831 -0.53232,0.27146 -0.23151,0.21681 -0.35351,0.27145 -0.60609,0.27145 -0.26033,0 -0.36031,0.048 -0.56546,0.27146 -0.13708,0.14931 -0.30591,0.2707 -0.37519,0.26979 -0.0692,-8.8e-4 -0.44157,0.0942 -0.82733,0.21135 -0.9243,0.28073 -1.4631,0.71956 -1.59947,1.30273 -0.12252,0.5239 -0.1739,0.60838 -0.42196,0.69361 -0.36825,0.12655 -0.63477,-0.0226 -0.73259,-0.41009 -0.0467,-0.18464 -0.15473,-0.38505 -0.24023,-0.44535 -0.23187,-0.16348 -0.63719,-0.13694 -0.81585,0.0534 -0.0841,0.0897 -0.26169,0.21668 -0.3945,0.28221 -0.13281,0.0655 -0.36037,0.21902 -0.50567,0.34108 -0.1453,0.12206 -0.35725,0.22192 -0.471,0.22192 -0.11374,0 -0.34206,0.1033 -0.50736,0.22955 -0.16531,0.12626 -0.455,0.26302 -0.64376,0.30392 -0.18876,0.0409 -0.43875,0.16024 -0.55553,0.26522 -0.11677,0.10497 -0.35709,0.23465 -0.53403,0.28816 -0.17695,0.0536 -0.79222,0.31555 -1.3673,0.58234 -0.57506,0.26679 -1.17126,0.51092 -1.32487,0.54252 -0.15363,0.0316 -0.48384,0.15765 -0.73381,0.28016 -0.24999,0.12249 -0.52767,0.22271 -0.61708,0.22271 -0.0894,0 -0.24782,0.0888 -0.35198,0.19733 -0.23333,0.24309 -0.5693,0.42314 -0.78955,0.42314 -0.19168,0 -1.0776,0.56215 -1.24147,0.78776 -0.0667,0.0918 -0.29884,0.19522 -0.58237,0.25943 -0.61141,0.13844 -1.529,0.54234 -1.85154,0.81499 -0.20506,0.17336 -0.36419,0.22543 -0.82533,0.27009 -0.37885,0.0368 -0.65902,0.11224 -0.83173,0.22429 -0.14326,0.0929 -0.42333,0.2155 -0.6224,0.27237 -0.19905,0.0569 -0.4886,0.19767 -0.64343,0.31285 -0.15482,0.11517 -0.44437,0.25472 -0.64343,0.3101 -0.19906,0.0554 -0.45799,0.16656 -0.57542,0.24705 -0.11741,0.0805 -0.25191,0.14638 -0.29887,0.14638 -0.1109,0 -0.65927,0.2393 -0.81472,0.35552 -0.0663,0.0497 -0.24925,0.12997 -0.40643,0.17856 -0.43495,0.13446 -1.0358,0.54148 -1.53004,1.03649 -0.32914,0.32964 -0.50269,0.44596 -0.66536,0.44596 -0.14891,0 -0.34251,0.11013 -0.59866,0.34051 -0.21022,0.18905 -0.61112,0.43456 -0.90138,0.55199 -0.28754,0.11633 -0.63773,0.30878 -0.77821,0.42766 -0.14049,0.11891 -0.37575,0.24151 -0.52279,0.27247 -0.14706,0.031 -0.41324,0.15287 -0.59153,0.27088 -0.23629,0.15644 -0.47087,0.22975 -0.86545,0.27051 -0.41943,0.0434 -0.60611,0.10556 -0.82912,0.27646 -0.26981,0.20677 -1.04475,0.53656 -1.26177,0.53697 -0.14475,0 -1.60637,0.61756 -1.74632,0.73753 -0.16353,0.14019 -0.79391,0.3456 -1.06482,0.34699 -0.12117,5.1e-4 -0.41072,0.0709 -0.64343,0.15621 -0.23272,0.0853 -0.51835,0.15509 -0.63475,0.15511 -0.12603,3e-5 -0.30496,0.0903 -0.44236,0.22321 -0.1269,0.12274 -0.46599,0.30171 -0.75351,0.39772 -0.28754,0.096 -0.58227,0.20423 -0.65495,0.24049 -0.0727,0.0362 -0.4889,0.10499 -0.92494,0.15274 -0.66173,0.0724 -0.91243,0.14216 -1.51663,0.42165 -0.71183,0.32929 -1.29498,0.51528 -1.9303,0.61567 -0.54084,0.0854 -1.35632,0.404 -2.04313,0.79805 -0.46892,0.26905 -0.71289,0.45768 -1.31342,1.01549 l -0.38068,0.35359 -0.74533,0.005 c -0.63471,0.004 -0.79605,0.0331 -1.08715,0.193 -0.188,0.10327 -0.34183,0.21205 -0.34183,0.24169 0,0.0297 -0.13986,0.19291 -0.3108,0.36277 -0.23744,0.23593 -0.44689,0.34869 -0.88729,0.4777 -0.44621,0.1307 -0.67559,0.25539 -1.0151,0.55191 -0.45725,0.3993 -0.47617,0.40709 -1.32568,0.54617 -0.2878,0.0471 -0.70795,0.18736 -0.93473,0.31201 -0.22656,0.12453 -0.46466,0.22642 -0.5291,0.22642 -0.0645,0 -0.27721,0.10058 -0.47279,0.22349 -0.19557,0.12294 -0.49709,0.27128 -0.67,0.32964 -0.17292,0.0584 -0.49865,0.27405 -0.72386,0.47929 -0.22521,0.20524 -0.53615,0.45357 -0.69098,0.55185 -0.56922,0.36131 -1.02645,0.84537 -1.07981,1.14319 -0.0405,0.22583 -0.19333,0.41734 -0.74292,0.93071 -0.38059,0.3555 -0.93715,0.87847 -1.23679,1.16215 -0.34532,0.32693 -0.63899,0.53573 -0.80207,0.57027 -0.14149,0.03 -0.42563,0.13873 -0.63143,0.24169 -0.20579,0.10296 -0.66343,0.25444 -1.01698,0.33663 -0.35354,0.0822 -0.87373,0.22125 -1.15597,0.30898 -0.40306,0.12531 -0.72404,0.15954 -1.49598,0.15954 -0.96439,0 -0.98906,-0.004 -1.3159,-0.23268 z M 379.20194,475.973 c -0.0595,-0.0928 0.0918,-0.18477 0.19895,-0.12092 0.0899,0.0536 0.0309,0.19312 -0.0817,0.19312 -0.0391,0 -0.0918,-0.0325 -0.1172,-0.0722 z m 3.98776,-1.894 c -0.0496,-0.0576 -0.11333,-0.26767 -0.14162,-0.46678 -0.0677,-0.47679 0.0967,-0.67045 0.56638,-0.66693 0.56203,0.004 0.75399,0.30778 0.51477,0.81407 -0.16485,0.3489 -0.74461,0.54614 -0.93953,0.31964 z m -4.5743,-0.12587 c -0.36239,-0.14939 -0.18435,-0.41555 0.32888,-0.49164 0.41986,-0.0623 0.53573,-0.17521 0.53573,-0.52221 0,-0.20352 -0.0641,-0.36822 -0.20697,-0.53198 -0.27782,-0.31839 -0.20901,-0.55031 0.16326,-0.55031 0.34031,0 0.54909,0.18077 0.71661,0.62047 0.0798,0.20931 0.23267,0.41603 0.38201,0.51639 l 0.24905,0.16737 -0.18952,0.0944 c -0.10423,0.0519 -0.3754,0.23083 -0.60258,0.39755 -0.44254,0.32474 -1.01418,0.44931 -1.37647,0.29994 z m -0.99347,-1.34241 c -0.19795,-0.1282 -0.28013,-0.24437 -0.2981,-0.42143 -0.0312,-0.30721 0.18381,-0.43905 0.59474,-0.3647 0.32333,0.0585 0.4798,0.31672 0.3933,0.64908 -0.0926,0.35566 -0.2914,0.39516 -0.68994,0.13705 z m 15.86237,-6.47573 c -0.16553,-0.29828 0.24484,-0.55388 0.46973,-0.29257 0.0533,0.062 0.0734,0.18409 0.0446,0.27146 -0.0658,0.19979 -0.40741,0.21381 -0.51435,0.0211 z m 9.03862,-1.04178 c -0.31948,-0.17669 -0.37059,-0.30942 -0.32984,-0.85655 0.0214,-0.28801 0.0614,-0.55849 0.0886,-0.60108 0.0273,-0.0426 0.26465,-0.0775 0.52745,-0.0775 h 0.47784 l -0.007,0.29084 c -0.0274,1.17488 -0.24281,1.52875 -0.75729,1.24423 z"
           style="fill:#FFFFFF" />
      </g>
    </g>
  </g>
  <metadata
     id="metadata1123">
    <rdf:RDF>
      <cc:Work
         rdf:about="">
        <dc:title></dc:title>
      </cc:Work>
    </rdf:RDF>
  </metadata>
</svg>
