<?xml version="1.0" encoding="UTF-8" standalone="no"?>
<!-- Created with Inkscape (http://www.inkscape.org/) -->

<svg
   xmlns:dc="http://purl.org/dc/elements/1.1/"
   xmlns:cc="http://creativecommons.org/ns#"
   xmlns:rdf="http://www.w3.org/1999/02/22-rdf-syntax-ns#"
   xmlns:svg="http://www.w3.org/2000/svg"
   xmlns="http://www.w3.org/2000/svg"
   xmlns:sodipodi="http://sodipodi.sourceforge.net/DTD/sodipodi-0.dtd"
   xmlns:inkscape="http://www.inkscape.org/namespaces/inkscape"
   id="svg4136"
   version="1.1"
   inkscape:version="0.91 r13725"
   width="744.15002"
   height="1052.4"
   viewBox="0 0 744.15002 1052.4"
   sodipodi:docname="design_logotyp.svg">
  <metadata
     id="metadata4142">
    <rdf:RDF>
      <cc:Work
         rdf:about="">
        <dc:format>image/svg+xml</dc:format>
        <dc:type
           rdf:resource="http://purl.org/dc/dcmitype/StillImage" />
        <dc:title />
      </cc:Work>
    </rdf:RDF>
  </metadata>
  <defs
     id="defs4140" />
  <sodipodi:namedview
     pagecolor="#ffffff"
     bordercolor="#666666"
     borderopacity="1"
     objecttolerance="10"
     gridtolerance="10"
     guidetolerance="10"
     inkscape:pageopacity="0"
     inkscape:pageshadow="2"
     inkscape:window-width="1280"
     inkscape:window-height="752"
     id="namedview4138"
     showgrid="false"
     inkscape:zoom="1.0452299"
     inkscape:cx="331.86488"
     inkscape:cy="479.03157"
     inkscape:window-x="0"
     inkscape:window-y="0"
     inkscape:window-maximized="1"
     inkscape:current-layer="svg4136" />
  <g
     id="g4273">
    <g
       transform="translate(4.2382831,54.921496)"
       id="g4304">
      <g
         id="g4231"
         transform="translate(-21.648267,-6.765084)">
        <path
           inkscape:connector-curvature="0"
           id="path4171"
           d="m 332.58365,584.54774 c 0,-0.0765 -0.0724,-0.65954 -0.16085,-1.29558 -0.12168,-0.87483 -0.67203,-2.49369 -2.2602,-6.64835 -1.15464,-3.02056 -2.17069,-5.51724 -2.2579,-5.54818 -0.32103,-0.1139 -0.72105,-0.62756 -0.72105,-0.92591 0,-0.16894 0.16563,-0.46066 0.36805,-0.64827 0.34779,-0.32232 0.38931,-0.54703 0.7539,-4.08035 0.21221,-2.05657 0.40095,-3.96962 0.41945,-4.25122 l 0.0336,-0.51201 -21.06791,-5.05249 -21.0679,-5.05251 -0.46467,0.27416 -0.46466,0.27416 -0.26715,3.06449 c -0.25111,2.88073 -0.25192,3.0877 -0.0134,3.45174 0.50699,0.77375 -0.2094,1.70171 -1.02634,1.32949 -0.48534,-0.22113 -18.77177,3.24777 -19.7052,3.73805 -0.83465,0.43837 -1.28048,0.25253 -1.5675,-0.65334 -0.19184,-0.60548 -0.31737,-0.71481 -1.91691,-1.66952 -2.42318,-1.44631 -2.29052,-1.53837 -3.37731,2.34359 -0.59951,2.14138 -0.8196,3.16155 -0.75279,3.48913 0.15576,0.76374 -0.64407,1.27983 -1.16937,0.75453 -0.1767,-0.17671 -0.62945,-0.10306 -3.04821,0.4958 l -2.84069,0.70335 -7.65,5.5914 c -6.25813,4.57408 -7.66611,5.66661 -7.73856,6.00478 -0.0487,0.22736 -0.13648,0.49092 -0.19506,0.58569 -0.0586,0.0948 0.0565,0.46013 0.25569,0.81191 1.36184,2.40496 1.7459,3.2352 1.53414,3.31647 -0.15709,0.0603 -0.49984,-0.45482 -1.23676,-1.85859 -0.71357,-1.35929 -1.09821,-1.94217 -1.28195,-1.94262 -0.34276,-10e-4 -0.8625,-0.52632 -0.8625,-0.872 0,-0.54043 0.39056,-0.85324 1.0754,-0.86134 0.61371,-0.007 1.07145,-0.31649 8.28228,-5.59536 l 7.63266,-5.58768 2.90385,-0.70464 c 2.23198,-0.54161 2.92374,-0.7653 2.98983,-0.9668 0.0473,-0.14418 0.24949,-0.30319 0.44935,-0.35335 0.39425,-0.0989 0.38972,-0.0867 1.49061,-4.02554 0.53312,-1.90741 0.53798,-1.94946 0.28059,-2.4274 -0.21334,-0.39615 -0.22972,-0.55703 -0.0883,-0.86732 0.33075,-0.72592 1.42878,-0.63481 1.62188,0.13455 0.0565,0.22509 0.35922,0.52061 0.78927,0.77049 0.3837,0.22295 0.86638,0.50889 1.07263,0.63543 l 0.375,0.23007 -0.32103,-0.36738 c -0.17656,-0.20206 -7.35147,-8.43121 -15.94422,-18.28699 -12.12033,-13.90185 -15.73027,-17.95443 -16.10076,-18.075 -0.93715,-0.30497 -0.91098,-1.63751 0.0359,-1.82688 0.3918,-0.0784 0.60716,-0.36572 1.71168,-2.28408 1.62378,-2.82017 1.63679,-2.68847 -0.4581,-4.63757 -0.86121,-0.80128 -1.74748,-1.50615 -1.96947,-1.56639 -0.85512,-0.232 -1.03035,-1.09398 -0.35299,-1.73644 0.5989,-0.56805 3.55281,-8.45154 3.32572,-8.87585 -0.40485,-0.75646 0.13101,-1.5838 0.94814,-1.46388 0.27256,0.04 0.91249,-0.0808 1.52266,-0.28738 0.57887,-0.19601 8.93889,-3.61226 18.57783,-7.59165 16.86461,-6.96249 17.53284,-7.25312 17.72381,-7.70832 0.10915,-0.26018 0.33618,-0.51677 0.50449,-0.57018 0.34869,-0.11067 0.35319,-0.12344 0.69858,-1.98299 0.23531,-1.26687 0.23643,-1.40359 0.0143,-1.72087 -0.13278,-0.18957 -0.24141,-0.46466 -0.24141,-0.6113 0,-0.35803 0.52818,-0.86662 0.9,-0.86662 0.40583,0 0.9,0.52078 0.9,0.94846 0,0.50325 5.94938,5.21765 6.64695,5.26718 0.26292,0.0187 0.55215,0.0622 0.64272,0.0967 0.0906,0.0345 1.52141,-0.8148 3.17966,-1.8873 2.13603,-1.38152 3.04035,-2.04989 3.10197,-2.2926 0.0478,-0.18843 0.24696,-0.4155 0.44248,-0.50459 0.34011,-0.15496 0.35273,-0.21484 0.29109,-1.3824 -0.11286,-2.13826 -0.15477,-2.33959 -0.56668,-2.72133 -0.2135,-0.19786 -0.38819,-0.49798 -0.38819,-0.66693 0,-0.29761 0.39929,-0.81127 0.71975,-0.9259 0.11361,-0.0406 0.93025,-6.00363 0.93025,-6.79256 0,-0.0488 0.10719,-0.0887 0.23819,-0.0887 0.19053,0 0.22096,0.11253 0.15213,0.5625 -0.0473,0.30937 -0.22817,1.85856 -0.40185,3.44263 -0.29006,2.64536 -0.29634,2.9079 -0.0771,3.22088 0.31518,0.44998 0.30141,0.81124 -0.0441,1.15677 -0.25359,0.25359 -0.27511,0.45874 -0.20857,1.9875 0.0519,1.19271 0.15574,1.88493 0.34567,2.30472 0.14931,0.33 0.30512,0.70917 0.34623,0.84261 0.0411,0.13342 1.26333,1.09867 2.71604,2.14498 l 2.64126,1.90238 10.6743,3.59902 c 9.7216,3.2778 10.71255,3.58317 11.10283,3.42152 0.55073,-0.22812 1.12035,0.009 1.24863,0.52042 0.10925,0.43521 -0.12874,0.94056 -0.49813,1.0578 -0.19238,0.0611 -0.5643,0.98553 -1.35912,3.3783 -0.90386,2.721 -1.06514,3.34865 -0.92688,3.60699 0.0921,0.17202 0.14671,0.45258 0.12145,0.62349 -0.0351,0.23712 1.25064,1.58163 5.42735,5.67567 3.01029,2.95073 5.54706,5.33663 5.63725,5.30202 0.25515,-0.0979 3.35138,-10.70484 3.2615,-11.17302 -0.0893,-0.46498 0.37756,-1.02718 0.85297,-1.02718 0.33914,0 0.9,0.49779 0.9,0.79878 0,0.10932 0.96188,0.69268 2.1375,1.29636 1.17563,0.60367 3.52125,1.81135 5.2125,2.68374 1.75769,0.90666 3.21552,1.56816 3.40301,1.54414 0.4422,-0.0566 0.97844,0.50075 0.91899,0.95523 -0.0381,0.29151 0.70274,1.15064 3.92801,4.55501 3.60208,3.80212 4.01287,4.18876 4.37869,4.12125 0.22205,-0.041 0.55691,0.007 0.74415,0.10771 0.18723,0.1002 3.23829,0.57431 6.78014,1.05354 5.7469,0.77762 6.47326,0.84785 6.75174,0.6528 0.17161,-0.12021 0.43201,-0.21856 0.57865,-0.21856 0.41301,0 0.87417,0.55302 0.84617,1.01472 -0.0167,0.27501 0.98071,2.33 3.02533,6.23317 2.38851,4.55969 3.13835,5.86847 3.45642,6.03294 0.2234,0.11553 0.47225,0.39957 0.55299,0.63122 0.12761,0.36604 0.28131,0.45332 1.1745,0.66705 0.72446,0.17332 1.11053,0.20155 1.30842,0.0956 0.70839,-0.37913 1.33448,0.26637 1.0173,1.04881 -0.13135,0.32403 -0.0933,0.61835 0.19721,1.52621 0.19797,0.61861 0.32859,1.17549 0.29026,1.2375 -0.18465,0.29875 -0.36535,0.009 -0.71982,-1.15277 -0.2676,-0.87731 -0.47046,-1.29231 -0.66132,-1.35288 -0.15142,-0.0481 -0.34474,-0.23979 -0.42963,-0.42607 -0.19857,-0.43583 -2.12973,-0.95252 -2.60649,-0.69737 -0.16306,0.0873 -0.42832,0.13801 -0.58944,0.11275 -0.21018,-0.0329 -3.67837,3.06076 -12.27738,10.95168 -9.45736,8.67863 -12.00306,11.09072 -12.07275,11.43917 -0.12828,0.64142 -0.7138,0.87678 -1.34274,0.53975 -0.44101,-0.23635 -0.89868,-0.24374 -6.0048,-0.0971 l -5.52741,0.15879 -2.27259,1.7514 c -1.24994,0.96327 -2.34011,1.83475 -2.42261,1.93662 -0.0825,0.10188 -0.3198,0.24808 -0.52732,0.3249 -0.37556,0.139 -0.37934,0.15921 -0.7994,4.26987 l -0.42204,4.1302 0.31188,0.31189 c 0.37236,0.37236 0.39119,0.65492 0.0792,1.18873 -0.22496,0.38481 -0.16407,0.57642 1.81854,5.72315 2.05077,5.32366 2.19483,5.77231 2.37213,7.3875 0.078,0.71071 0.0548,0.8625 -0.13164,0.8625 -0.12447,0 -0.22631,-0.0626 -0.22631,-0.13914 z m -51.7125,-25.76386 c 2.06058,-0.38786 2.9625,-0.61753 2.9625,-0.75436 0,-0.1082 -1.78298,-1.38177 -3.96218,-2.83017 l -3.96217,-2.63345 -0.48264,0.24959 c -0.43772,0.22635 -0.7581,0.23528 -1.65311,0.0461 -0.18873,-0.0399 -5.27491,5.10188 -8.43088,8.52304 l -0.41597,0.45093 6.49097,-1.24701 c 3.57004,-0.68584 7.8241,-1.49792 9.45348,-1.80465 z m -10.76256,-3.04703 c 3.41467,-3.55688 3.1368,-3.19547 2.86336,-3.72425 -0.32338,-0.62537 -0.29949,-1.15101 0.0833,-1.83204 l 0.32157,-0.57216 -4.25907,-4.77358 c -2.34249,-2.62548 -7.22241,-8.09783 -10.84427,-12.16078 -5.73988,-6.43891 -7.23937,-7.99129 -6.9544,-7.19967 0.0371,0.10313 2.82871,8.16854 6.20355,17.92316 5.37993,15.55017 6.17301,17.73615 6.43605,17.73979 0.165,0.002 0.38853,0.0603 0.49674,0.12891 0.19561,0.12406 0.69019,-0.35968 5.6532,-5.52939 z m -13.13453,-12.62619 c -3.42303,-9.89361 -6.13677,-17.51373 -6.26739,-17.59878 -0.12672,-0.0825 -0.39826,-0.31083 -0.60343,-0.50741 -0.3648,-0.34951 -0.58562,-0.37518 -9.97854,-1.16029 -5.28302,-0.44159 -9.65147,-0.75324 -9.70767,-0.69258 -0.0961,0.10363 32.43276,37.53606 32.54283,37.44856 0.0282,-0.0224 -2.66544,-7.89267 -5.9858,-17.4895 z m 71.55959,16.62289 c 0,-0.25659 -19.03301,-14.71611 -19.34492,-14.69649 -0.12655,0.008 -0.43755,0.10025 -0.69112,0.20505 -0.54315,0.22451 -1.14821,0.10647 -1.52445,-0.29739 -0.26403,-0.28339 -0.44316,-0.24199 -10.08251,2.33018 -5.39754,1.44027 -9.83923,2.64421 -9.87043,2.67541 -0.0312,0.0312 1.28092,0.37796 2.91585,0.77058 1.63492,0.39261 10.90383,2.62104 20.59758,4.95204 9.69375,2.33102 17.70937,4.244 17.8125,4.25108 0.10312,0.007 0.1875,-0.0786 0.1875,-0.19046 z m 0.38218,-0.80918 c -0.055,-0.14437 -1.2603,-2.97778 -2.67855,-6.29647 -2.02354,-4.73509 -2.63674,-6.03474 -2.84859,-6.0375 -0.43803,-0.006 -1.12627,-0.4266 -1.22952,-0.75187 -0.0527,-0.16592 -0.19054,-0.30165 -0.3064,-0.30165 -0.11586,0 -2.95596,-0.27159 -6.31136,-0.60354 -3.35538,-0.33194 -6.12127,-0.58295 -6.14644,-0.55778 -0.0632,0.0632 19.33264,14.79323 19.49223,14.80325 0.0707,0.005 0.0836,-0.11006 0.0286,-0.25444 z m 8.69282,-7.23749 c 6.77282,-6.77384 7.45536,-7.50015 7.04943,-7.50159 -0.24718,-0.002 -4.80318,0.30802 -10.12443,0.68644 -6.52623,0.46412 -9.69474,0.74355 -9.73566,0.85857 -0.0334,0.0938 -0.20796,0.30174 -0.38801,0.46211 l -0.32734,0.29158 2.67265,6.22833 c 1.46996,3.42558 2.75832,6.28269 2.86301,6.34914 0.1047,0.0665 0.2581,0.12186 0.34092,0.12312 0.0828,10e-4 3.52504,-3.3727 7.64943,-7.4977 z m -1.95,4.49725 c 0.5775,-0.005 3.09603,-0.068 5.59674,-0.14089 l 4.54674,-0.1325 0.34175,-0.36874 0.34174,-0.36875 -0.24478,-5.26699 c -0.13481,-2.90033 -0.31118,-5.33337 -0.39254,-5.41473 -0.097,-0.097 -2.59402,2.3043 -7.2687,6.98998 -6.35511,6.37008 -6.95157,7.00722 -5.54595,5.92436 l 1.575,-1.21335 1.05,-0.008 z m -51.14672,1.01525 c 0.0379,-0.10313 0.19917,-1.59665 0.35844,-3.31895 0.21936,-2.37211 0.24911,-3.22027 0.12267,-3.49777 -0.13654,-0.29967 -0.10803,-0.48044 0.15671,-0.99356 0.41299,-0.80047 0.71325,-2.25078 0.48193,-2.32788 -0.0902,-0.0301 -0.3123,-0.20785 -0.49353,-0.39507 l -0.3295,-0.34038 -4.19321,1.97051 -4.19322,1.97052 -0.0231,0.74754 c -0.0127,0.41115 -0.0495,0.86742 -0.0818,1.01395 -0.0452,0.20535 0.81797,0.84752 3.76637,2.80202 2.10375,1.39459 3.94524,2.54032 4.09221,2.5461 0.14695,0.006 0.2982,-0.0739 0.33607,-0.17703 z m 74.89927,-12.92283 c 6.36724,-5.84943 11.55733,-10.65479 11.53356,-10.67856 -0.0238,-0.0238 -3.38288,0.49222 -7.46468,1.14669 -4.08178,0.65445 -7.45671,1.19043 -7.49982,1.19106 -0.0431,0 -0.20134,0.22945 -0.35161,0.5085 -0.27623,0.51291 -0.77927,0.84264 -1.28553,0.84264 -0.22806,0 -0.84704,1.52851 -3.53825,8.7375 -1.79401,4.80562 -3.29728,8.83129 -3.3406,8.94592 -0.0571,0.1511 -0.017,0.17174 0.14568,0.075 0.12345,-0.0734 5.434,-4.91932 11.80125,-10.76875 z m -9.12755,1.92213 c 1.77375,-4.74938 3.2457,-8.71433 3.27099,-8.81102 0.0253,-0.0967 -1.29723,1.203 -2.93892,2.88818 -1.91181,1.96243 -3.03384,3.22971 -3.12099,3.525 -0.0906,0.30684 -0.30124,0.53629 -0.62991,0.68604 -0.46198,0.21048 -0.48907,0.26371 -0.41998,0.825 0.0406,0.33 0.15676,2.60812 0.25809,5.0625 0.10132,2.45437 0.22281,4.46182 0.26997,4.46101 0.0472,-0.002 1.537,-3.88734 3.31075,-8.63671 z m -75.08813,6.29747 c 0.41888,-0.16074 0.12267,-0.30581 -0.54135,-0.26517 -0.35503,0.0217 -0.66639,0.0432 -0.69187,0.0477 -0.0255,0.004 -0.005,0.0757 0.0464,0.15819 0.10237,0.16564 0.81672,0.20133 1.18687,0.0593 z m -1.61095,-0.96766 c -0.14187,-0.37586 -0.12777,-0.53507 0.0794,-0.89599 0.30012,-0.52295 0.0927,-0.74702 -0.24504,-0.26475 -0.27099,0.38689 -0.30609,1.0565 -0.0777,1.48318 0.24228,0.45272 0.43807,0.19334 0.24339,-0.32244 z m 2.42085,-0.48236 c -0.0257,-0.26634 -0.10785,-0.45051 -0.18249,-0.40926 -0.14184,0.0784 -0.22773,1.02842 -0.11361,1.25676 0.12618,0.2525 0.34251,-0.36672 0.2961,-0.8475 z m -0.50318,-1.01962 c -0.11139,-0.18022 -0.51859,-0.18191 -0.51859,-0.002 0,0.16256 0.32556,0.30003 0.48994,0.20689 0.0632,-0.0358 0.0761,-0.12796 0.0286,-0.20476 z m 4.95813,-2.12713 c 3.28619,-1.52984 4.26974,-2.05022 4.27128,-2.25986 0.002,-0.14981 0.0719,-0.40292 0.15726,-0.56248 0.13818,-0.2582 -0.11269,-0.48869 -2.27994,-2.09471 -1.64628,-1.21995 -2.51053,-1.77193 -2.66776,-1.7038 -0.12791,0.0554 -0.40998,0.13144 -0.62682,0.16891 -0.35358,0.0611 -0.58224,0.47257 -2.21616,3.98788 l -1.8219,3.91975 0.34116,0.26257 c 0.18763,0.1444 0.39346,0.26406 0.45738,0.26591 0.0639,0.002 2.0374,-0.89105 4.3855,-1.98417 z m 16.19828,-1.01102 c 5.3625,-1.42611 9.77812,-2.61736 9.8125,-2.64721 0.26963,-0.23414 -1.15309,-0.15866 -8.56963,0.45468 -10.62381,0.87856 -10.16787,0.82924 -10.16787,1.09978 0,0.43599 -0.52772,1.09995 -1.014,1.27579 -0.28619,0.10349 -0.52619,0.30884 -0.56682,0.48499 -0.33078,1.43404 -0.32831,1.49461 0.0721,1.75705 0.21106,0.13835 0.45126,0.23273 0.53376,0.20972 0.0825,-0.023 4.5375,-1.20868 9.9,-2.6348 z m -28.41336,-11.71351 c -4.43448,-11.0429 -5.7479,-14.17253 -5.96202,-14.20631 -0.74246,-0.11718 -0.96723,-0.21336 -1.28267,-0.54884 l -0.34195,-0.36368 -4.2,1.87471 c -2.31,1.0311 -4.24512,1.92117 -4.30029,1.97794 -0.0552,0.0568 -0.12266,0.30995 -0.15,0.56265 -0.0454,0.42007 0.88737,1.51043 10.88127,12.71902 6.01204,6.74275 10.95621,12.23434 10.98703,12.20352 0.0308,-0.0308 -2.50329,-6.42938 -5.63137,-14.21901 z m 8.22157,10.58702 c 2.20005,-4.73726 2.05931,-4.33822 1.67538,-4.75033 -0.4396,-0.47185 -0.53151,-0.94922 -0.31125,-1.61661 l 0.18656,-0.56529 -7.47698,-9.08635 c -4.11234,-4.9975 -7.50306,-9.06027 -7.53495,-9.02838 -0.0516,0.0516 10.92242,27.64843 11.26104,28.31851 0.0755,0.14936 0.2409,0.25061 0.36761,0.225 0.13671,-0.0276 0.88183,-1.44928 1.83259,-3.49654 z m 10.46961,0.64886 c 0.19095,-0.17939 0.34512,-0.43251 0.34262,-0.5625 -0.003,-0.17859 -0.0449,-0.16303 -0.16955,0.0636 -0.0907,0.165 -0.30805,0.41662 -0.48294,0.55917 -0.17487,0.14253 -0.2548,0.26065 -0.17763,0.26249 0.0772,0.002 0.29657,-0.14342 0.4875,-0.32281 z m -1.26532,-0.0988 c -0.14438,-0.15126 -0.28899,-0.25413 -0.32138,-0.22863 -0.0886,0.0698 0.30096,0.50363 0.45224,0.50363 0.0724,0 0.0135,-0.12375 -0.13086,-0.275 z m -0.1898,-1.12135 c 10e-4,-0.0668 -0.0652,-0.0796 -0.1477,-0.0287 -0.0825,0.051 -0.14897,0.20684 -0.14771,0.34635 0.002,0.21859 0.0224,0.22255 0.14771,0.0286 0.08,-0.12375 0.14644,-0.27962 0.1477,-0.34635 z m 1.3523,-0.32865 c -0.10271,-0.12375 -0.3641,-0.22119 -0.58086,-0.21654 -0.36452,0.008 -0.35468,0.0234 0.13086,0.2071 0.28875,0.10926 0.55014,0.2067 0.58086,0.21654 0.0307,0.01 -0.0282,-0.0833 -0.13086,-0.2071 z m 11.175,-0.61073 c 7.04703,-0.57681 8.43052,-0.72699 8.58952,-0.93235 0.10424,-0.13464 0.16638,-0.31502 0.13812,-0.40086 -0.0283,-0.0858 -1.36231,-1.11701 -2.96452,-2.29148 -1.97397,-1.44699 -2.98566,-2.10138 -3.13812,-2.02981 -0.12375,0.0581 -0.52107,0.0989 -0.88295,0.0907 -0.59557,-0.0135 -1.15017,0.27225 -5.85,3.01422 -2.85562,1.66602 -5.32705,3.11207 -5.49205,3.21344 -0.25439,0.15628 -0.18597,0.17209 0.45,0.10401 0.4125,-0.0442 4.53,-0.3897 9.15,-0.76787 z m 23.88757,0.64823 c -0.0566,-0.17004 -20.3052,-6.74693 -20.53588,-6.6702 -0.0541,0.018 1.19467,0.9777 2.775,2.1327 2.84055,2.07606 2.88154,2.0995 3.59542,2.05711 0.64962,-0.0386 0.77384,0.009 1.2375,0.4725 0.28346,0.28346 0.51539,0.62339 0.51539,0.75539 0,0.132 0.0506,0.24423 0.1125,0.24939 0.0619,0.005 2.64375,0.26784 5.7375,0.58369 6.52464,0.66617 6.64734,0.674 6.56257,0.41942 z m 14.24993,-0.58061 c 7.95261,-0.55966 9.1875,-0.67806 9.1875,-0.88086 0,-0.12885 0.0929,-0.36742 0.20636,-0.53016 0.18954,-0.27177 -0.0967,-0.72363 -3.51372,-5.54587 -4.03066,-5.6883 -3.71942,-5.3621 -4.86764,-5.102 -0.165,0.0374 -3.01553,2.78687 -6.3345,6.10998 -5.31705,5.32367 -6.02325,6.0845 -5.93982,6.39938 0.0906,0.34185 0.13762,0.35385 1.0845,0.27673 0.54441,-0.0443 5.12419,-0.37158 10.17732,-0.7272 z m -42.24702,-3.11961 5.00952,-2.91271 0,-0.66371 0,-0.6637 -8.57754,-8.38608 c -6.82718,-6.67478 -8.65611,-8.38608 -8.9625,-8.38608 -0.29987,0 -0.38496,-0.075 -0.38496,-0.33944 0,-0.23698 -0.64886,-0.98715 -2.14946,-2.48507 l -2.14945,-2.14561 -0.54833,0.34757 c -0.31243,0.19803 -0.53314,0.45109 -0.51304,0.58824 0.0194,0.13237 2.29653,6.49378 5.06028,14.13643 l 5.025,13.89576 0.47913,10e-4 c 0.2905,0 0.64483,0.14442 0.9,0.36519 l 0.42087,0.36411 0.69048,-0.40161 c 0.37977,-0.22089 2.94477,-1.71235 5.7,-3.31434 z m 14.69139,3.50444 c 0.17227,-0.20757 0.14949,-0.2132 -0.20663,-0.0509 -0.31419,0.14315 -0.4863,0.14315 -0.80049,0 -0.35611,-0.16227 -0.3789,-0.15664 -0.20662,0.0509 0.10648,0.12829 0.37957,0.23328 0.60687,0.23328 0.22729,0 0.50038,-0.10499 0.60687,-0.23328 z m -23.47983,-0.92922 c -0.12131,-0.30938 -2.41181,-6.62793 -5.09001,-14.04122 -2.67821,-7.4133 -4.90718,-13.51642 -4.95326,-13.5625 -0.0461,-0.0461 -0.12666,-0.0409 -0.17907,0.0115 -0.0524,0.0524 0.764,4.56928 1.81424,10.03749 2.60937,13.58602 2.3226,12.26721 2.6674,12.26721 0.16151,0 0.52316,0.2295 0.80366,0.51 0.51909,0.51909 0.65901,1.12218 0.36732,1.58329 -0.1076,0.17009 0.38148,0.60692 2.21479,1.97816 1.29408,0.96792 2.40297,1.76406 2.46417,1.7692 0.0612,0.005 0.012,-0.24378 -0.10924,-0.55315 z m 32.02165,-2.71056 c -2.59803,-1.71768 -12.55369,-8.31857 -22.12369,-14.66864 -9.57,-6.35007 -17.48438,-11.59743 -17.5875,-11.6608 -0.10313,-0.0634 -0.26238,-0.0689 -0.3539,-0.0123 -0.10032,0.062 0.5987,0.86964 1.76034,2.03386 l 1.92672,1.93101 0.86468,0 0.86466,0 0,0.80564 0,0.80565 8.35434,8.15685 c 7.05634,6.88954 8.41387,8.15085 8.7375,8.11812 0.66672,-0.0674 1.05864,0.10714 1.35886,0.60526 0.28397,0.47118 0.54824,0.56609 10.38284,3.72903 5.5503,1.78506 10.19212,3.25319 10.31515,3.2625 0.12305,0.009 -1.90195,-1.38843 -4.5,-3.10611 z m 6.30131,2.52306 c 0.17319,0 0.50199,0.0967 0.73065,0.21499 l 0.41574,0.21498 6.09829,-6.10248 c 4.80533,-4.80864 6.06773,-6.15019 5.9541,-6.32749 -0.0793,-0.12375 -0.14523,-0.37209 -0.14649,-0.55185 -0.002,-0.26498 -0.15141,-0.36966 -0.78979,-0.55288 -6.66201,-1.91202 -57.86358,-16.63012 -58.06379,-16.69068 -0.20293,-0.0614 -0.26268,-0.0158 -0.225,0.17175 0.0295,0.14689 9.57659,6.57845 22.47629,15.14157 21.93456,14.56068 22.43386,14.88182 22.83004,14.68417 0.22278,-0.11115 0.54677,-0.20208 0.71996,-0.20208 z m -14.71008,-0.38573 c -0.2022,-0.21523 -0.50028,-0.35874 -0.72857,-0.35074 -0.35041,0.0123 -0.34047,0.0268 0.10701,0.1558 0.30075,0.0867 0.56207,0.29306 0.66933,0.52848 0.0968,0.21242 0.20262,0.30623 0.23522,0.20847 0.0326,-0.0977 -0.0948,-0.34165 -0.28299,-0.54201 z m 41.69948,-3.39664 c 2.82441,-2.89547 2.87983,-2.96445 2.64771,-3.29588 -0.13041,-0.18618 -0.23711,-0.51282 -0.23711,-0.72586 0,-0.38244 -0.0884,-0.41253 -6.95118,-2.36663 -3.82315,-1.0886 -7.02941,-1.97926 -7.125,-1.97926 -0.0956,0 -0.17382,0.0654 -0.17382,0.14526 0,0.0799 1.69543,2.54365 3.76764,5.475 2.99627,4.23855 3.83493,5.32974 4.09634,5.32974 0.18078,0 0.4597,0.099 0.61986,0.21991 0.16014,0.12096 0.33157,0.20534 0.38097,0.1875 0.0494,-0.0178 1.38796,-1.36323 2.97459,-2.98978 z m -70.7894,1.08708 c 0,-0.0799 -0.10125,-0.10645 -0.225,-0.0589 -0.12375,0.0475 -0.225,0.11285 -0.225,0.14529 0,0.0324 0.10125,0.0589 0.225,0.0589 0.12375,0 0.225,-0.0654 0.225,-0.14529 z m -1.13808,-0.37862 c -0.15737,-0.24016 -0.21011,-0.51292 -0.14745,-0.76257 0.0633,-0.25215 0.0428,-0.35479 -0.0585,-0.29224 -0.2406,0.14869 -0.18469,0.84841 0.0922,1.15441 0.34978,0.38651 0.40212,0.34064 0.11367,-0.0996 z m 1.73808,-0.47892 c 0,-0.45214 -0.52788,-1.10034 -0.88865,-1.09117 -0.14232,0.004 -0.073,0.0947 0.17424,0.22879 0.41343,0.22433 0.6764,0.81264 0.49467,1.10669 -0.0539,0.0872 -0.0265,0.15852 0.0609,0.15852 0.0874,0 0.15885,-0.18128 0.15885,-0.40283 z m -3.75813,-12.69126 -2.14446,-11.15776 -0.67487,-0.1805 c -0.45091,-0.1206 -0.89517,-0.4008 -1.33875,-0.84439 l -0.6639,-0.66389 -4.16632,2.03514 -4.16631,2.03515 0.16425,0.43517 c 0.11739,0.31101 0.11847,0.55647 0.004,0.86034 -0.15543,0.41175 0.0146,0.63801 5.38047,7.1625 9.07561,11.03516 9.58387,11.64269 9.66897,11.55759 0.0449,-0.0449 -0.8834,-5.1026 -2.06286,-11.23935 z m 78.60813,9.11909 c 0.19376,-0.20625 0.27303,-0.375 0.17615,-0.375 -0.0969,0 -0.17615,0.0653 -0.17615,0.14521 0,0.0799 -0.18562,0.24591 -0.4125,0.36899 -0.24757,0.13431 -0.318,0.22618 -0.17614,0.2298 0.12999,0.003 0.39489,-0.16275 0.58864,-0.369 z m -1.55988,-0.4626 c -0.13047,-0.42482 -0.17541,-0.4703 -0.21414,-0.21675 -0.0393,0.25708 0.18816,0.75435 0.345,0.75435 0.0188,0 -0.0401,-0.24192 -0.13086,-0.5376 z m 1.55988,-0.8874 c -0.45784,-0.48737 -0.56529,-0.37992 -0.12,0.12 0.18785,0.2109 0.37071,0.35428 0.40637,0.31863 0.0356,-0.0356 -0.0932,-0.23303 -0.28637,-0.43863 z m 8.475,-0.825 c 4.10829,-0.66 7.51229,-1.2 7.56443,-1.2 0.0521,0 0.16915,-0.19697 0.26001,-0.43769 l 0.16521,-0.4377 -5.18877,-4.54164 -5.18877,-4.54165 -0.76814,-0.0118 -0.76813,-0.0119 -2.40719,5.5851 -2.40717,5.58512 0.54426,0.59592 c 0.29934,0.32775 0.58485,0.60046 0.63446,0.60603 0.0496,0.006 3.45151,-0.52989 7.5598,-1.18989 z m -10.425,0.62542 c 0,-0.18777 -1.28928,-1.07542 -1.56202,-1.07542 -0.13089,0 -0.24021,-0.0844 -0.24296,-0.1875 -0.005,-0.17792 -23.97047,-17.89527 -24.06174,-17.78834 -0.0239,0.028 2.25951,3.19895 5.07417,7.04663 4.20664,5.75056 5.19195,7.01163 5.53549,7.08483 0.24348,0.0519 0.52088,0.26837 0.6645,0.51865 0.23361,0.40704 0.61709,0.53624 7.30706,2.46189 7.84451,2.258 7.2855,2.10919 7.2855,1.93926 z m 0.6905,-0.73792 c -0.0438,-0.14438 -0.86558,-3.63531 -1.82609,-7.75764 -1.05567,-4.53078 -1.83021,-7.55646 -1.95837,-7.65018 -0.11661,-0.0853 -0.2613,-0.33516 -0.32152,-0.55535 -0.0865,-0.31615 -7.26141,-8.07433 -7.46732,-8.07433 -0.14973,0 10.25195,22.11471 10.42952,22.1739 0.0843,0.0281 0.15328,0.18271 0.15328,0.34359 0,0.38983 0.71304,1.78251 0.91263,1.78251 0.0867,0 0.12171,-0.11813 0.0779,-0.2625 z m 3.02599,-5.70087 c 2.02035,-4.68806 2.4245,-5.74421 2.34678,-6.13277 -0.0917,-0.45871 -0.18208,-0.50418 -3.97231,-1.99884 -2.13314,-0.84118 -3.99938,-1.50496 -4.1472,-1.47505 -0.15498,0.0314 -0.26339,0.17939 -0.25607,0.34971 0.02,0.46596 3.41834,14.92032 3.50787,14.92032 0.0442,0 1.17857,-2.54852 2.52093,-5.66337 z m -5.15037,3.83494 c 0.3279,-0.0439 0.0443,-0.69571 -4.99674,-11.48247 -4.08271,-8.73618 -5.40635,-11.43627 -5.60688,-11.4375 -0.14438,-0.002 -0.40433,-0.14343 -0.57768,-0.31678 l -0.31518,-0.31518 -6.81506,2.81296 c -3.74827,1.54713 -6.84717,2.86494 -6.88642,2.92847 -0.0393,0.0635 5.51497,4.22877 12.34273,9.25612 9.54133,7.02538 12.42493,9.07819 12.46085,8.87079 0.0261,-0.15046 0.20054,-0.29044 0.39438,-0.31641 z m 19.04624,-1.65907 c -0.13494,-0.26813 -1.36029,-2.63063 -2.72301,-5.25 -1.95582,-3.75945 -2.53889,-4.7625 -2.76836,-4.7625 -0.1599,0 -0.42207,-0.0703 -0.58261,-0.15623 -0.23717,-0.12691 -0.57077,-0.007 -1.77938,0.6375 -1.69588,0.90494 -1.9288,1.25621 -1.23018,1.85529 0.21791,0.18684 2.38743,2.09514 4.82118,4.24067 2.43375,2.14551 4.44362,3.90585 4.46636,3.91185 0.0227,0.006 -0.0691,-0.20846 -0.204,-0.47658 z m -33.79498,-0.60692 c 0.002,-0.0657 -2.43972,-3.45447 -5.42347,-7.53064 -5.22534,-7.13847 -5.44041,-7.40814 -5.84382,-7.32746 -0.29736,0.0595 -0.5046,-0.002 -0.71453,-0.21192 -0.29425,-0.29425 -0.33999,-0.29254 -9.40576,0.34952 -5.01056,0.35487 -9.13445,0.66957 -9.16421,0.69933 -0.0907,0.0907 30.14534,14.2087 30.35483,14.17347 0.10749,-0.0181 0.19611,-0.0866 0.19696,-0.1523 z m -3.31738,-0.69528 c -0.12375,-0.0718 -6.52236,-3.07606 -14.21913,-6.67611 l -13.99413,-6.54553 -0.38861,0.30567 c -0.21372,0.16812 -0.55131,0.30567 -0.75018,0.30567 -0.4045,0 -1.09795,-0.61149 -1.09795,-0.96818 0,-0.1275 -0.0922,-0.23182 -0.20498,-0.23182 -0.11274,0 -5.46211,-0.47461 -11.8875,-1.05467 -6.42538,-0.58008 -11.9479,-1.0357 -12.27225,-1.0125 -0.43363,0.031 6.73248,2.15201 27.075,8.01356 15.2156,4.38425 27.73223,7.97658 27.81473,7.98294 0.0825,0.006 0.0488,-0.0472 -0.075,-0.11903 z m -83.85,-5.24472 c 0,-0.0739 -1.23188,-0.67788 -2.7375,-1.34209 -1.50563,-0.66422 -5.02791,-2.2218 -7.82729,-3.4613 -3.86824,-1.71277 -5.13747,-2.21407 -5.28843,-2.08878 -0.10924,0.0907 -0.40684,0.20744 -0.66132,0.25948 -0.4059,0.083 -0.6147,0.35225 -1.70103,2.19337 -1.24939,2.11747 -1.30014,2.28328 -0.88809,2.90221 0.0263,0.0395 17.15094,1.54307 18.84116,1.65426 0.14437,0.009 0.2625,-0.0432 0.2625,-0.11715 z m 0.40287,-1.12425 c -0.11214,-0.17399 -2.21621,-3.52259 -4.67568,-7.44134 -2.45949,-3.91875 -4.54614,-7.20511 -4.637,-7.30305 -0.0909,-0.0979 -0.34713,-0.19917 -0.56947,-0.22499 -0.37176,-0.0432 -0.63939,0.27727 -3.3263,3.98277 -2.36487,3.26136 -2.90022,4.08865 -2.80768,4.33878 0.0862,0.23313 2.04618,1.16433 7.97629,3.78964 7.90626,3.50019 8.61635,3.75264 8.03984,2.85819 z m 6.03849,-1.4127 c 4.17451,-1.86942 4.26921,-1.92152 4.39839,-2.42004 0.0975,-0.37623 0.0801,-0.54048 -0.0664,-0.62799 -3.70598,-2.21372 -19.13705,-10.85625 -19.23107,-10.77081 -0.0733,0.0666 2.00592,3.51886 4.6499,7.72021 4.78485,7.60326 5.04975,7.9667 5.83278,8.00235 0.0825,0.004 2.06986,-0.85291 4.41636,-1.90372 z m 107.76096,-1.67229 c -0.07,-0.0623 -2.01732,-0.36252 -4.32732,-0.66714 -2.31,-0.3046 -5.09631,-0.67446 -6.19179,-0.82188 -1.19757,-0.16118 -1.97211,-0.20901 -1.94242,-0.11997 0.0272,0.0814 1.75663,0.82368 3.8433,1.64943 3.74392,1.48155 3.7995,1.49805 4.21557,1.25228 0.54337,-0.32099 0.93549,-0.31515 1.34946,0.0201 0.32541,0.2635 0.36199,0.25382 1.75642,-0.46518 0.78326,-0.40386 1.36682,-0.78528 1.29678,-0.84759 z m -101.67732,0.44366 c -0.051,-0.0825 -0.18515,-0.15 -0.29814,-0.15 -0.11298,0 -0.31472,-0.10929 -0.44829,-0.24285 -0.34332,-0.34334 -0.48425,-0.12254 -0.1544,0.24193 0.27234,0.30095 1.07685,0.43572 0.90083,0.15092 z m 0.76657,-1.28591 c -0.0452,-0.11775 -0.15306,-0.21409 -0.23973,-0.21409 -0.15366,0 -0.0659,0.65212 0.13121,0.975 0.11922,0.19528 0.21574,-0.4815 0.10852,-0.76091 z m -1.67859,-0.0835 c -0.11833,-0.19148 -0.36298,-0.008 -0.36298,0.27166 0,0.19068 0.0417,0.19986 0.22335,0.0491 0.12283,-0.10194 0.18567,-0.24632 0.13963,-0.3208 z m 0.1632,-0.90141 c 0.4263,-0.15416 0.71105,-0.6311 2.91327,-4.87957 1.84316,-3.55579 2.41902,-4.79539 2.35193,-5.0627 -0.0885,-0.35263 -0.10019,-0.35437 -2.97762,-0.44428 -1.58882,-0.0497 -5.72376,-0.12522 -9.18876,-0.16793 -3.465,-0.0427 -7.75125,-0.11774 -9.525,-0.16673 -2.21835,-0.0613 -3.17819,-0.0407 -3.075,0.066 0.14446,0.14929 18.83325,10.81424 18.96435,10.8222 0.0354,0.002 0.27697,-0.073 0.53683,-0.16695 z m 5.75379,-1.91913 4.17791,-2.09 -0.0698,-0.72679 c -0.046,-0.47855 0.0152,-0.93024 0.17903,-1.3224 l 0.24885,-0.59561 -0.59745,-0.52512 c -2.58611,-2.27296 -2.44181,-2.17599 -3.22908,-2.17005 l -0.73562,0.006 -2.39838,4.62257 c -2.3731,4.57384 -2.48883,4.87695 -1.86687,4.88953 0.0625,0.002 1.99359,-0.9382 4.29144,-2.08768 z m -33.96666,-0.61002 c 0.26925,0 0.84399,-0.69701 2.80023,-3.39584 1.3538,-1.86769 2.51531,-3.48745 2.58111,-3.59947 0.0659,-0.11218 -0.37203,0.0221 -0.975,0.29889 -5.11965,2.35027 -8.06965,3.79123 -8.06965,3.94168 0,0.29442 2.89083,2.92116 3.11863,2.83374 0.11325,-0.0435 0.35835,-0.079 0.54468,-0.079 z m 81.44624,-0.59798 c 4.61151,-0.32787 8.40258,-0.61432 8.42461,-0.63657 0.022,-0.0223 -3.60694,-0.97246 -8.06437,-2.11161 -8.04276,-2.05537 -8.10608,-2.06879 -8.32122,-1.76163 -0.26045,0.37182 -0.96752,0.75778 -1.38827,0.75778 -0.33774,0 -0.35013,0.0361 -0.66639,1.94301 l -0.2103,1.26803 0.43319,0.40467 c 0.23826,0.22255 0.4332,0.47883 0.4332,0.56947 0,0.23144 0.0346,0.22983 9.35955,-0.43315 z m -40.70955,0.22683 c 0,-0.12163 -0.19841,-0.32374 -0.4409,-0.44914 -0.24249,-0.1254 -0.5326,-0.35892 -0.64468,-0.51894 -0.13889,-0.1983 -0.27125,-0.24926 -0.41564,-0.16002 -0.17634,0.10899 -0.16257,0.18636 0.0822,0.46156 0.30243,0.34008 1.10664,0.88613 1.30653,0.88713 0.0619,0 0.1125,-0.099 0.1125,-0.22059 z m 0.65424,-0.004 c -0.0475,-0.12375 -0.11286,-0.225 -0.14529,-0.225 -0.0324,0 -0.0589,0.10125 -0.0589,0.225 0,0.12375 0.0654,0.225 0.14529,0.225 0.0799,0 0.10644,-0.10125 0.0589,-0.225 z m 1.22934,-0.38887 c 0.19476,-0.31512 -0.16181,-0.41748 -0.51765,-0.14861 -0.4223,0.31908 -0.31097,0.70065 0.13482,0.46208 0.1554,-0.0832 0.32767,-0.22422 0.38283,-0.31347 z m 27.7627,-0.10266 c 0.43065,-0.37325 0.49134,-0.54177 0.70389,-1.95458 l 0.23261,-1.54611 -0.60363,-0.60363 -0.60363,-0.60363 -11.35026,1.5185 c -6.24264,0.83518 -11.41776,1.54411 -11.50026,1.5754 -0.0825,0.0313 0.0525,0.0658 0.3,0.0767 0.2475,0.0109 5.07375,0.447 10.725,0.96914 5.65125,0.52213 10.57875,0.95548 10.95,0.96301 0.53134,0.0108 0.7753,-0.0733 1.14628,-0.39478 z m -27.31512,-0.62349 c -0.0544,-0.088 -0.17065,-0.15998 -0.25839,-0.15998 -0.0995,0 -0.0881,0.0861 0.0302,0.22863 0.20573,0.24789 0.3896,0.19257 0.22815,-0.0686 z m 44.44256,-3.88317 c -2.17181,-2.1129 -4.66116,-4.53581 -5.53194,-5.38422 -1.03404,-1.00751 -1.69743,-1.54259 -1.9125,-1.54259 -0.1811,0 -0.47081,-0.14152 -0.64379,-0.3145 l -0.3145,-0.31451 -1.66391,0.57872 c -1.54029,0.53572 -1.67269,0.61264 -1.78221,1.03527 -0.16098,0.62128 -0.75414,1.14262 -1.42386,1.25148 -0.51738,0.0841 -0.58617,0.16014 -1.00249,1.10832 l -0.44702,1.01802 0.32309,0.22629 c 0.40675,0.28489 0.65697,0.74167 0.76626,1.39882 l 0.0853,0.51291 8.62443,2.20629 c 4.74342,1.21346 8.68008,2.17367 8.74814,2.13381 0.068,-0.0399 -1.65321,-1.80121 -3.825,-3.91411 z m 12.92628,0.7747 c 3.50625,-1.44732 6.42453,-2.67763 6.48507,-2.73406 0.0605,-0.0564 -2.19663,-1.28774 -5.01594,-2.73626 -5.38355,-2.76598 -5.16618,-2.68393 -6.08226,-2.29608 -0.021,0.009 -0.71655,2.30273 -1.54574,5.09744 -0.93139,3.13917 -1.47465,5.21272 -1.42134,5.42512 0.0844,0.33625 0.0986,0.33866 0.64575,0.10956 0.3077,-0.12885 3.42821,-1.41841 6.93446,-2.86572 z m -61.16319,2.01099 c 0.0748,-0.69813 -0.10791,-1.07955 -0.34076,-0.71124 -0.22693,0.35894 -0.18055,1.34874 0.0632,1.34874 0.13545,0 0.23334,-0.22482 0.27756,-0.6375 z m 18.47848,-1.76764 c 6.76226,-0.91034 12.30623,-1.66971 12.31995,-1.6875 0.0137,-0.0178 0.0644,-0.26861 0.11265,-0.55736 l 0.0877,-0.525 -3.30551,-2.43597 c -2.74398,-2.02216 -3.35263,-2.41075 -3.58294,-2.2875 -0.40323,0.21581 -1.0827,0.18188 -1.4454,-0.0722 -0.29393,-0.20588 -0.9009,0.0662 -9.07088,4.06659 -4.81573,2.35798 -8.77603,4.30555 -8.80068,4.32793 -0.0246,0.0224 0,0.21743 0.0538,0.43341 0.0864,0.34422 0.17498,0.3927 0.71745,0.3927 0.34038,0 6.15164,-0.74481 12.91389,-1.65514 z m -14.31529,1.35519 c 0,-0.0825 -0.0635,-0.15 -0.14115,-0.15 -0.0776,0 -0.18287,0.0675 -0.23385,0.15 -0.051,0.0825 0.0125,0.15 0.14115,0.15 0.12861,0 0.23385,-0.0675 0.23385,-0.15 z m -0.38919,-0.57705 c 0.0432,-0.0699 -0.12203,-0.31918 -0.36714,-0.55401 -0.33051,-0.31665 -0.48932,-0.3833 -0.61466,-0.25796 -0.12534,0.12534 -0.0573,0.26725 0.26349,0.54927 0.46803,0.41151 0.59715,0.45873 0.71831,0.26269 z m -41.58987,-2.39288 c 3.9697,-1.86346 4.71433,-2.26195 4.63728,-2.48163 -0.0505,-0.14392 -1.46424,-1.1973 -3.14168,-2.34082 -3.01036,-2.0522 -3.05587,-2.0766 -3.51358,-1.88416 -0.43572,0.18322 -0.55616,0.4411 -1.99577,4.27333 -1.44339,3.84232 -1.51759,4.09426 -1.28212,4.35328 0.13746,0.1512 0.32122,0.28055 0.40836,0.28743 0.0871,0.007 2.28651,-0.98647 4.88751,-2.20743 z m 38.60934,1.97767 c 0.35481,-0.23248 0.50994,-0.65775 0.23995,-0.65775 -0.0714,0 -0.30763,0.13991 -0.525,0.31089 -0.67128,0.52803 -0.43335,0.81757 0.28505,0.34686 z m 12.45333,-4.1712 8.69139,-4.26344 -0.0506,-0.54879 c -0.0278,-0.30185 0.0292,-0.74139 0.12666,-0.97681 0.1674,-0.40413 0.0238,-0.71228 -2.57437,-5.52381 -2.57091,-4.76107 -2.78123,-5.10048 -3.20166,-5.16697 -0.2475,-0.0392 -0.46122,-0.0623 -0.47495,-0.0514 -0.0136,0.0108 -2.81943,4.39479 -6.23494,9.74209 l -6.21,9.72236 0.60994,0.64447 c 0.33548,0.35447 0.61382,0.65378 0.61856,0.66515 0.005,0.0114 3.91974,-1.89791 8.7,-4.2428 z m -11.18361,3.58846 c 0,-0.12381 -0.13281,-0.225 -0.29529,-0.225 -0.20087,0 -0.26768,0.072 -0.20895,0.225 0.0475,0.12374 0.18036,0.225 0.29529,0.225 0.11491,0 0.20895,-0.10126 0.20895,-0.225 z m -2.0897,-0.28566 c 0.23574,-0.19835 0.51348,-0.38894 0.61722,-0.42351 0.12833,-0.0428 -0.88434,-2.62364 -3.1692,-8.07686 -3.07317,-7.33467 -3.6211,-8.57555 -3.60174,-8.15647 0.004,0.0784 0.35964,2.73081 0.79116,5.89431 l 0.78456,5.75182 0.45908,0.19302 c 0.96171,0.40437 1.37613,1.42967 0.86995,2.15234 -0.23191,0.33109 -0.21177,0.36522 0.7125,1.20708 1.60617,1.46295 1.99908,1.80996 2.05451,1.81453 0.0293,0.002 0.24622,-0.15791 0.48196,-0.35626 z m 33.65237,-0.25644 c 0.22171,-0.17441 0.36934,-0.35088 0.32806,-0.39218 -0.0769,-0.0768 -1.44073,0.53625 -1.44073,0.64766 0,0.19128 0.76926,0.0147 1.11267,-0.25548 z m -1.41267,0.0403 c 0,-0.19896 -0.59061,-0.68264 -0.70001,-0.57326 -0.054,0.054 0.0244,0.23358 0.17418,0.39909 0.28301,0.31272 0.52583,0.39315 0.52583,0.17417 z m -23.02613,-10.14825 c 5.16033,-8.07222 6.21731,-9.81447 6.14232,-10.1247 -0.0498,-0.20607 -0.10197,-0.3825 -0.11589,-0.39204 -0.014,-0.01 -1.6287,-0.56499 -3.5884,-1.23432 -2.90739,-0.993 -3.6251,-1.18859 -3.9,-1.06281 -0.31053,0.14209 -0.51803,1.01925 -2.65149,11.209 -1.27304,6.08018 -2.34692,11.14845 -2.38641,11.26283 -0.30246,0.87598 1.0599,-1.14831 6.49987,-9.65796 z m -4.57465,-1.55769 2.3421,-11.15771 -0.296,-0.33229 -0.29598,-0.33231 -2.03718,0.89547 c -1.12044,0.49251 -3.0672,1.34797 -4.32613,1.90102 -1.25894,0.55305 -2.25473,1.03982 -2.21286,1.08168 0.0419,0.0419 -0.63248,0.46238 -1.49853,0.93446 -1.05881,0.57717 -1.57464,0.94308 -1.57464,1.11699 0,0.14224 -0.0895,0.39177 -0.19892,0.5545 -0.17704,0.26337 0.15197,1.12806 2.9949,7.87088 1.75658,4.16625 3.2984,7.83213 3.42626,8.14641 0.21657,0.53233 0.27016,0.56824 0.78366,0.525 l 0.5512,-0.0464 2.34212,-11.15769 z m 29.55078,10.41606 c 0,-0.39788 -0.65846,-1.27422 -0.82934,-1.10378 -0.0577,0.0575 0.0378,0.28602 0.21224,0.50774 0.1744,0.22171 0.3171,0.52902 0.3171,0.6829 0,0.15387 0.0675,0.27977 0.15,0.27977 0.0825,0 0.15,-0.16499 0.15,-0.36663 z m -2.55,-0.0834 c 0,-0.165 -0.0675,-0.3 -0.15,-0.3 -0.0825,0 -0.15,0.135 -0.15,0.3 0,0.165 0.0675,0.3 0.15,0.3 0.0825,0 0.15,-0.135 0.15,-0.3 z m 0.84418,-0.85529 c 0.49287,-0.21664 0.5309,-0.26349 0.25106,-0.30942 -0.3675,-0.0603 -0.94524,0.19638 -0.94524,0.41998 0,0.19002 0.0162,0.18745 0.69418,-0.11056 z m -36.75799,-0.0266 c -0.14978,-0.24235 -0.68619,-0.30416 -0.68619,-0.0791 0,0.12631 0.154,0.21096 0.38385,0.21096 0.21112,0 0.34717,-0.0594 0.30234,-0.1319 z m 0.81381,-0.8893 c 0,-0.21146 -0.14676,-0.54069 -0.32615,-0.73163 -0.33547,-0.3571 -0.72385,-0.46288 -0.72385,-0.19717 0,0.0825 0.0627,0.15 0.13929,0.15 0.36949,0 0.63361,0.50589 0.53595,1.02651 -0.0885,0.47179 -0.0733,0.50863 0.13762,0.33355 0.13043,-0.10824 0.23714,-0.36981 0.23714,-0.58126 z m 35.19319,0.47049 c 0.21045,-0.1379 0.62394,-0.28994 0.91887,-0.33788 0.49652,-0.0807 0.56828,-0.16278 0.96843,-1.1076 l 0.4322,-1.02044 -0.36701,-0.43613 c -0.20184,-0.2399 -0.39277,-0.51353 -0.4243,-0.60811 -0.0493,-0.14776 -7.26998,-1.77171 -7.93481,-1.78453 -0.13113,-0.003 -0.31516,0.16383 -0.40896,0.36969 -0.16579,0.36387 -0.0818,0.44089 3.01343,2.76265 1.75117,1.31358 3.23695,2.3939 3.30174,2.40069 0.0648,0.007 0.28996,-0.10045 0.50041,-0.23835 z m -37.74319,-0.73929 c 0,-0.132 0.2275,-0.46751 0.50556,-0.74556 l 0.50554,-0.50555 -0.79552,-5.88663 c -0.65868,-4.87397 -0.84138,-5.92015 -1.062,-6.08146 -0.14655,-0.10716 -0.30783,-0.17706 -0.35841,-0.15533 -0.14394,0.0619 -23.61251,12.90987 -23.68268,12.96522 -0.25468,0.20093 1.33626,0.26453 10.59728,0.42372 15.3933,0.2646 14.29023,0.26571 14.29023,-0.0144 z m 0.87592,-0.14207 c 0.24575,-0.53937 0.21792,-0.60411 -0.12592,-0.29293 -0.30299,0.2742 -0.40635,0.675 -0.17408,0.675 0.0693,0 0.20426,-0.17193 0.3,-0.38207 z m -27.57592,-0.89293 c 0.21766,-0.26226 0.74056,-0.2912 1.23043,-0.0681 0.30351,0.13823 1.7388,-0.60585 12.04457,-6.24409 6.435,-3.52058 11.763,-6.45882 11.83999,-6.52944 0.077,-0.0706 0.10542,-0.16301 0.0631,-0.20528 -0.0935,-0.0935 -30.27198,8.19947 -31.06563,8.5368 -0.30938,0.1315 -0.56051,0.32256 -0.55805,0.42458 0.004,0.16267 5.92122,4.29645 6.16469,4.30657 0.0518,0.002 0.17815,-0.0973 0.28086,-0.22108 z m 68.33182,-1.34318 c 0.2025,-0.2025 0.36548,-0.45562 0.36218,-0.5625 -0.003,-0.10687 -0.10589,-0.0104 -0.22796,0.21465 -0.12916,0.23802 -0.42447,0.46749 -0.70648,0.54897 -0.38613,0.11156 -0.41462,0.14274 -0.14024,0.15353 0.18938,0.007 0.51,-0.15215 0.7125,-0.35465 z m -1.53006,-0.16329 c -0.0489,-0.1273 -0.12099,-0.1993 -0.16032,-0.15999 -0.0393,0.0393 -0.027,0.14349 0.0274,0.23148 0.1479,0.23931 0.23436,0.19283 0.13293,-0.0715 z m 0.58868,-1.55148 c 0.38613,-0.11155 0.41461,-0.14274 0.14023,-0.15352 -0.36898,-0.0145 -1.08459,0.5962 -1.07467,0.91714 0.003,0.10688 0.10588,0.0104 0.22795,-0.21465 0.12917,-0.23802 0.42447,-0.46749 0.70649,-0.54897 z m -1.31753,0.43953 c 0.16626,-0.52383 0.9515,-1.05658 1.55735,-1.05658 0.52515,0 0.58012,-0.0466 0.95446,-0.80993 0.37692,-0.76851 0.38379,-0.82207 0.13428,-1.04788 -0.24138,-0.21845 -0.66631,-0.16524 -5.17942,0.64837 -2.70407,0.48749 -4.94025,0.91011 -4.96932,0.93917 -0.0391,0.0391 6.66687,1.51243 7.30713,1.6054 0.0563,0.008 0.1443,-0.11716 0.19552,-0.27855 z m 2.3457,-0.19659 c -0.14814,-0.14703 -0.16537,-0.12981 -0.084,0.084 0.0563,0.14793 0.14021,0.23118 0.18639,0.18501 0.0462,-0.0462 9e-5,-0.16722 -0.10242,-0.26898 z m -11.86861,0.13203 c 0,-0.0319 -0.19893,-0.0872 -0.44208,-0.12287 -0.24314,-0.0357 -0.40791,-0.01 -0.36615,0.058 0.0743,0.12027 0.80823,0.17919 0.80823,0.0649 z m 15.78336,-1.12717 c 0.0596,-0.0531 -0.22631,-0.38483 -0.63533,-0.73715 -0.64782,-0.55803 -0.78483,-0.61857 -1.06293,-0.46972 -0.17559,0.094 -0.5382,0.14529 -0.80578,0.11406 -0.45147,-0.0527 -0.51666,-0.002 -0.90462,0.7161 -0.41357,0.7645 -0.41505,0.77692 -0.13734,1.1451 l 0.28074,0.37219 1.57845,-0.522 c 0.86815,-0.28711 1.62721,-0.56547 1.68681,-0.61858 z m -15.03795,0.21014 c 0,-0.0825 -0.0654,-0.0487 -0.14541,0.075 -0.08,0.12375 -0.14541,0.2925 -0.14541,0.375 0,0.0825 0.0654,0.0487 0.14541,-0.075 0.08,-0.12375 0.14541,-0.2925 0.14541,-0.375 z m -2.02041,-0.13567 c 0,-0.28088 -0.0506,-0.47939 -0.1125,-0.44115 -0.19506,0.12055 -0.10773,0.95182 0.1,0.95182 0.007,0 0.0125,-0.2298 0.0125,-0.51067 z m 1.59588,-0.85224 c -0.38406,-0.31136 -0.86474,-0.36611 -1.22088,-0.13904 -0.15534,0.099 -0.0561,0.11633 0.32061,0.0558 0.42186,-0.0677 0.60898,-0.0214 0.825,0.20425 0.15366,0.16054 0.31314,0.26357 0.35439,0.22898 0.0412,-0.0346 -0.0844,-0.19211 -0.27912,-0.35001 z m 9.80412,-3.43355 c 4.62,-1.91328 8.463,-3.53941 8.53999,-3.61362 0.077,-0.0742 0.10266,-0.17227 0.057,-0.21792 -0.0456,-0.0456 -4.90114,-1.71114 -10.78999,-3.7011 l -10.707,-3.6181 -2.80497,-2.01306 c -1.93892,-1.39152 -2.8686,-1.97474 -3.01104,-1.88891 -0.16931,0.10202 -0.0925,0.61494 0.43047,2.87468 0.3501,1.51278 0.65881,2.76153 0.68604,2.775 1.13668,0.56256 1.40433,1.03929 0.98935,1.76232 l -0.25162,0.43843 2.71524,5.01471 2.71522,5.01473 0.72072,-0.0854 c 0.67341,-0.0797 0.7532,-0.0517 1.21565,0.42746 0.36754,0.38082 0.57216,0.48663 0.79494,0.41112 0.165,-0.0559 4.08,-1.66709 8.7,-3.58037 z m 6.42235,3.57614 c 0.18021,-0.0937 0.34173,-0.18088 0.35895,-0.19379 0.14574,-0.10934 2.24684,-6.53589 2.13684,-6.53589 -0.0793,0 -1.05244,0.85493 -2.16243,1.89984 l -2.01816,1.89984 0.086,0.62769 c 0.0476,0.34749 0.0123,0.76545 -0.0792,0.93633 -0.1447,0.27039 -0.0771,0.38411 0.54519,0.91724 0.82496,0.70674 0.71798,0.66436 1.13274,0.44874 z m -9.05925,-0.96213 c 2.11029,-0.37535 3.95502,-0.71741 4.0994,-0.76011 0.16045,-0.0475 0.2625,-0.22533 0.2625,-0.45754 0,-0.58249 0.89415,-1.3999 1.53133,-1.3999 0.28122,0 0.63959,0.0938 0.79634,0.20841 0.26082,0.19071 0.41613,0.0868 1.82968,-1.22398 0.84957,-0.78782 1.51937,-1.4577 1.48844,-1.48863 -0.0413,-0.0413 -9.49998,3.8311 -13.82079,5.65833 -0.51824,0.21915 -0.12326,0.16356 3.8131,-0.53658 z m 6.37013,-0.0404 c 0.0418,-0.0676 -0.12302,-0.0937 -0.36615,-0.058 -0.24315,0.0357 -0.44208,0.091 -0.44208,0.12287 0,0.1143 0.7339,0.0554 0.80823,-0.0649 z m 0.66135,-1.09734 c -0.0472,-0.30024 -0.0684,-0.27912 -0.1374,0.13741 -0.0494,0.29808 -0.0274,0.43802 0.0558,0.35481 0.0756,-0.0756 0.1123,-0.29707 0.0816,-0.49222 z m -1.59786,-0.74142 c 0.1732,-0.0927 0.52606,-0.1281 0.78411,-0.0787 0.33646,0.0645 0.40552,0.0482 0.24417,-0.0576 -0.6065,-0.39758 -1.66499,0.20305 -1.63647,0.92859 0.0108,0.27462 0.0419,0.24633 0.15339,-0.13971 0.0769,-0.26622 0.28158,-0.55989 0.4548,-0.65259 z m -56.64672,-3.06459 c 7.57087,-2.08074 12.59422,-3.53304 12.81802,-3.70584 0.21143,-0.16323 0.5466,-0.26542 0.78767,-0.24013 0.3858,0.0405 0.57168,-0.16572 2.30479,-2.55659 1.03683,-1.43032 1.8629,-2.62285 1.83569,-2.65005 -0.0389,-0.0389 -30.00543,12.28784 -30.63491,12.60174 -0.37125,0.18512 1.01754,-0.18652 12.88874,-3.44913 z m 20.21202,-6.53641 c 2.66089,-1.16734 4.88946,-2.16939 4.9524,-2.22682 0.0629,-0.0574 -1.19835,-0.2589 -2.80283,-0.44776 -2.6913,-0.31678 -2.94379,-0.32477 -3.26028,-0.10308 -0.18868,0.13215 -0.44617,0.24176 -0.57219,0.24357 -0.17983,0.003 -2.95851,3.65119 -3.52965,4.6347 -0.15657,0.26961 -0.57117,0.4367 5.21255,-2.10061 z m 14.90991,-3.29236 c -0.3644,-1.57883 -0.72168,-2.92977 -0.79398,-3.00207 -0.14772,-0.14772 -6.10379,3.66899 -6.16901,3.95315 -0.0255,0.11088 1.31483,0.63517 3.525,1.3789 l 3.56606,1.2 0.26722,-0.32967 c 0.25883,-0.31928 0.24636,-0.4201 -0.39529,-3.20031 z m -8.87943,0.47383 c -0.944,-0.86892 -6.29732,-4.94744 -6.37964,-4.86045 -0.0607,0.0641 -0.25708,0.84865 -0.43641,1.74336 -0.46717,2.33092 -0.42154,2.41288 1.47285,2.64562 0.79788,0.098 2.09195,0.26562 2.8757,0.37242 1.75095,0.23859 2.6587,0.27503 2.4675,0.0991 z m 54.87727,96.58723 c -0.55348,-0.33748 -0.94503,-1.00557 -0.94422,-1.61112 10e-4,-0.90109 0.96015,-1.84495 1.87445,-1.84495 0.92844,0 1.87387,0.946 1.87387,1.875 0,0.94324 -0.94714,1.87572 -1.90392,1.87444 -0.23098,0 -0.63606,-0.13233 -0.90018,-0.29337 z m -18.01204,-1.89703 c -1.96794,-1.00396 -1.41596,-3.97308 0.78474,-4.22113 1.72095,-0.19398 2.99965,1.60198 2.25615,3.1688 -0.52029,1.09646 -1.9706,1.59834 -3.04089,1.05233 z m -45.18273,-6.50905 c -0.165,-0.16499 -0.3,-0.43499 -0.3,-0.59999 0,-0.165 0.135,-0.435 0.3,-0.6 0.165,-0.165 0.435,-0.30001 0.6,-0.30001 0.165,0 0.435,0.13501 0.6,0.30001 0.165,0.165 0.3,0.435 0.3,0.6 0,0.165 -0.135,0.435 -0.3,0.59999 -0.165,0.16501 -0.435,0.30001 -0.6,0.30001 -0.165,0 -0.435,-0.135 -0.6,-0.30001 z m 73.05,-0.44999 c -0.165,-0.165 -0.3,-0.435 -0.3,-0.6 0,-0.165 0.135,-0.43501 0.3,-0.6 0.165,-0.165 0.435,-0.3 0.6,-0.3 0.165,0 0.435,0.135 0.6,0.3 0.165,0.16499 0.3,0.435 0.3,0.6 0,0.165 -0.135,0.435 -0.3,0.6 -0.165,0.165 -0.435,0.3 -0.6,0.3 -0.165,0 -0.435,-0.135 -0.6,-0.3 z m -0.53697,-10.67168 c -0.40911,-0.19852 -0.81303,-0.89602 -0.81303,-1.40397 0,-0.59008 0.87858,-1.42435 1.5,-1.42435 0.62142,0 1.5,0.83427 1.5,1.42435 0,1.13294 -1.18188,1.89167 -2.18697,1.40397 z m 1.3898,-0.60447 c 0.43579,-0.40941 0.44415,-0.97629 0.021,-1.42668 -0.40941,-0.43579 -0.97629,-0.44415 -1.42668,-0.021 -0.4358,0.40941 -0.44415,0.97629 -0.021,1.42668 0.40941,0.4358 0.97629,0.44415 1.42668,0.021 z m -1.30283,-0.12385 c -0.165,-0.165 -0.3,-0.435 -0.3,-0.6 0,-0.165 0.135,-0.435 0.3,-0.6 0.165,-0.165 0.435,-0.3 0.6,-0.3 0.165,0 0.435,0.135 0.6,0.3 0.165,0.165 0.3,0.435 0.3,0.6 0,0.165 -0.135,0.435 -0.3,0.6 -0.165,0.165 -0.435,0.3 -0.6,0.3 -0.165,0 -0.435,-0.135 -0.6,-0.3 z m 10.95,-7.5 c -0.165,-0.165 -0.3,-0.435 -0.3,-0.6 0,-0.165 0.135,-0.435 0.3,-0.6 0.165,-0.165 0.435,-0.3 0.6,-0.3 0.165,0 0.435,0.135 0.6,0.3 0.165,0.165 0.3,0.435 0.3,0.6 0,0.165 -0.135,0.435 -0.3,0.6 -0.165,0.165 -0.435,0.3 -0.6,0.3 -0.165,0 -0.435,-0.135 -0.6,-0.3 z m 15.6,-10.65 c -0.165,-0.165 -0.3,-0.435 -0.3,-0.6 0,-0.165 0.135,-0.435 0.3,-0.6 0.165,-0.165 0.435,-0.3 0.6,-0.3 0.165,0 0.435,0.135 0.6,0.3 0.165,0.165 0.3,0.435 0.3,0.6 0,0.165 -0.135,0.435 -0.3,0.6 -0.165,0.165 -0.435,0.3 -0.6,0.3 -0.165,0 -0.435,-0.135 -0.6,-0.3 z m 5.85,-35.7 c -0.165,-0.165 -0.3,-0.435 -0.3,-0.6 0,-0.165 0.135,-0.435 0.3,-0.6 0.165,-0.165 0.435,-0.3 0.6,-0.3 0.165,0 0.435,0.135 0.6,0.3 0.165,0.165 0.3,0.435 0.3,0.6 0,0.165 -0.135,0.435 -0.3,0.6 -0.165,0.165 -0.435,0.3 -0.6,0.3 -0.165,0 -0.435,-0.135 -0.6,-0.3 z m -157.5,-7.2 c -0.165,-0.165 -0.3,-0.435 -0.3,-0.6 0,-0.165 0.135,-0.435 0.3,-0.6 0.165,-0.165 0.435,-0.3 0.6,-0.3 0.165,0 0.435,0.135 0.6,0.3 0.165,0.165 0.3,0.435 0.3,0.6 0,0.165 -0.135,0.435 -0.3,0.6 -0.165,0.165 -0.435,0.3 -0.6,0.3 -0.165,0 -0.435,-0.135 -0.6,-0.3 z m 133.65,-7.05 c -0.165,-0.165 -0.3,-0.435 -0.3,-0.6 0,-0.165 0.135,-0.435 0.3,-0.6 0.165,-0.165 0.435,-0.3 0.6,-0.3 0.165,0 0.435,0.135 0.6,0.3 0.165,0.165 0.3,0.435 0.3,0.6 0,0.165 -0.135,0.435 -0.3,0.6 -0.165,0.165 -0.435,0.3 -0.6,0.3 -0.165,0 -0.435,-0.135 -0.6,-0.3 z m -109.93349,-8.00933 c -1.30041,-0.72076 -0.75637,-2.79067 0.73349,-2.79067 0.76003,0 1.5,0.73281 1.5,1.48549 0,1.12611 -1.24448,1.85334 -2.23349,1.30518 z m 18.3,-6.6 c -1.30041,-0.72076 -0.75637,-2.79067 0.73349,-2.79067 0.76003,0 1.5,0.73281 1.5,1.48549 0,1.12611 -1.24448,1.85334 -2.23349,1.30518 z m 71.85,-0.15 c -1.30041,-0.72076 -0.75637,-2.79067 0.73349,-2.79067 0.76003,0 1.5,0.73281 1.5,1.48549 0,1.12611 -1.24448,1.85334 -2.23349,1.30518 z"
           style="fill:#000000" />
        <ellipse
           ry="1.0076567"
           rx="0.97775894"
           cy="532.95685"
           cx="372.19684"
           id="path4173"
           style="opacity:0.98000004;fill:#000000;fill-opacity:1;stroke:#000000;stroke-width:0.21773213;stroke-linecap:round;stroke-linejoin:round;stroke-miterlimit:4;stroke-dasharray:none;stroke-opacity:0" />
        <ellipse
           style="opacity:0.98000004;fill:#000000;fill-opacity:1;stroke:#000000;stroke-width:0.21773213;stroke-linecap:round;stroke-linejoin:round;stroke-miterlimit:4;stroke-dasharray:none;stroke-opacity:0"
           id="ellipse4175"
           cx="365.14099"
           cy="519.74207"
           rx="0.97775894"
           ry="1.0076567" />
        <ellipse
           ry="1.0076567"
           rx="0.97775894"
           cy="518.008"
           cx="350.5509"
           id="ellipse4177"
           style="opacity:0.98000004;fill:#000000;fill-opacity:1;stroke:#000000;stroke-width:0.21773213;stroke-linecap:round;stroke-linejoin:round;stroke-miterlimit:4;stroke-dasharray:none;stroke-opacity:0" />
        <ellipse
           style="opacity:0.98000004;fill:#000000;fill-opacity:1;stroke:#000000;stroke-width:0.21773213;stroke-linecap:round;stroke-linejoin:round;stroke-miterlimit:4;stroke-dasharray:none;stroke-opacity:0"
           id="ellipse4179"
           cx="341.16302"
           cy="508.44073"
           rx="0.97775894"
           ry="1.0076567" />
        <ellipse
           ry="1.0076567"
           rx="0.97775894"
           cy="502.22198"
           cx="329.50293"
           id="ellipse4181"
           style="opacity:0.98000004;fill:#000000;fill-opacity:1;stroke:#000000;stroke-width:0.21773213;stroke-linecap:round;stroke-linejoin:round;stroke-miterlimit:4;stroke-dasharray:none;stroke-opacity:0" />
        <ellipse
           style="opacity:0.98000004;fill:#000000;fill-opacity:1;stroke:#000000;stroke-width:0.21773213;stroke-linecap:round;stroke-linejoin:round;stroke-miterlimit:4;stroke-dasharray:none;stroke-opacity:0"
           id="ellipse4183"
           cx="325.55643"
           cy="514.24084"
           rx="0.97775894"
           ry="1.0076567" />
        <ellipse
           style="opacity:0.98000004;fill:#000000;fill-opacity:1;stroke:#000000;stroke-width:0.21773213;stroke-linecap:round;stroke-linejoin:round;stroke-miterlimit:4;stroke-dasharray:none;stroke-opacity:0"
           id="ellipse4187"
           cx="316.04895"
           cy="494.08981"
           rx="0.97775894"
           ry="1.0076567" />
        <ellipse
           ry="1.0076567"
           rx="0.97775894"
           cy="502.22198"
           cx="313.35815"
           id="ellipse4189"
           style="opacity:0.98000004;fill:#000000;fill-opacity:1;stroke:#000000;stroke-width:0.21773213;stroke-linecap:round;stroke-linejoin:round;stroke-miterlimit:4;stroke-dasharray:none;stroke-opacity:0" />
        <ellipse
           ry="1.0076567"
           rx="0.97775894"
           cy="494.08981"
           cx="316.04895"
           id="ellipse4191"
           style="opacity:0.98000004;fill:#000000;fill-opacity:1;stroke:#000000;stroke-width:0.21773213;stroke-linecap:round;stroke-linejoin:round;stroke-miterlimit:4;stroke-dasharray:none;stroke-opacity:0" />
        <ellipse
           style="opacity:0.98000004;fill:#000000;fill-opacity:1;stroke:#000000;stroke-width:0.21773213;stroke-linecap:round;stroke-linejoin:round;stroke-miterlimit:4;stroke-dasharray:none;stroke-opacity:0"
           id="ellipse4193"
           cx="287.5863"
           cy="482.19052"
           rx="0.97775894"
           ry="1.0076567" />
        <ellipse
           ry="1.0076567"
           rx="0.97775894"
           cy="480.69565"
           cx="272.33847"
           id="ellipse4195"
           style="opacity:0.98000004;fill:#000000;fill-opacity:1;stroke:#000000;stroke-width:0.21773213;stroke-linecap:round;stroke-linejoin:round;stroke-miterlimit:4;stroke-dasharray:none;stroke-opacity:0" />
        <ellipse
           style="opacity:0.98000004;fill:#000000;fill-opacity:1;stroke:#000000;stroke-width:0.21773213;stroke-linecap:round;stroke-linejoin:round;stroke-miterlimit:4;stroke-dasharray:none;stroke-opacity:0"
           id="ellipse4197"
           cx="271.38174"
           cy="485.65866"
           rx="0.97775894"
           ry="1.0076567" />
        <ellipse
           ry="1.163474"
           rx="1.2531672"
           cy="486.73499"
           cx="280.11188"
           id="ellipse4199"
           style="opacity:0.98000004;fill:#000000;fill-opacity:1;stroke:#000000;stroke-width:0.26487026;stroke-linecap:round;stroke-linejoin:round;stroke-miterlimit:4;stroke-dasharray:none;stroke-opacity:0" />
        <ellipse
           style="opacity:0.98000004;fill:#000000;fill-opacity:1;stroke:#000000;stroke-width:0.26487026;stroke-linecap:round;stroke-linejoin:round;stroke-miterlimit:4;stroke-dasharray:none;stroke-opacity:0"
           id="ellipse4201"
           cx="266.29913"
           cy="492.65475"
           rx="1.2531672"
           ry="1.163474" />
        <ellipse
           ry="1.0076567"
           rx="0.97775894"
           cy="501.923"
           cx="232.57449"
           id="ellipse4203"
           style="opacity:0.98000004;fill:#000000;fill-opacity:1;stroke:#000000;stroke-width:0.21773213;stroke-linecap:round;stroke-linejoin:round;stroke-miterlimit:4;stroke-dasharray:none;stroke-opacity:0" />
        <ellipse
           style="opacity:0.98000004;fill:#000000;fill-opacity:1;stroke:#000000;stroke-width:0.21773213;stroke-linecap:round;stroke-linejoin:round;stroke-miterlimit:4;stroke-dasharray:none;stroke-opacity:0"
           id="ellipse4205"
           cx="229.64452"
           cy="522.61224"
           rx="0.97775894"
           ry="1.0076567" />
        <ellipse
           ry="1.163474"
           rx="1.2531672"
           cy="507.00568"
           cx="240.5273"
           id="ellipse4207"
           style="opacity:0.98000004;fill:#000000;fill-opacity:1;stroke:#000000;stroke-width:0.26487026;stroke-linecap:round;stroke-linejoin:round;stroke-miterlimit:4;stroke-dasharray:none;stroke-opacity:0" />
        <ellipse
           ry="1.0076567"
           rx="0.97775894"
           cy="516.33374"
           cx="233.29204"
           id="ellipse4209"
           style="opacity:0.98000004;fill:#000000;fill-opacity:1;stroke:#000000;stroke-width:0.21773213;stroke-linecap:round;stroke-linejoin:round;stroke-miterlimit:4;stroke-dasharray:none;stroke-opacity:0" />
        <ellipse
           style="opacity:0.98000004;fill:#000000;fill-opacity:1;stroke:#000000;stroke-width:0.26487026;stroke-linecap:round;stroke-linejoin:round;stroke-miterlimit:4;stroke-dasharray:none;stroke-opacity:0"
           id="ellipse4211"
           cx="250.9915"
           cy="524.22675"
           rx="1.2531672"
           ry="1.163474" />
        <ellipse
           ry="1.163474"
           rx="1.2531672"
           cy="551.1347"
           cx="274.5509"
           id="ellipse4213"
           style="opacity:0.98000004;fill:#000000;fill-opacity:1;stroke:#000000;stroke-width:0.26487026;stroke-linecap:round;stroke-linejoin:round;stroke-miterlimit:4;stroke-dasharray:none;stroke-opacity:0" />
        <ellipse
           ry="1.0076567"
           rx="0.97775894"
           cy="549.9986"
           cx="285.79245"
           id="ellipse4215"
           style="opacity:0.98000004;fill:#000000;fill-opacity:1;stroke:#000000;stroke-width:0.21773213;stroke-linecap:round;stroke-linejoin:round;stroke-miterlimit:4;stroke-dasharray:none;stroke-opacity:0" />
        <ellipse
           style="opacity:0.98000004;fill:#000000;fill-opacity:1;stroke:#000000;stroke-width:0.26487026;stroke-linecap:round;stroke-linejoin:round;stroke-miterlimit:4;stroke-dasharray:none;stroke-opacity:0"
           id="ellipse4219"
           cx="304.32901"
           cy="515.49664"
           rx="1.2531672"
           ry="1.163474" />
        <ellipse
           style="opacity:0.98000004;fill:#000000;fill-opacity:1;stroke:#000000;stroke-width:0.21773213;stroke-linecap:round;stroke-linejoin:round;stroke-miterlimit:4;stroke-dasharray:none;stroke-opacity:0"
           id="ellipse4221"
           cx="346.90341"
           cy="555.85852"
           rx="0.97775894"
           ry="1.0076567" />
        <ellipse
           ry="1.163474"
           rx="1.2531672"
           cy="543.4809"
           cx="346.06622"
           id="ellipse4225"
           style="opacity:0.98000004;fill:#000000;fill-opacity:1;stroke:#000000;stroke-width:0.26487026;stroke-linecap:round;stroke-linejoin:round;stroke-miterlimit:4;stroke-dasharray:none;stroke-opacity:0" />
        <rect
           y="518.66577"
           x="280.62009"
           height="1.7340683"
           width="1.8237615"
           id="rect4227"
           style="opacity:0.98000004;fill:#000000;fill-opacity:1;stroke:#000000;stroke-width:0.2;stroke-linecap:round;stroke-linejoin:round;stroke-miterlimit:4;stroke-dasharray:none;stroke-opacity:0" />
        <rect
           style="opacity:0.98000004;fill:#000000;fill-opacity:1;stroke:#000000;stroke-width:0.2;stroke-linecap:round;stroke-linejoin:round;stroke-miterlimit:4;stroke-dasharray:none;stroke-opacity:0"
           id="rect4229"
           width="1.8237615"
           height="1.7340683"
           x="350.9881"
           y="532.24548" />
      </g>
      <path
         inkscape:connector-curvature="0"
         id="path4181"
         d="m 252.30759,488.05432 c -0.21353,-0.1026 -0.42613,-0.18313 -0.47242,-0.17884 -0.0905,0.009 -1.23749,-0.72658 -1.24364,-0.79685 -0.002,-0.0231 -0.14019,-0.19336 -0.30699,-0.3781 -0.21524,-0.23838 -0.35431,-0.51228 -0.47903,-0.94349 -0.0967,-0.33418 -0.20922,-0.69037 -0.25014,-0.79153 -0.0536,-0.13256 -0.008,-0.30565 0.16258,-0.61996 0.13032,-0.23982 0.23258,-0.48613 0.22722,-0.54733 -0.0179,-0.20443 0.29262,-0.85362 0.52632,-1.10043 0.13407,-0.14158 0.24231,-0.36465 0.25796,-0.53166 0.0414,-0.44132 0.68346,-1.03877 1.23797,-1.15189 0.53856,-0.1098 1.60306,-0.6477 1.89355,-0.95671 0.15165,-0.16128 0.34928,-0.26851 0.60011,-0.32551 0.20571,-0.0468 0.51077,-0.17883 0.6779,-0.29347 0.57242,-0.39267 1.4187,-0.55893 1.95859,-0.38478 0.24914,0.0804 0.47374,0.0703 1.49385,-0.0668 1.33779,-0.17979 1.77036,-0.30167 2.04882,-0.57743 0.22397,-0.22173 0.5704,-0.37738 0.90997,-0.4088 0.13484,-0.0125 0.53721,-0.1177 0.89413,-0.23373 0.35692,-0.11612 0.86511,-0.28089 1.12928,-0.36624 0.26418,-0.0853 0.68487,-0.25669 0.93489,-0.38074 0.25,-0.124 0.61084,-0.26973 0.80188,-0.32374 0.19101,-0.0541 0.53513,-0.22083 0.76472,-0.37073 0.22958,-0.14989 0.60919,-0.31654 0.84358,-0.37034 0.23438,-0.0539 0.61909,-0.20193 0.85489,-0.32918 0.23581,-0.12729 0.63632,-0.27307 0.89,-0.32402 0.31401,-0.0631 0.55934,-0.17058 0.7686,-0.33688 0.16906,-0.13435 0.33183,-0.24762 0.36174,-0.25172 0.69537,-0.0953 1.27771,-0.27493 1.50208,-0.46309 0.1421,-0.11917 0.3442,-0.2392 0.44911,-0.26674 0.1049,-0.0276 0.29204,-0.0773 0.41584,-0.11065 0.1238,-0.0333 0.3165,-0.14023 0.4282,-0.23758 0.24441,-0.21299 0.52799,-0.33975 0.82074,-0.36684 0.1253,-0.0116 0.34659,-0.14155 0.52468,-0.30818 0.24853,-0.23248 0.37834,-0.29462 0.67217,-0.32182 0.26306,-0.0243 0.49279,-0.11712 0.82757,-0.3343 0.33889,-0.21982 0.56505,-0.31052 0.8416,-0.33749 0.30238,-0.029 0.44082,-0.0929 0.69073,-0.31615 0.17191,-0.15359 0.43807,-0.31391 0.59147,-0.35623 0.1534,-0.0423 0.32187,-0.12819 0.3744,-0.19074 0.13543,-0.16139 0.55518,-0.36967 0.93073,-0.46184 0.17644,-0.0433 0.47782,-0.17222 0.66973,-0.28646 0.19188,-0.11424 0.43367,-0.21559 0.53726,-0.22517 0.10363,-0.01 0.48123,-0.17805 0.83917,-0.37436 0.35795,-0.19633 0.74649,-0.3658 0.86346,-0.37662 0.30953,-0.0287 0.64326,-0.18258 1.13344,-0.52281 0.45852,-0.31826 0.56551,-0.53156 0.59268,-1.18156 0.0144,-0.34763 0.3401,-0.89043 0.63176,-1.05326 0.0976,-0.0544 0.67649,-0.15993 1.28645,-0.23422 1.16819,-0.14236 1.28474,-0.1767 1.74362,-0.51287 0.21802,-0.15975 0.39799,-0.22037 0.75106,-0.25304 0.35531,-0.0328 0.54168,-0.0962 0.79379,-0.26962 0.18118,-0.12464 0.60433,-0.31774 0.94031,-0.42912 0.33597,-0.1114 0.70727,-0.2554 0.82509,-0.32006 0.30265,-0.16612 0.76992,-0.32776 1.01233,-0.35019 0.11346,-0.0107 0.33392,-0.13058 0.48991,-0.26676 0.21921,-0.19142 0.41636,-0.27577 0.86819,-0.3714 0.36614,-0.0775 0.75228,-0.22224 1.03339,-0.38735 0.24684,-0.14499 0.59845,-0.30082 0.78133,-0.3463 0.18293,-0.0454 0.47416,-0.1807 0.64722,-0.30045 0.17306,-0.11978 0.48409,-0.26068 0.69117,-0.31313 0.2071,-0.0525 0.50385,-0.19271 0.65945,-0.31171 0.41889,-0.32035 0.72358,-0.39751 2.29871,-0.58224 1.24832,-0.14634 1.50478,-0.19844 2.00931,-0.40766 0.31809,-0.13191 0.71961,-0.25292 0.89223,-0.2689 0.25413,-0.0235 0.33898,-0.0732 0.44574,-0.26014 0.0725,-0.12709 0.28608,-0.32044 0.47457,-0.42966 0.18849,-0.10921 0.41114,-0.26158 0.49475,-0.33861 0.0837,-0.077 0.32327,-0.1775 0.53253,-0.22328 0.2093,-0.0458 0.56498,-0.20727 0.79043,-0.35887 0.3809,-0.2561 0.47273,-0.28324 1.29805,-0.38379 0.82261,-0.10025 0.91445,-0.12723 1.24461,-0.36603 0.33418,-0.24172 0.41271,-0.26415 1.25665,-0.35897 0.88272,-0.0993 0.90561,-0.10633 1.17755,-0.36752 0.24775,-0.23795 0.35337,-0.27985 0.9897,-0.39254 0.56272,-0.0996 0.77304,-0.17251 1.00126,-0.3471 0.15888,-0.12145 0.44145,-0.25231 0.62789,-0.29065 0.61927,-0.12734 0.70169,-0.16258 0.96601,-0.41303 0.23124,-0.21908 0.32479,-0.2544 0.7866,-0.29713 0.69966,-0.0647 1.02592,-0.15672 1.23202,-0.34722 0.0942,-0.0871 0.33655,-0.23624 0.53847,-0.3314 0.20191,-0.0951 0.47178,-0.28596 0.5997,-0.42398 0.20459,-0.22073 0.29016,-0.25626 0.71039,-0.29515 0.38382,-0.0355 0.52109,-0.0839 0.69791,-0.24665 0.12105,-0.11132 0.36315,-0.25469 0.53798,-0.31856 0.17485,-0.0639 0.41277,-0.21622 0.52872,-0.33854 0.14916,-0.15735 0.33807,-0.24968 0.64587,-0.3157 0.27893,-0.0598 0.54654,-0.1817 0.74576,-0.33965 0.22509,-0.17844 0.45997,-0.27733 0.85227,-0.35876 0.44344,-0.092 0.57522,-0.15419 0.72749,-0.34316 0.16974,-0.21067 0.2488,-0.24046 0.90672,-0.34181 0.65543,-0.10089 0.74534,-0.13471 0.99221,-0.37177 0.19247,-0.18486 0.35619,-0.26857 0.56258,-0.28767 0.33992,-0.0315 0.54059,-0.13184 0.82327,-0.41172 0.14603,-0.14459 0.30172,-0.21163 0.54335,-0.23398 0.4994,-0.0462 0.89633,-0.20068 1.11483,-0.43384 0.17916,-0.1912 0.37981,-0.25509 0.86942,-0.27685 0.0983,-0.005 0.33208,-0.10462 0.5193,-0.22277 0.18721,-0.11819 0.43731,-0.26166 0.55578,-0.31889 0.35316,-0.17064 0.88277,-0.44849 1.20201,-0.63061 0.50136,-0.28602 1.67842,-0.31756 1.70222,-0.0456 0.0134,0.15285 -0.20807,0.25634 -0.79097,0.36963 -0.32395,0.0629 -0.59949,0.17162 -0.78122,0.3081 -0.43423,0.32609 -1.26291,0.81075 -1.51507,0.8861 -0.12497,0.0373 -0.37969,0.17275 -0.56604,0.3009 -0.18634,0.12818 -0.46482,0.26796 -0.61885,0.31067 -0.154,0.0428 -0.44272,0.20694 -0.64154,0.365 -0.27649,0.21979 -0.44637,0.29538 -0.72232,0.32148 -0.37264,0.0352 -1.11813,0.46106 -1.73045,0.98847 -0.17067,0.147 -0.37576,0.24565 -0.54286,0.26111 -0.18638,0.0173 -0.35988,0.11276 -0.56704,0.3121 -0.2384,0.22943 -0.36897,0.29377 -0.64873,0.31965 -0.28832,0.0267 -0.39506,0.0825 -0.60371,0.31549 -0.13943,0.15571 -0.31633,0.28818 -0.39313,0.29441 -0.0769,0.006 -0.48125,0.13458 -0.89876,0.2853 -1.00039,0.36106 -1.5607,0.83263 -1.6633,1.39987 -0.0922,0.5096 -0.14209,0.59503 -0.40974,0.70132 -0.39733,0.15778 -0.70491,0.0436 -0.84543,-0.314 -0.067,-0.17041 -0.20334,-0.34947 -0.30306,-0.39791 -0.27037,-0.13135 -0.71709,-0.0646 -0.89914,0.13438 -0.0858,0.0937 -0.27183,0.23237 -0.41348,0.30818 -0.14165,0.0757 -0.38094,0.24471 -0.53173,0.3754 -0.1508,0.1307 -0.37726,0.24716 -0.50323,0.25881 -0.12598,0.0116 -0.37026,0.13311 -0.54288,0.26979 -0.17259,0.13673 -0.48207,0.29616 -0.68775,0.3543 -0.20566,0.0581 -0.47261,0.197 -0.59324,0.30857 -0.1206,0.1116 -0.37601,0.25923 -0.56754,0.32811 -0.19151,0.0689 -0.85121,0.38058 -1.46597,0.69261 -0.61476,0.31205 -1.25479,0.60477 -1.42232,0.65049 -0.16751,0.0457 -0.52277,0.19916 -0.78945,0.341 -0.26671,0.14183 -0.56593,0.26537 -0.66494,0.27453 -0.0991,0.01 -0.26709,0.10963 -0.37345,0.22329 -0.23824,0.25454 -0.59539,0.4598 -0.83931,0.48237 -0.21231,0.0196 -1.14682,0.64376 -1.30958,0.87459 -0.0663,0.094 -0.31477,0.21585 -0.62345,0.30581 -0.66567,0.19402 -1.6484,0.67125 -1.98298,0.96297 -0.21273,0.18549 -0.38465,0.25121 -0.89167,0.34083 -0.41654,0.0737 -0.72058,0.17403 -0.90255,0.29802 -0.15096,0.10282 -0.45096,0.24783 -0.66671,0.32221 -0.21575,0.0743 -0.52474,0.2376 -0.68665,0.36274 -0.16191,0.12514 -0.47101,0.2872 -0.68689,0.36014 -0.21586,0.0729 -0.49341,0.20497 -0.61676,0.29337 -0.12337,0.0884 -0.26686,0.16467 -0.31889,0.16948 -0.12282,0.0114 -0.71027,0.29461 -0.87279,0.42081 -0.0693,0.054 -0.26526,0.14885 -0.43533,0.21106 -0.47055,0.17213 -1.10223,0.61988 -1.60849,1.14015 -0.33716,0.34647 -0.51972,0.47463 -0.6999,0.49129 -0.16491,0.0153 -0.37019,0.13963 -0.63475,0.38441 -0.21712,0.2009 -0.64076,0.47492 -0.95249,0.61607 -0.3088,0.13983 -0.68067,0.35831 -0.82638,0.4855 -0.14572,0.12719 -0.3961,0.26762 -0.55639,0.31206 -0.16029,0.0445 -0.44499,0.18739 -0.63265,0.31763 -0.2487,0.17263 -0.50242,0.26621 -0.93606,0.34532 -0.46094,0.084 -0.66253,0.16228 -0.89533,0.34727 -0.28166,0.22381 -1.11255,0.61611 -1.35287,0.63874 -0.16032,0.0148 -1.72785,0.75053 -1.87288,0.8787 -0.16947,0.14974 -0.85058,0.40924 -1.15052,0.43831 -0.13416,0.0129 -0.44901,0.10933 -0.69966,0.21415 -0.25067,0.10483 -0.56122,0.20027 -0.69013,0.21221 -0.13959,0.0129 -0.33026,0.11698 -0.4714,0.25711 -0.13035,0.12945 -0.49103,0.334 -0.80152,0.45455 -0.31048,0.12061 -0.62792,0.25343 -0.70541,0.29528 -0.0775,0.0418 -0.53277,0.14974 -1.01172,0.23969 -0.72689,0.13654 -0.99876,0.22839 -1.64474,0.55547 -0.76104,0.38534 -1.39145,0.62157 -2.08675,0.78192 -0.59192,0.13647 -1.46865,0.5223 -2.19659,0.96653 -0.49699,0.30331 -0.75155,0.50727 -1.37034,1.09803 l -0.39225,0.37448 -0.82512,0.0806 c -0.7026,0.0693 -0.87892,0.11292 -1.18805,0.29452 -0.19964,0.11721 -0.36098,0.23621 -0.35851,0.26434 0.002,0.0282 -0.13888,0.19734 -0.31411,0.37602 -0.24337,0.24818 -0.46598,0.37662 -0.94304,0.54414 -0.48334,0.16972 -0.72702,0.31155 -1.07843,0.62764 -0.47326,0.42571 -0.49357,0.43503 -1.42289,0.65404 -0.31486,0.0741 -0.76854,0.25031 -1.00934,0.3918 -0.24059,0.14138 -0.49584,0.26244 -0.56722,0.26904 -0.0713,0.006 -0.29865,0.1238 -0.50507,0.26051 -0.2064,0.13666 -0.52801,0.30829 -0.71466,0.38138 -0.18668,0.0731 -0.52954,0.31111 -0.76192,0.5289 -0.23239,0.2178 -0.55614,0.48527 -0.71946,0.59438 -0.60043,0.40112 -1.06664,0.90723 -1.10099,1.19525 -0.026,0.21841 -0.17948,0.41577 -0.74553,0.95915 -0.392,0.37628 -0.96497,0.92948 -1.27328,1.22932 -0.35532,0.34558 -0.66323,0.57375 -0.84097,0.62324 -0.15423,0.043 -0.45989,0.17524 -0.67927,0.294 -0.21936,0.11882 -0.71365,0.3094 -1.09839,0.4236 -0.38475,0.11421 -0.94933,0.29945 -1.25464,0.41162 -0.436,0.16018 -0.78866,0.22555 -1.64361,0.30467 -1.06811,0.0989 -1.09581,0.0971 -1.47677,-0.0859 z m 84.28215,-39.8391 c -0.0736,-0.082 0.0863,-0.1847 0.2103,-0.13509 0.10405,0.0417 0.0502,0.18003 -0.0745,0.19157 -0.0432,0.004 -0.10436,-0.0214 -0.1358,-0.0565 z m 4.25933,-2.20558 c -0.0597,-0.0496 -0.14775,-0.24234 -0.19563,-0.42834 -0.11471,-0.44541 0.0514,-0.64598 0.57191,-0.69079 0.62285,-0.0533 0.86064,0.21474 0.63775,0.71959 -0.1536,0.34791 -0.77934,0.59446 -1.01403,0.39954 z m -5.07671,0.34936 c -0.41378,-0.10463 -0.23868,-0.37535 0.32342,-0.50016 0.45984,-0.10206 0.57878,-0.22112 0.54997,-0.55033 -0.0169,-0.19309 -0.10146,-0.3428 -0.27341,-0.4835 -0.33413,-0.27361 -0.27718,-0.50068 0.13512,-0.53883 0.37692,-0.0349 0.62315,0.11523 0.84522,0.51523 0.10573,0.1904 0.29224,0.37085 0.46598,0.45077 l 0.28972,0.13326 -0.20204,0.10896 c -0.11115,0.0599 -0.39663,0.25747 -0.63439,0.43893 -0.46316,0.35343 -1.08594,0.53021 -1.49959,0.42562 z m -1.21181,-1.1718 c -0.22988,-0.10131 -0.33055,-0.20315 -0.36515,-0.36928 -0.0601,-0.28828 0.16711,-0.43538 0.62841,-0.40696 0.36298,0.0224 0.55771,0.25133 0.48951,0.57551 -0.0729,0.34692 -0.28992,0.40477 -0.75277,0.20073 z m 17.03053,-7.76936 c -0.20812,-0.26603 0.22517,-0.55059 0.49594,-0.32573 0.0641,0.0533 0.0966,0.16715 0.0719,0.25298 -0.0562,0.19629 -0.43347,0.24461 -0.56793,0.0728 z m 9.92417,-1.91467 c -0.36852,-0.13489 -0.43614,-0.25558 -0.43645,-0.77884 -1.5e-4,-0.27544 0.0215,-0.53615 0.0482,-0.57935 0.0267,-0.0433 0.28668,-0.10068 0.57775,-0.12756 l 0.52922,-0.0489 0.0169,0.27661 c 0.0672,1.11747 -0.14196,1.47528 -0.7354,1.25806 z"
         style="fill:#000000" />
    </g>
    <flowRoot
       transform="translate(174.12434,143.5091)"
       style="font-style:normal;font-variant:normal;font-weight:bold;font-stretch:normal;font-size:12.5px;line-height:125%;font-family:'PT Sans';-inkscape-font-specification:'PT Sans Bold';text-align:start;letter-spacing:0px;word-spacing:0px;writing-mode:lr-tb;text-anchor:start;fill:#000000;fill-opacity:1;stroke:none;stroke-width:1px;stroke-linecap:butt;stroke-linejoin:miter;stroke-opacity:1"
       id="flowRoot4335"
       xml:space="preserve"><flowRegion
         id="flowRegion4337"><rect
           style="font-size:12.5px"
           y="494.62802"
           x="63.144001"
           height="26.788422"
           width="204.73972"
           id="rect4339" /></flowRegion><flowPara
         style="font-size:25px"
         id="flowPara4341">Bolidozor network</flowPara></flowRoot>  </g>
</svg>
